<ttFont>
    <TTGlyph name=".notdef" xMin="102" yMin="0" xMax="922" yMax="1092">
      <contour>
        <pt x="102" y="1092" on="1"/>
        <pt x="922" y="1092" on="1"/>
        <pt x="922" y="0" on="1"/>
        <pt x="102" y="0" on="1"/>
      </contour>
      <contour>
        <pt x="820" y="102" on="1"/>
        <pt x="820" y="990" on="1"/>
        <pt x="204" y="990" on="1"/>
        <pt x="204" y="102" on="1"/>
      </contour>
    </TTGlyph>
    <TTGlyph name="A" xMin="66" yMin="0" xMax="873" yMax="1760">
      <contour>
        <pt x="333" y="1760" on="1"/>
        <pt x="582" y="1760" on="1"/>
        <pt x="873" y="0" on="1"/>
        <pt x="678" y="0" on="1"/>
        <pt x="628" y="336" on="1"/>
        <pt x="309" y="336" on="1"/>
        <pt x="263" y="0" on="1"/>
        <pt x="66" y="0" on="1"/>
      </contour>
      <contour>
        <pt x="332" y="504" on="1"/>
        <pt x="602" y="504" on="1"/>
        <pt x="463" y="1434" on="1"/>
        <pt x="460" y="1434" on="1"/>
      </contour>
    </TTGlyph>
    <TTGlyph name="AE" xMin="66" yMin="0" xMax="1109" yMax="1760">
      <contour>
        <pt x="419" y="1760" on="1"/>
        <pt x="1105" y="1760" on="1"/>
        <pt x="1105" y="1588" on="1"/>
        <pt x="803" y="1588" on="1"/>
        <pt x="803" y="986" on="1"/>
        <pt x="1088" y="986" on="1"/>
        <pt x="1088" y="812" on="1"/>
        <pt x="803" y="812" on="1"/>
        <pt x="803" y="172" on="1"/>
        <pt x="1109" y="172" on="1"/>
        <pt x="1109" y="0" on="1"/>
        <pt x="596" y="0" on="1"/>
        <pt x="596" y="336" on="1"/>
        <pt x="329" y="336" on="1"/>
        <pt x="264" y="0" on="1"/>
        <pt x="66" y="0" on="1"/>
      </contour>
      <contour>
        <pt x="596" y="497" on="1"/>
        <pt x="596" y="1590" on="1"/>
        <pt x="570" y="1589" on="1"/>
        <pt x="359" y="497" on="1"/>
      </contour>
    </TTGlyph>
    <TTGlyph name="Aacute" xMin="66" yMin="0" xMax="873" yMax="2181">
      <component glyphName="acute" x="169" y="52" flags="0x1004"/>
      <component glyphName="A" x="0" y="0" flags="0x1004"/>
    </TTGlyph>
    <TTGlyph name="Abreve" xMin="66" yMin="0" xMax="873" yMax="2116">
      <component glyphName="breve" x="-49" y="260" flags="0x1004"/>
      <component glyphName="A" x="0" y="0" flags="0x1004"/>
    </TTGlyph>
    <TTGlyph name="Acircumflex" xMin="66" yMin="0" xMax="873" yMax="2146">
      <component glyphName="circumflex" x="-26" y="260" flags="0x1004"/>
      <component glyphName="A" x="0" y="0" flags="0x1004"/>
    </TTGlyph>
    <TTGlyph name="Adieresis" xMin="66" yMin="0" xMax="873" yMax="2056">
      <component glyphName="dieresis" x="-29" y="1460" flags="0x1004"/>
      <component glyphName="A" x="0" y="0" flags="0x1004"/>
    </TTGlyph>
    <TTGlyph name="Agrave" xMin="66" yMin="0" xMax="873" yMax="2163">
      <component glyphName="grave" x="156" y="1460" flags="0x1004"/>
      <component glyphName="A" x="0" y="0" flags="0x1004"/>
    </TTGlyph>
    <TTGlyph name="Amacron" xMin="66" yMin="0" xMax="873" yMax="2004">
      <component glyphName="macron" x="111" y="1460" flags="0x1004"/>
      <component glyphName="A" x="0" y="0" flags="0x1004"/>
    </TTGlyph>
    <TTGlyph name="Aogonek" xMin="66" yMin="-619" xMax="873" yMax="1760">
      <component glyphName="ogonek" x="15" y="7" flags="0x1004"/>
      <component glyphName="A" x="0" y="0" flags="0x1004"/>
    </TTGlyph>
    <TTGlyph name="Aring" xMin="66" yMin="0" xMax="873" yMax="2231">
      <component glyphName="ring" x="-3" y="1460" flags="0x1004"/>
      <component glyphName="A" x="0" y="0" flags="0x1004"/>
    </TTGlyph>
    <TTGlyph name="Atilde" xMin="66" yMin="0" xMax="873" yMax="2110">
      <component glyphName="tilde" x="-99" y="1460" flags="0x1004"/>
      <component glyphName="A" x="0" y="0" flags="0x1004"/>
    </TTGlyph>
    <TTGlyph name="B" xMin="160" yMin="0" xMax="851" yMax="1760">
      <contour>
        <pt x="160" y="1760" on="1"/>
        <pt x="478" y="1760" on="1"/>
        <pt x="677" y="1760" on="0"/>
        <pt x="820" y="1579" on="0"/>
        <pt x="822" y="1364" on="1"/>
        <pt x="822" y="1326" on="1"/>
        <pt x="822" y="1171" on="0"/>
        <pt x="764" y="993" on="0"/>
        <pt x="689" y="953" on="1"/>
        <pt x="851" y="887" on="0"/>
        <pt x="851" y="530" on="1"/>
        <pt x="851" y="493" on="1"/>
        <pt x="848" y="229" on="0"/>
        <pt x="694" y="0" on="0"/>
        <pt x="504" y="0" on="1"/>
        <pt x="160" y="0" on="1"/>
      </contour>
      <contour>
        <pt x="643" y="560" on="1"/>
        <pt x="643" y="730" on="0"/>
        <pt x="587" y="866" on="0"/>
        <pt x="505" y="866" on="1"/>
        <pt x="367" y="866" on="1"/>
        <pt x="367" y="167" on="1"/>
        <pt x="494" y="167" on="1"/>
        <pt x="582" y="167" on="0"/>
        <pt x="643" y="305" on="0"/>
        <pt x="643" y="499" on="1"/>
      </contour>
      <contour>
        <pt x="617" y="1361" on="1"/>
        <pt x="617" y="1364" on="0"/>
        <pt x="617" y="1367" on="1"/>
        <pt x="617" y="1543" on="0"/>
        <pt x="556" y="1575" on="1"/>
        <pt x="526" y="1591" on="0"/>
        <pt x="469" y="1591" on="1"/>
        <pt x="367" y="1591" on="1"/>
        <pt x="367" y="1025" on="1"/>
        <pt x="484" y="1025" on="1"/>
        <pt x="544" y="1025" on="0"/>
        <pt x="595" y="1064" on="0"/>
        <pt x="617" y="1180" on="0"/>
        <pt x="617" y="1312" on="1"/>
      </contour>
    </TTGlyph>
    <TTGlyph name="C" xMin="124" yMin="-21" xMax="811" yMax="1781">
      <contour>
        <pt x="124" y="1252" on="1"/>
        <pt x="124" y="1452" on="0"/>
        <pt x="190" y="1640" on="0"/>
        <pt x="229" y="1684" on="1"/>
        <pt x="314" y="1780" on="0"/>
        <pt x="477" y="1781" on="1"/>
        <pt x="705" y="1780" on="0"/>
        <pt x="771" y="1580" on="1"/>
        <pt x="809" y="1465" on="0"/>
        <pt x="809" y="1274" on="1"/>
        <pt x="809" y="1079" on="1"/>
        <pt x="606" y="1079" on="1"/>
        <pt x="606" y="1275" on="1"/>
        <pt x="606" y="1444" on="0"/>
        <pt x="569" y="1563" on="0"/>
        <pt x="517" y="1602" on="0"/>
        <pt x="477" y="1602" on="1"/>
        <pt x="394" y="1602" on="0"/>
        <pt x="331" y="1445" on="0"/>
        <pt x="331" y="1276" on="1"/>
        <pt x="331" y="514" on="1"/>
        <pt x="331" y="314" on="0"/>
        <pt x="388" y="155" on="0"/>
        <pt x="551" y="155" on="0"/>
        <pt x="606" y="315" on="0"/>
        <pt x="606" y="515" on="1"/>
        <pt x="606" y="710" on="1"/>
        <pt x="811" y="710" on="1"/>
        <pt x="811" y="517" on="1"/>
        <pt x="811" y="240" on="0"/>
        <pt x="660" y="-21" on="0"/>
        <pt x="284" y="-21" on="0"/>
        <pt x="124" y="248" on="0"/>
        <pt x="124" y="519" on="1"/>
      </contour>
    </TTGlyph>
    <TTGlyph name="Cacute" xMin="124" yMin="-21" xMax="811" yMax="2181">
      <component glyphName="C" x="0" y="0" flags="0x1004"/>
      <component glyphName="acute" x="181" y="52" flags="0x1004"/>
    </TTGlyph>
    <TTGlyph name="Ccaron" xMin="124" yMin="-21" xMax="811" yMax="2146">
      <component glyphName="C" x="0" y="0" flags="0x1004"/>
      <component glyphName="caron" x="-14" y="260" flags="0x1004"/>
    </TTGlyph>
    <TTGlyph name="Ccedilla" xMin="124" yMin="-617" xMax="811" yMax="1781">
      <component glyphName="cedilla" x="-48" y="0" flags="0x1004"/>
      <component glyphName="C" x="0" y="0" flags="0x1004"/>
    </TTGlyph>
    <TTGlyph name="Ccircumflex" xMin="124" yMin="-21" xMax="811" yMax="2146">
      <component glyphName="C" x="0" y="0" flags="0x1004"/>
      <component glyphName="circumflex" x="-14" y="260" flags="0x1004"/>
    </TTGlyph>
    <TTGlyph name="Cdotaccent" xMin="124" yMin="-21" xMax="811" yMax="2043">
      <component glyphName="dotaccent" x="185" y="1460" flags="0x1004"/>
      <component glyphName="C" x="0" y="0" flags="0x1004"/>
    </TTGlyph>
    <TTGlyph name="D" xMin="143" yMin="0" xMax="829" yMax="1760">
      <contour>
        <pt x="143" y="1760" on="1"/>
        <pt x="474" y="1760" on="1"/>
        <pt x="676" y="1760" on="0"/>
        <pt x="828" y="1511" on="0"/>
        <pt x="828" y="1282" on="1"/>
        <pt x="829" y="509" on="1"/>
        <pt x="829" y="238" on="0"/>
        <pt x="663" y="0" on="0"/>
        <pt x="467" y="0" on="1"/>
        <pt x="143" y="0" on="1"/>
      </contour>
      <contour>
        <pt x="622" y="1287" on="1"/>
        <pt x="622" y="1452" on="0"/>
        <pt x="544" y="1596" on="0"/>
        <pt x="455" y="1596" on="1"/>
        <pt x="349" y="1596" on="1"/>
        <pt x="349" y="167" on="1"/>
        <pt x="455" y="167" on="1"/>
        <pt x="515" y="167" on="0"/>
        <pt x="549" y="191" on="1"/>
        <pt x="622" y="243" on="0"/>
        <pt x="622" y="477" on="1"/>
      </contour>
    </TTGlyph>
    <TTGlyph name="Dcaron" xMin="143" yMin="0" xMax="829" yMax="2146">
      <component glyphName="D" x="0" y="0" flags="0x1004"/>
      <component glyphName="caron" x="-20" y="260" flags="0x1004"/>
    </TTGlyph>
    <TTGlyph name="Dcroat" xMin="23" yMin="0" xMax="829" yMax="1760">
      <component glyphName="D" x="0" y="0" flags="0x1004"/>
      <component glyphName="macron" x="-67" y="433" flags="0x1004"/>
    </TTGlyph>
    <TTGlyph name="E" xMin="144" yMin="0" xMax="674" yMax="1760">
      <contour>
        <pt x="144" y="1760" on="1"/>
        <pt x="670" y="1760" on="1"/>
        <pt x="670" y="1588" on="1"/>
        <pt x="351" y="1588" on="1"/>
        <pt x="351" y="986" on="1"/>
        <pt x="653" y="986" on="1"/>
        <pt x="653" y="814" on="1"/>
        <pt x="351" y="814" on="1"/>
        <pt x="351" y="172" on="1"/>
        <pt x="674" y="172" on="1"/>
        <pt x="674" y="0" on="1"/>
        <pt x="144" y="0" on="1"/>
      </contour>
    </TTGlyph>
    <TTGlyph name="Eacute" xMin="144" yMin="0" xMax="674" yMax="2181">
      <component glyphName="E" x="0" y="0" flags="0x1004"/>
      <component glyphName="acute" x="125" y="52" flags="0x1004"/>
    </TTGlyph>
    <TTGlyph name="Ebreve" xMin="144" yMin="0" xMax="674" yMax="2116">
      <component glyphName="breve" x="-92" y="260" flags="0x1004"/>
      <component glyphName="E" x="0" y="0" flags="0x1004"/>
    </TTGlyph>
    <TTGlyph name="Ecaron" xMin="144" yMin="0" xMax="683" yMax="2146">
      <component glyphName="E" x="0" y="0" flags="0x1004"/>
      <component glyphName="caron" x="-71" y="260" flags="0x1004"/>
    </TTGlyph>
    <TTGlyph name="Ecircumflex" xMin="144" yMin="0" xMax="683" yMax="2146">
      <component glyphName="E" x="0" y="0" flags="0x1004"/>
      <component glyphName="circumflex" x="-71" y="260" flags="0x1004"/>
    </TTGlyph>
    <TTGlyph name="Edieresis" xMin="57" yMin="0" xMax="771" yMax="2056">
      <component glyphName="E" x="0" y="0" flags="0x1004"/>
      <component glyphName="dieresis" x="-74" y="1460" flags="0x1004"/>
    </TTGlyph>
    <TTGlyph name="Edotaccent" xMin="144" yMin="0" xMax="674" yMax="2043">
      <component glyphName="dotaccent" x="130" y="1460" flags="0x1004"/>
      <component glyphName="E" x="0" y="0" flags="0x1004"/>
    </TTGlyph>
    <TTGlyph name="Egrave" xMin="144" yMin="0" xMax="674" yMax="2163">
      <component glyphName="grave" x="113" y="1460" flags="0x1004"/>
      <component glyphName="E" x="0" y="0" flags="0x1004"/>
    </TTGlyph>
    <TTGlyph name="Emacron" xMin="144" yMin="0" xMax="674" yMax="2004">
      <component glyphName="macron" x="68" y="1460" flags="0x1004"/>
      <component glyphName="E" x="0" y="0" flags="0x1004"/>
    </TTGlyph>
    <TTGlyph name="Eogonek" xMin="144" yMin="-619" xMax="677" yMax="1760">
      <component glyphName="E" x="0" y="0" flags="0x1004"/>
      <component glyphName="ogonek" x="-135" y="7" flags="0x1004"/>
    </TTGlyph>
    <TTGlyph name="Eth" xMin="54" yMin="0" xMax="829" yMax="1760">
      <component glyphName="D" x="0" y="0" flags="0x1004"/>
      <component glyphName="hyphen" x="-34" y="105" flags="0x1004"/>
    </TTGlyph>
    <TTGlyph name="Euro" xMin="23" yMin="-21" xMax="811" yMax="1781">
      <contour>
        <pt x="124" y="1252" on="1"/>
        <pt x="124" y="1452" on="0"/>
        <pt x="190" y="1640" on="0"/>
        <pt x="229" y="1684" on="1"/>
        <pt x="314" y="1780" on="0"/>
        <pt x="477" y="1781" on="1"/>
        <pt x="705" y="1780" on="0"/>
        <pt x="771" y="1580" on="1"/>
        <pt x="809" y="1465" on="0"/>
        <pt x="809" y="1274" on="1"/>
        <pt x="809" y="1079" on="1"/>
        <pt x="606" y="1079" on="1"/>
        <pt x="606" y="1275" on="1"/>
        <pt x="606" y="1444" on="0"/>
        <pt x="569" y="1563" on="0"/>
        <pt x="517" y="1602" on="0"/>
        <pt x="477" y="1602" on="1"/>
        <pt x="394" y="1602" on="0"/>
        <pt x="331" y="1445" on="0"/>
        <pt x="331" y="1276" on="1"/>
        <pt x="331" y="1106" on="1"/>
        <pt x="518" y="1106" on="1"/>
        <pt x="518" y="966" on="1"/>
        <pt x="331" y="966" on="1"/>
        <pt x="331" y="869" on="1"/>
        <pt x="518" y="869" on="1"/>
        <pt x="518" y="721" on="1"/>
        <pt x="331" y="721" on="1"/>
        <pt x="331" y="514" on="1"/>
        <pt x="331" y="314" on="0"/>
        <pt x="388" y="155" on="0"/>
        <pt x="551" y="155" on="0"/>
        <pt x="606" y="315" on="0"/>
        <pt x="606" y="515" on="1"/>
        <pt x="606" y="710" on="1"/>
        <pt x="811" y="710" on="1"/>
        <pt x="811" y="517" on="1"/>
        <pt x="811" y="240" on="0"/>
        <pt x="660" y="-21" on="0"/>
        <pt x="284" y="-21" on="0"/>
        <pt x="124" y="248" on="0"/>
        <pt x="124" y="519" on="1"/>
        <pt x="124" y="721" on="1"/>
        <pt x="23" y="721" on="1"/>
        <pt x="23" y="869" on="1"/>
        <pt x="124" y="869" on="1"/>
        <pt x="124" y="966" on="1"/>
        <pt x="23" y="966" on="1"/>
        <pt x="23" y="1106" on="1"/>
        <pt x="124" y="1106" on="1"/>
      </contour>
    </TTGlyph>
    <TTGlyph name="F" xMin="143" yMin="0" xMax="673" yMax="1760">
      <contour>
        <pt x="143" y="1760" on="1"/>
        <pt x="673" y="1760" on="1"/>
        <pt x="673" y="1587" on="1"/>
        <pt x="349" y="1587" on="1"/>
        <pt x="349" y="1031" on="1"/>
        <pt x="653" y="1031" on="1"/>
        <pt x="653" y="856" on="1"/>
        <pt x="349" y="856" on="1"/>
        <pt x="349" y="0" on="1"/>
        <pt x="143" y="0" on="1"/>
      </contour>
    </TTGlyph>
    <TTGlyph name="G" xMin="124" yMin="-17" xMax="813" yMax="1781">
      <contour>
        <pt x="124" y="1262" on="1"/>
        <pt x="124" y="1650" on="0"/>
        <pt x="308" y="1744" on="1"/>
        <pt x="380" y="1780" on="0"/>
        <pt x="466" y="1781" on="1"/>
        <pt x="627" y="1781" on="0"/>
        <pt x="771" y="1644" on="0"/>
        <pt x="813" y="1419" on="0"/>
        <pt x="813" y="1258" on="1"/>
        <pt x="813" y="1122" on="1"/>
        <pt x="613" y="1122" on="1"/>
        <pt x="613" y="1351" on="1"/>
        <pt x="613" y="1486" on="0"/>
        <pt x="558" y="1602" on="0"/>
        <pt x="397" y="1602" on="0"/>
        <pt x="331" y="1456" on="0"/>
        <pt x="331" y="1271" on="1"/>
        <pt x="331" y="531" on="1"/>
        <pt x="331" y="320" on="0"/>
        <pt x="389" y="155" on="0"/>
        <pt x="560" y="155" on="0"/>
        <pt x="623" y="325" on="0"/>
        <pt x="623" y="535" on="1"/>
        <pt x="623" y="764" on="1"/>
        <pt x="480" y="764" on="1"/>
        <pt x="480" y="924" on="1"/>
        <pt x="813" y="924" on="1"/>
        <pt x="813" y="0" on="1"/>
        <pt x="704" y="0" on="1"/>
        <pt x="676" y="136" on="1"/>
        <pt x="617" y="-17" on="0"/>
        <pt x="284" y="-17" on="0"/>
        <pt x="124" y="242" on="0"/>
        <pt x="124" y="524" on="1"/>
      </contour>
    </TTGlyph>
    <TTGlyph name="Gbreve" xMin="124" yMin="-17" xMax="813" yMax="2116">
      <component glyphName="breve" x="-27" y="260" flags="0x1004"/>
      <component glyphName="G" x="0" y="0" flags="0x1004"/>
    </TTGlyph>
    <TTGlyph name="Gcircumflex" xMin="124" yMin="-17" xMax="813" yMax="2146">
      <component glyphName="G" x="0" y="0" flags="0x1004"/>
      <component glyphName="circumflex" x="-4" y="260" flags="0x1004"/>
    </TTGlyph>
    <TTGlyph name="Gcommaaccent" xMin="124" yMin="-670" xMax="813" yMax="1781">
      <component glyphName="uni0326" x="200" y="-283" flags="0x1004"/>
      <component glyphName="G" x="0" y="0" flags="0x1004"/>
    </TTGlyph>
    <TTGlyph name="Gdotaccent" xMin="124" yMin="-17" xMax="813" yMax="2043">
      <component glyphName="dotaccent" x="195" y="1460" flags="0x1004"/>
      <component glyphName="G" x="0" y="0" flags="0x1004"/>
    </TTGlyph>
    <TTGlyph name="H" xMin="144" yMin="0" xMax="840" yMax="1760">
      <contour>
        <pt x="633" y="1760" on="1"/>
        <pt x="840" y="1760" on="1"/>
        <pt x="840" y="0" on="1"/>
        <pt x="633" y="0" on="1"/>
        <pt x="633" y="853" on="1"/>
        <pt x="351" y="853" on="1"/>
        <pt x="351" y="0" on="1"/>
        <pt x="144" y="0" on="1"/>
        <pt x="144" y="1760" on="1"/>
        <pt x="351" y="1760" on="1"/>
        <pt x="351" y="1022" on="1"/>
        <pt x="633" y="1022" on="1"/>
      </contour>
    </TTGlyph>
    <TTGlyph name="Hbar" xMin="55" yMin="0" xMax="951" yMax="1760">
      <contour>
        <pt x="351" y="1398" on="1"/>
        <pt x="351" y="1022" on="1"/>
        <pt x="633" y="1022" on="1"/>
        <pt x="633" y="1398" on="1"/>
      </contour>
      <contour>
        <pt x="633" y="1760" on="1"/>
        <pt x="840" y="1760" on="1"/>
        <pt x="840" y="1504" on="1"/>
        <pt x="951" y="1504" on="1"/>
        <pt x="951" y="1398" on="1"/>
        <pt x="840" y="1398" on="1"/>
        <pt x="840" y="0" on="1"/>
        <pt x="633" y="0" on="1"/>
        <pt x="633" y="853" on="1"/>
        <pt x="351" y="853" on="1"/>
        <pt x="351" y="0" on="1"/>
        <pt x="144" y="0" on="1"/>
        <pt x="144" y="1398" on="1"/>
        <pt x="55" y="1398" on="1"/>
        <pt x="55" y="1504" on="1"/>
        <pt x="144" y="1504" on="1"/>
        <pt x="144" y="1760" on="1"/>
        <pt x="351" y="1760" on="1"/>
        <pt x="351" y="1504" on="1"/>
        <pt x="633" y="1504" on="1"/>
      </contour>
    </TTGlyph>
    <TTGlyph name="Hcircumflex" xMin="144" yMin="0" xMax="840" yMax="2146">
      <component glyphName="H" x="0" y="0" flags="0x1004"/>
      <component glyphName="circumflex" x="12" y="260" flags="0x1004"/>
    </TTGlyph>
    <TTGlyph name="I" xMin="160" yMin="0" xMax="367" yMax="1760">
      <contour>
        <pt x="160" y="1760" on="1"/>
        <pt x="367" y="1760" on="1"/>
        <pt x="367" y="0" on="1"/>
        <pt x="160" y="0" on="1"/>
      </contour>
    </TTGlyph>
    <TTGlyph name="IJ" xMin="160" yMin="-21" xMax="1245" yMax="1760">
      <component glyphName="J" x="527" y="0" flags="0x1004"/>
      <component glyphName="I" x="0" y="0" flags="0x1004"/>
    </TTGlyph>
    <TTGlyph name="Iacute" xMin="74" yMin="0" xMax="493" yMax="2181">
      <component glyphName="acute" x="-26" y="52" flags="0x1004"/>
      <component glyphName="I" x="0" y="0" flags="0x1004"/>
    </TTGlyph>
    <TTGlyph name="Ibreve" xMin="27" yMin="0" xMax="497" yMax="2116">
      <component glyphName="breve" x="-244" y="260" flags="0x1004"/>
      <component glyphName="I" x="0" y="0" flags="0x1004"/>
    </TTGlyph>
    <TTGlyph name="Icircumflex" xMin="-6" yMin="0" xMax="533" yMax="2146">
      <component glyphName="circumflex" x="-221" y="260" flags="0x1004"/>
      <component glyphName="I" x="0" y="0" flags="0x1004"/>
    </TTGlyph>
    <TTGlyph name="Idieresis" xMin="-93" yMin="0" xMax="621" yMax="2056">
      <component glyphName="dieresis" x="-224" y="1460" flags="0x1004"/>
      <component glyphName="I" x="0" y="0" flags="0x1004"/>
    </TTGlyph>
    <TTGlyph name="Idotaccent" xMin="160" yMin="0" xMax="375" yMax="2043">
      <component glyphName="dotaccent" x="-22" y="1460" flags="0x1004"/>
      <component glyphName="I" x="0" y="0" flags="0x1004"/>
    </TTGlyph>
    <TTGlyph name="Igrave" xMin="82" yMin="0" xMax="453" yMax="2163">
      <component glyphName="grave" x="-39" y="1460" flags="0x1004"/>
      <component glyphName="I" x="0" y="0" flags="0x1004"/>
    </TTGlyph>
    <TTGlyph name="Imacron" xMin="6" yMin="0" xMax="507" yMax="2004">
      <component glyphName="macron" x="-84" y="1460" flags="0x1004"/>
      <component glyphName="I" x="0" y="0" flags="0x1004"/>
    </TTGlyph>
    <TTGlyph name="Iogonek" xMin="-22" yMin="-619" xMax="417" yMax="1760">
      <component glyphName="ogonek" x="-395" y="7" flags="0x1004"/>
      <component glyphName="I" x="0" y="0" flags="0x1004"/>
    </TTGlyph>
    <TTGlyph name="Itilde" xMin="-49" yMin="0" xMax="576" yMax="2110">
      <component glyphName="tilde" x="-294" y="1460" flags="0x1004"/>
      <component glyphName="I" x="0" y="0" flags="0x1004"/>
    </TTGlyph>
    <TTGlyph name="J" xMin="82" yMin="-21" xMax="718" yMax="1760">
      <contour>
        <pt x="511" y="1760" on="1"/>
        <pt x="718" y="1760" on="1"/>
        <pt x="718" y="426" on="1"/>
        <pt x="718" y="-21" on="0"/>
        <pt x="404" y="-21" on="1"/>
        <pt x="238" y="-21" on="0"/>
        <pt x="82" y="182" on="0"/>
        <pt x="82" y="389" on="1"/>
        <pt x="82" y="619" on="1"/>
        <pt x="284" y="619" on="1"/>
        <pt x="284" y="402" on="1"/>
        <pt x="284" y="268" on="0"/>
        <pt x="308" y="208" on="0"/>
        <pt x="320" y="190" on="1"/>
        <pt x="344" y="155" on="0"/>
        <pt x="455" y="155" on="0"/>
        <pt x="502" y="230" on="0"/>
        <pt x="511" y="339" on="0"/>
        <pt x="511" y="418" on="1"/>
      </contour>
    </TTGlyph>
    <TTGlyph name="Jcircumflex" xMin="82" yMin="-21" xMax="880" yMax="2146">
      <component glyphName="circumflex" x="126" y="260" flags="0x1004"/>
      <component glyphName="J" x="0" y="0" flags="0x1004"/>
    </TTGlyph>
    <TTGlyph name="K" xMin="144" yMin="0" xMax="895" yMax="1760">
      <contour>
        <pt x="664" y="1760" on="1"/>
        <pt x="872" y="1760" on="1"/>
        <pt x="544" y="891" on="1"/>
        <pt x="895" y="0" on="1"/>
        <pt x="679" y="0" on="1"/>
        <pt x="353" y="842" on="1"/>
        <pt x="353" y="0" on="1"/>
        <pt x="144" y="0" on="1"/>
        <pt x="144" y="1760" on="1"/>
        <pt x="351" y="1760" on="1"/>
        <pt x="351" y="921" on="1"/>
      </contour>
    </TTGlyph>
    <TTGlyph name="Kcommaaccent" xMin="144" yMin="-670" xMax="895" yMax="1760">
      <component glyphName="uni0326" x="172" y="-283" flags="0x1004"/>
      <component glyphName="K" x="0" y="0" flags="0x1004"/>
    </TTGlyph>
    <TTGlyph name="L" xMin="144" yMin="0" xMax="676" yMax="1760">
      <contour>
        <pt x="144" y="1760" on="1"/>
        <pt x="351" y="1760" on="1"/>
        <pt x="351" y="171" on="1"/>
        <pt x="676" y="171" on="1"/>
        <pt x="676" y="0" on="1"/>
        <pt x="144" y="0" on="1"/>
      </contour>
    </TTGlyph>
    <TTGlyph name="Lacute" xMin="144" yMin="0" xMax="676" yMax="2181">
      <component glyphName="L" x="0" y="0" flags="0x1004"/>
      <component glyphName="acute" x="74" y="52" flags="0x1004"/>
    </TTGlyph>
    <TTGlyph name="Lcaron" xMin="144" yMin="0" xMax="860" yMax="1760">
      <contour>
        <pt x="144" y="1760" on="1"/>
        <pt x="351" y="1760" on="1"/>
        <pt x="351" y="171" on="1"/>
        <pt x="676" y="171" on="1"/>
        <pt x="676" y="0" on="1"/>
        <pt x="144" y="0" on="1"/>
      </contour>
      <contour>
        <pt x="625" y="1753" on="1"/>
        <pt x="860" y="1753" on="1"/>
        <pt x="860" y="1535" on="1"/>
        <pt x="774" y="1238" on="1"/>
        <pt x="684" y="1238" on="1"/>
        <pt x="733" y="1526" on="1"/>
        <pt x="625" y="1526" on="1"/>
      </contour>
    </TTGlyph>
    <TTGlyph name="Lcommaaccent" xMin="144" yMin="-670" xMax="676" yMax="1760">
      <component glyphName="uni0326" x="122" y="-283" flags="0x1004"/>
      <component glyphName="L" x="0" y="0" flags="0x1004"/>
    </TTGlyph>
    <TTGlyph name="Ldot" xMin="144" yMin="0" xMax="754" yMax="1760">
      <component glyphName="periodcentered" x="406" y="121" flags="0x1004"/>
      <component glyphName="L" x="0" y="0" flags="0x1004"/>
    </TTGlyph>
    <TTGlyph name="Lslash" xMin="-1" yMin="0" xMax="676" yMax="1760">
      <contour>
        <pt x="144" y="1760" on="1"/>
        <pt x="351" y="1760" on="1"/>
        <pt x="351" y="1057" on="1"/>
        <pt x="554" y="1139" on="1"/>
        <pt x="554" y="987" on="1"/>
        <pt x="351" y="905" on="1"/>
        <pt x="351" y="171" on="1"/>
        <pt x="676" y="171" on="1"/>
        <pt x="676" y="0" on="1"/>
        <pt x="144" y="0" on="1"/>
        <pt x="144" y="822" on="1"/>
        <pt x="-1" y="764" on="1"/>
        <pt x="-1" y="916" on="1"/>
        <pt x="144" y="974" on="1"/>
      </contour>
    </TTGlyph>
    <TTGlyph name="M" xMin="144" yMin="0" xMax="1152" yMax="1760">
      <contour>
        <pt x="893" y="1760" on="1"/>
        <pt x="1152" y="1760" on="1"/>
        <pt x="1152" y="0" on="1"/>
        <pt x="968" y="0" on="1"/>
        <pt x="968" y="706" on="1"/>
        <pt x="985" y="1364" on="1"/>
        <pt x="746" y="3" on="1"/>
        <pt x="559" y="3" on="1"/>
        <pt x="310" y="1364" on="1"/>
        <pt x="327" y="706" on="1"/>
        <pt x="327" y="0" on="1"/>
        <pt x="144" y="0" on="1"/>
        <pt x="144" y="1760" on="1"/>
        <pt x="402" y="1760" on="1"/>
        <pt x="654" y="313" on="1"/>
      </contour>
    </TTGlyph>
    <TTGlyph name="N" xMin="144" yMin="0" xMax="870" yMax="1760">
      <contour>
        <pt x="687" y="1760" on="1"/>
        <pt x="870" y="1760" on="1"/>
        <pt x="870" y="0" on="1"/>
        <pt x="718" y="0" on="1"/>
        <pt x="323" y="1208" on="1"/>
        <pt x="335" y="764" on="1"/>
        <pt x="335" y="0" on="1"/>
        <pt x="144" y="0" on="1"/>
        <pt x="144" y="1760" on="1"/>
        <pt x="300" y="1760" on="1"/>
        <pt x="708" y="562" on="1"/>
        <pt x="687" y="1071" on="1"/>
      </contour>
    </TTGlyph>
    <TTGlyph name="Nacute" xMin="144" yMin="0" xMax="870" yMax="2181">
      <component glyphName="N" x="0" y="0" flags="0x1004"/>
      <component glyphName="acute" x="218" y="52" flags="0x1004"/>
    </TTGlyph>
    <TTGlyph name="Ncaron" xMin="144" yMin="0" xMax="870" yMax="2146">
      <component glyphName="N" x="0" y="0" flags="0x1004"/>
      <component glyphName="caron" x="22" y="260" flags="0x1004"/>
    </TTGlyph>
    <TTGlyph name="Ncommaaccent" xMin="144" yMin="-670" xMax="870" yMax="1760">
      <component glyphName="uni0326" x="226" y="-283" flags="0x1004"/>
      <component glyphName="N" x="0" y="0" flags="0x1004"/>
    </TTGlyph>
    <TTGlyph name="Ntilde" xMin="144" yMin="0" xMax="870" yMax="2110">
      <component glyphName="tilde" x="-51" y="1460" flags="0x1004"/>
      <component glyphName="N" x="0" y="0" flags="0x1004"/>
    </TTGlyph>
    <TTGlyph name="O" xMin="124" yMin="-20" xMax="820" yMax="1782">
      <contour>
        <pt x="124" y="1282" on="1"/>
        <pt x="124" y="1582" on="0"/>
        <pt x="232" y="1694" on="1"/>
        <pt x="317" y="1782" on="0"/>
        <pt x="479" y="1782" on="1"/>
        <pt x="715" y="1782" on="0"/>
        <pt x="781" y="1588" on="1"/>
        <pt x="820" y="1473" on="0"/>
        <pt x="820" y="1282" on="1"/>
        <pt x="820" y="506" on="1"/>
        <pt x="820" y="231" on="0"/>
        <pt x="666" y="-20" on="0"/>
        <pt x="281" y="-20" on="0"/>
        <pt x="124" y="232" on="0"/>
        <pt x="124" y="506" on="1"/>
      </contour>
      <contour>
        <pt x="613" y="1294" on="1"/>
        <pt x="613" y="1463" on="0"/>
        <pt x="559" y="1604" on="0"/>
        <pt x="395" y="1604" on="0"/>
        <pt x="331" y="1460" on="0"/>
        <pt x="331" y="1295" on="1"/>
        <pt x="331" y="504" on="1"/>
        <pt x="331" y="303" on="0"/>
        <pt x="387" y="158" on="0"/>
        <pt x="557" y="158" on="0"/>
        <pt x="613" y="305" on="0"/>
        <pt x="613" y="504" on="1"/>
      </contour>
    </TTGlyph>
    <TTGlyph name="OE" xMin="124" yMin="0" xMax="1117" yMax="1760">
      <contour>
        <pt x="478" y="1760" on="1"/>
        <pt x="1112" y="1760" on="1"/>
        <pt x="1112" y="1588" on="1"/>
        <pt x="815" y="1588" on="1"/>
        <pt x="815" y="986" on="1"/>
        <pt x="1095" y="986" on="1"/>
        <pt x="1095" y="812" on="1"/>
        <pt x="815" y="812" on="1"/>
        <pt x="815" y="172" on="1"/>
        <pt x="1117" y="172" on="1"/>
        <pt x="1117" y="0" on="1"/>
        <pt x="473" y="0" on="1"/>
        <pt x="279" y="0" on="0"/>
        <pt x="124" y="236" on="0"/>
        <pt x="124" y="507" on="1"/>
        <pt x="124" y="1282" on="1"/>
        <pt x="124" y="1516" on="0"/>
        <pt x="271" y="1760" on="0"/>
      </contour>
      <contour>
        <pt x="609" y="178" on="1"/>
        <pt x="609" y="1581" on="1"/>
        <pt x="478" y="1581" on="1"/>
        <pt x="393" y="1581" on="0"/>
        <pt x="331" y="1455" on="0"/>
        <pt x="331" y="1293" on="1"/>
        <pt x="331" y="505" on="1"/>
        <pt x="331" y="307" on="0"/>
        <pt x="384" y="179" on="0"/>
        <pt x="473" y="178" on="1"/>
      </contour>
    </TTGlyph>
    <TTGlyph name="Oacute" xMin="124" yMin="-20" xMax="820" yMax="2183">
      <component glyphName="O" x="0" y="0" flags="0x1004"/>
      <component glyphName="acute" x="182" y="54" flags="0x1004"/>
    </TTGlyph>
    <TTGlyph name="Obreve" xMin="124" yMin="-20" xMax="820" yMax="2118">
      <component glyphName="breve" x="-36" y="262" flags="0x1004"/>
      <component glyphName="O" x="0" y="0" flags="0x1004"/>
    </TTGlyph>
    <TTGlyph name="Ocircumflex" xMin="124" yMin="-20" xMax="820" yMax="2148">
      <component glyphName="O" x="0" y="0" flags="0x1004"/>
      <component glyphName="circumflex" x="-13" y="262" flags="0x1004"/>
    </TTGlyph>
    <TTGlyph name="Odieresis" xMin="115" yMin="-20" xMax="829" yMax="2058">
      <component glyphName="O" x="0" y="0" flags="0x1004"/>
      <component glyphName="dieresis" x="-16" y="1462" flags="0x1004"/>
    </TTGlyph>
    <TTGlyph name="Ograve" xMin="124" yMin="-20" xMax="820" yMax="2165">
      <component glyphName="grave" x="169" y="1462" flags="0x1004"/>
      <component glyphName="O" x="0" y="0" flags="0x1004"/>
    </TTGlyph>
    <TTGlyph name="Ohungarumlaut" xMin="124" yMin="-20" xMax="872" yMax="2382">
      <component glyphName="O" x="0" y="0" flags="0x1004"/>
      <component glyphName="hungarumlaut" x="-189" y="1462" flags="0x1004"/>
    </TTGlyph>
    <TTGlyph name="Omacron" xMin="124" yMin="-20" xMax="820" yMax="2006">
      <component glyphName="O" x="0" y="0" flags="0x1004"/>
      <component glyphName="macron" x="124" y="1462" flags="0x1004"/>
    </TTGlyph>
    <TTGlyph name="Oslash" xMin="75" yMin="-206" xMax="910" yMax="1906">
      <contour>
        <pt x="612" y="1362" on="1"/>
        <pt x="607" y="1478" on="0"/>
        <pt x="586" y="1534" on="1"/>
        <pt x="559" y="1604" on="0"/>
        <pt x="395" y="1604" on="0"/>
        <pt x="331" y="1460" on="0"/>
        <pt x="331" y="1295" on="1"/>
        <pt x="331" y="563" on="1"/>
      </contour>
      <contour>
        <pt x="346" y="279" on="1"/>
        <pt x="352" y="250" on="0"/>
        <pt x="359" y="230" on="1"/>
        <pt x="387" y="158" on="0"/>
        <pt x="557" y="158" on="0"/>
        <pt x="613" y="305" on="0"/>
        <pt x="613" y="504" on="1"/>
        <pt x="613" y="1032" on="1"/>
      </contour>
      <contour>
        <pt x="794" y="1544" on="1"/>
        <pt x="820" y="1445" on="0"/>
        <pt x="820" y="1282" on="1"/>
        <pt x="820" y="506" on="1"/>
        <pt x="820" y="231" on="0"/>
        <pt x="666" y="-20" on="0"/>
        <pt x="474" y="-20" on="1"/>
        <pt x="340" y="-20" on="0"/>
        <pt x="261" y="41" on="1"/>
        <pt x="174" y="-206" on="1"/>
        <pt x="75" y="-166" on="1"/>
        <pt x="183" y="142" on="1"/>
        <pt x="124" y="268" on="0"/>
        <pt x="124" y="506" on="1"/>
        <pt x="124" y="1282" on="1"/>
        <pt x="124" y="1582" on="0"/>
        <pt x="232" y="1694" on="1"/>
        <pt x="317" y="1782" on="0"/>
        <pt x="645" y="1782" on="0"/>
        <pt x="726" y="1688" on="1"/>
        <pt x="803" y="1906" on="1"/>
        <pt x="910" y="1870" on="1"/>
      </contour>
    </TTGlyph>
    <TTGlyph name="Otilde" xMin="124" yMin="-20" xMax="820" yMax="2112">
      <component glyphName="tilde" x="-86" y="1462" flags="0x1004"/>
      <component glyphName="O" x="0" y="0" flags="0x1004"/>
    </TTGlyph>
    <TTGlyph name="P" xMin="144" yMin="0" xMax="830" yMax="1760">
      <contour>
        <pt x="144" y="1760" on="1"/>
        <pt x="498" y="1760" on="1"/>
        <pt x="732" y="1760" on="0"/>
        <pt x="792" y="1566" on="1"/>
        <pt x="830" y="1444" on="0"/>
        <pt x="830" y="1118" on="0"/>
        <pt x="821" y="1036" on="1"/>
        <pt x="801" y="856" on="0"/>
        <pt x="651" y="691" on="0"/>
        <pt x="498" y="691" on="1"/>
        <pt x="351" y="691" on="1"/>
        <pt x="351" y="0" on="1"/>
        <pt x="144" y="0" on="1"/>
      </contour>
      <contour>
        <pt x="623" y="1263" on="1"/>
        <pt x="623" y="1444" on="0"/>
        <pt x="566" y="1596" on="0"/>
        <pt x="482" y="1596" on="1"/>
        <pt x="351" y="1596" on="1"/>
        <pt x="351" y="863" on="1"/>
        <pt x="477" y="863" on="1"/>
        <pt x="565" y="863" on="0"/>
        <pt x="623" y="1017" on="0"/>
        <pt x="623" y="1229" on="1"/>
      </contour>
    </TTGlyph>
    <TTGlyph name="Q" xMin="124" yMin="-269" xMax="820" yMax="1782">
      <contour>
        <pt x="613" y="1294" on="1"/>
        <pt x="613" y="1463" on="0"/>
        <pt x="559" y="1604" on="0"/>
        <pt x="395" y="1604" on="0"/>
        <pt x="331" y="1460" on="0"/>
        <pt x="331" y="1295" on="1"/>
        <pt x="331" y="504" on="1"/>
        <pt x="331" y="303" on="0"/>
        <pt x="387" y="158" on="0"/>
        <pt x="557" y="158" on="0"/>
        <pt x="613" y="305" on="0"/>
        <pt x="613" y="504" on="1"/>
      </contour>
      <contour>
        <pt x="124" y="1282" on="1"/>
        <pt x="124" y="1582" on="0"/>
        <pt x="232" y="1694" on="1"/>
        <pt x="317" y="1782" on="0"/>
        <pt x="479" y="1782" on="1"/>
        <pt x="715" y="1782" on="0"/>
        <pt x="781" y="1588" on="1"/>
        <pt x="820" y="1473" on="0"/>
        <pt x="820" y="1282" on="1"/>
        <pt x="820" y="506" on="1"/>
        <pt x="820" y="232" on="0"/>
        <pt x="743" y="106" on="1"/>
        <pt x="698" y="33" on="0"/>
        <pt x="615" y="2" on="1"/>
        <pt x="769" y="-176" on="1"/>
        <pt x="667" y="-269" on="1"/>
        <pt x="437" y="-19" on="1"/>
        <pt x="273" y="-8" on="0"/>
        <pt x="124" y="232" on="0"/>
        <pt x="124" y="506" on="1"/>
      </contour>
    </TTGlyph>
    <TTGlyph name="R" xMin="144" yMin="0" xMax="845" yMax="1760">
      <contour>
        <pt x="144" y="1760" on="1"/>
        <pt x="513" y="1760" on="1"/>
        <pt x="670" y="1760" on="0"/>
        <pt x="808" y="1630" on="0"/>
        <pt x="822" y="1474" on="1"/>
        <pt x="828" y="1410" on="0"/>
        <pt x="828" y="1139" on="0"/>
        <pt x="757" y="955" on="0"/>
        <pt x="667" y="928" on="1"/>
        <pt x="733" y="917" on="0"/>
        <pt x="801" y="800" on="0"/>
        <pt x="829" y="545" on="0"/>
        <pt x="829" y="42" on="0"/>
        <pt x="845" y="0" on="1"/>
        <pt x="639" y="0" on="1"/>
        <pt x="623" y="32" on="0"/>
        <pt x="623" y="593" on="1"/>
        <pt x="623" y="782" on="0"/>
        <pt x="549" y="843" on="0"/>
        <pt x="474" y="843" on="1"/>
        <pt x="351" y="850" on="1"/>
        <pt x="351" y="0" on="1"/>
        <pt x="144" y="0" on="1"/>
      </contour>
      <contour>
        <pt x="623" y="1329" on="1"/>
        <pt x="623" y="1532" on="0"/>
        <pt x="550" y="1596" on="0"/>
        <pt x="481" y="1596" on="1"/>
        <pt x="351" y="1596" on="1"/>
        <pt x="351" y="1002" on="1"/>
        <pt x="483" y="1002" on="1"/>
        <pt x="543" y="1002" on="0"/>
        <pt x="599" y="1048" on="0"/>
        <pt x="623" y="1178" on="0"/>
        <pt x="623" y="1317" on="1"/>
      </contour>
    </TTGlyph>
    <TTGlyph name="Racute" xMin="144" yMin="0" xMax="845" yMax="2181">
      <component glyphName="R" x="0" y="0" flags="0x1004"/>
      <component glyphName="acute" x="193" y="52" flags="0x1004"/>
    </TTGlyph>
    <TTGlyph name="Rcaron" xMin="144" yMin="0" xMax="845" yMax="2146">
      <component glyphName="R" x="0" y="0" flags="0x1004"/>
      <component glyphName="caron" x="-3" y="260" flags="0x1004"/>
    </TTGlyph>
    <TTGlyph name="Rcommaaccent" xMin="144" yMin="-670" xMax="845" yMax="1760">
      <component glyphName="uni0326" x="201" y="-283" flags="0x1004"/>
      <component glyphName="R" x="0" y="0" flags="0x1004"/>
    </TTGlyph>
    <TTGlyph name="S" xMin="106" yMin="-20" xMax="794" yMax="1782">
      <contour>
        <pt x="124" y="1215" on="1"/>
        <pt x="106" y="1278" on="0"/>
        <pt x="106" y="1366" on="1"/>
        <pt x="106" y="1557" on="0"/>
        <pt x="247" y="1782" on="0"/>
        <pt x="446" y="1782" on="1"/>
        <pt x="702" y="1782" on="0"/>
        <pt x="748" y="1536" on="1"/>
        <pt x="768" y="1430" on="0"/>
        <pt x="768" y="1269" on="1"/>
        <pt x="768" y="1165" on="1"/>
        <pt x="570" y="1165" on="1"/>
        <pt x="570" y="1283" on="1"/>
        <pt x="570" y="1451" on="0"/>
        <pt x="536" y="1567" on="0"/>
        <pt x="486" y="1605" on="0"/>
        <pt x="446" y="1605" on="1"/>
        <pt x="371" y="1605" on="0"/>
        <pt x="305" y="1495" on="0"/>
        <pt x="305" y="1279" on="0"/>
        <pt x="365" y="1179" on="0"/>
        <pt x="453" y="1088" on="0"/>
        <pt x="458" y="1082" on="1"/>
        <pt x="578" y="955" on="1"/>
        <pt x="794" y="729" on="0"/>
        <pt x="794" y="449" on="1"/>
        <pt x="794" y="221" on="0"/>
        <pt x="653" y="-20" on="0"/>
        <pt x="455" y="-20" on="1"/>
        <pt x="216" y="-20" on="0"/>
        <pt x="152" y="190" on="1"/>
        <pt x="115" y="308" on="0"/>
        <pt x="115" y="499" on="1"/>
        <pt x="115" y="504" on="0"/>
        <pt x="115" y="509" on="1"/>
        <pt x="115" y="680" on="1"/>
        <pt x="316" y="680" on="1"/>
        <pt x="316" y="501" on="1"/>
        <pt x="316" y="308" on="0"/>
        <pt x="372" y="157" on="0"/>
        <pt x="524" y="157" on="0"/>
        <pt x="582" y="228" on="0"/>
        <pt x="591" y="374" on="0"/>
        <pt x="591" y="465" on="1"/>
        <pt x="591" y="648" on="0"/>
        <pt x="430" y="809" on="1"/>
        <pt x="315" y="924" on="1"/>
        <pt x="161" y="1082" on="0"/>
      </contour>
    </TTGlyph>
    <TTGlyph name="Sacute" xMin="106" yMin="-20" xMax="794" yMax="2180">
      <component glyphName="S" x="0" y="0" flags="0x1004"/>
      <component glyphName="acute" x="162" y="51" flags="0x1004"/>
    </TTGlyph>
    <TTGlyph name="Scaron" xMin="106" yMin="-20" xMax="794" yMax="2145">
      <component glyphName="S" x="0" y="0" flags="0x1004"/>
      <component glyphName="caron" x="-33" y="259" flags="0x1004"/>
    </TTGlyph>
    <TTGlyph name="Scedilla" xMin="106" yMin="-617" xMax="794" yMax="1782">
      <component glyphName="cedilla" x="-76" y="0" flags="0x1004"/>
      <component glyphName="S" x="0" y="0" flags="0x1004"/>
    </TTGlyph>
    <TTGlyph name="Scircumflex" xMin="106" yMin="-20" xMax="794" yMax="2145">
      <component glyphName="S" x="0" y="0" flags="0x1004"/>
      <component glyphName="circumflex" x="-33" y="259" flags="0x1004"/>
    </TTGlyph>
    <TTGlyph name="Scommaaccent" xMin="106" yMin="-670" xMax="794" yMax="1782">
      <component glyphName="uni0326" x="158" y="-283" flags="0x1004"/>
      <component glyphName="S" x="0" y="0" flags="0x1004"/>
    </TTGlyph>
    <TTGlyph name="T" xMin="28" yMin="0" xMax="609" yMax="1760">
      <contour>
        <pt x="28" y="1760" on="1"/>
        <pt x="609" y="1760" on="1"/>
        <pt x="609" y="1588" on="1"/>
        <pt x="428" y="1588" on="1"/>
        <pt x="428" y="0" on="1"/>
        <pt x="222" y="0" on="1"/>
        <pt x="222" y="1588" on="1"/>
        <pt x="28" y="1588" on="1"/>
      </contour>
    </TTGlyph>
    <TTGlyph name="Tcaron" xMin="28" yMin="0" xMax="609" yMax="2146">
      <component glyphName="T" x="0" y="0" flags="0x1004"/>
      <component glyphName="caron" x="-168" y="260" flags="0x1004"/>
    </TTGlyph>
    <TTGlyph name="Thorn" xMin="162" yMin="0" xMax="847" yMax="1760">
      <contour>
        <pt x="162" y="1760" on="1"/>
        <pt x="368" y="1760" on="1"/>
        <pt x="368" y="1499" on="1"/>
        <pt x="515" y="1499" on="1"/>
        <pt x="676" y="1499" on="0"/>
        <pt x="754" y="1410" on="1"/>
        <pt x="847" y="1304" on="0"/>
        <pt x="847" y="987" on="1"/>
        <pt x="847" y="963" on="1"/>
        <pt x="846" y="623" on="0"/>
        <pt x="746" y="510" on="1"/>
        <pt x="667" y="422" on="0"/>
        <pt x="515" y="422" on="1"/>
        <pt x="368" y="422" on="1"/>
        <pt x="368" y="0" on="1"/>
        <pt x="162" y="0" on="1"/>
      </contour>
      <contour>
        <pt x="641" y="994" on="1"/>
        <pt x="641" y="1178" on="0"/>
        <pt x="584" y="1335" on="0"/>
        <pt x="499" y="1335" on="1"/>
        <pt x="368" y="1335" on="1"/>
        <pt x="368" y="594" on="1"/>
        <pt x="495" y="594" on="1"/>
        <pt x="583" y="594" on="0"/>
        <pt x="641" y="751" on="0"/>
        <pt x="641" y="964" on="1"/>
      </contour>
    </TTGlyph>
    <TTGlyph name="U" xMin="134" yMin="-21" xMax="829" yMax="1760">
      <contour>
        <pt x="623" y="1760" on="1"/>
        <pt x="829" y="1760" on="1"/>
        <pt x="829" y="452" on="1"/>
        <pt x="829" y="205" on="0"/>
        <pt x="674" y="-21" on="0"/>
        <pt x="292" y="-21" on="0"/>
        <pt x="134" y="205" on="0"/>
        <pt x="134" y="452" on="1"/>
        <pt x="134" y="1760" on="1"/>
        <pt x="341" y="1760" on="1"/>
        <pt x="341" y="457" on="1"/>
        <pt x="341" y="281" on="0"/>
        <pt x="370" y="212" on="0"/>
        <pt x="386" y="192" on="1"/>
        <pt x="414" y="154" on="0"/>
        <pt x="552" y="154" on="0"/>
        <pt x="618" y="238" on="0"/>
        <pt x="623" y="404" on="0"/>
        <pt x="623" y="456" on="1"/>
      </contour>
    </TTGlyph>
    <TTGlyph name="Uacute" xMin="134" yMin="-21" xMax="829" yMax="2180">
      <component glyphName="U" x="0" y="0" flags="0x1004"/>
      <component glyphName="acute" x="200" y="51" flags="0x1004"/>
    </TTGlyph>
    <TTGlyph name="Ubreve" xMin="134" yMin="-21" xMax="829" yMax="2115">
      <component glyphName="breve" x="-26" y="259" flags="0x1004"/>
      <component glyphName="U" x="0" y="0" flags="0x1004"/>
    </TTGlyph>
    <TTGlyph name="Ucircumflex" xMin="134" yMin="-21" xMax="829" yMax="2145">
      <component glyphName="U" x="0" y="0" flags="0x1004"/>
      <component glyphName="circumflex" x="5" y="259" flags="0x1004"/>
    </TTGlyph>
    <TTGlyph name="Udieresis" xMin="133" yMin="-21" xMax="847" yMax="2055">
      <component glyphName="U" x="0" y="0" flags="0x1004"/>
      <component glyphName="dieresis" x="2" y="1459" flags="0x1004"/>
    </TTGlyph>
    <TTGlyph name="Ugrave" xMin="134" yMin="-21" xMax="829" yMax="2162">
      <component glyphName="grave" x="179" y="1459" flags="0x1004"/>
      <component glyphName="U" x="0" y="0" flags="0x1004"/>
    </TTGlyph>
    <TTGlyph name="Uhungarumlaut" xMin="134" yMin="-21" xMax="882" yMax="2379">
      <component glyphName="hungarumlaut" x="-179" y="1459" flags="0x1004"/>
      <component glyphName="U" x="0" y="0" flags="0x1004"/>
    </TTGlyph>
    <TTGlyph name="Umacron" xMin="134" yMin="-21" xMax="829" yMax="2003">
      <component glyphName="macron" x="134" y="1459" flags="0x1004"/>
      <component glyphName="U" x="0" y="0" flags="0x1004"/>
    </TTGlyph>
    <TTGlyph name="Uogonek" xMin="134" yMin="-619" xMax="829" yMax="1760">
      <component glyphName="U" x="0" y="0" flags="0x1004"/>
      <component glyphName="ogonek" x="-164" y="7" flags="0x1004"/>
    </TTGlyph>
    <TTGlyph name="Uring" xMin="134" yMin="-21" xMax="829" yMax="2230">
      <component glyphName="U" x="0" y="0" flags="0x1004"/>
      <component glyphName="ring" x="28" y="1459" flags="0x1004"/>
    </TTGlyph>
    <TTGlyph name="Utilde" xMin="134" yMin="-21" xMax="829" yMax="2109">
      <component glyphName="tilde" x="-76" y="1459" flags="0x1004"/>
      <component glyphName="U" x="0" y="0" flags="0x1004"/>
    </TTGlyph>
    <TTGlyph name="V" xMin="60" yMin="0" xMax="861" yMax="1760">
      <contour>
        <pt x="666" y="1760" on="1"/>
        <pt x="861" y="1760" on="1"/>
        <pt x="594" y="0" on="1"/>
        <pt x="353" y="0" on="1"/>
        <pt x="60" y="1760" on="1"/>
        <pt x="257" y="1760" on="1"/>
        <pt x="374" y="1015" on="1"/>
        <pt x="474" y="360" on="1"/>
        <pt x="478" y="360" on="1"/>
        <pt x="565" y="1015" on="1"/>
      </contour>
    </TTGlyph>
    <TTGlyph name="W" xMin="64" yMin="0" xMax="1296" yMax="1760">
      <contour>
        <pt x="1106" y="1760" on="1"/>
        <pt x="1296" y="1760" on="1"/>
        <pt x="1088" y="0" on="1"/>
        <pt x="883" y="0" on="1"/>
        <pt x="695" y="1299" on="1"/>
        <pt x="496" y="0" on="1"/>
        <pt x="296" y="0" on="1"/>
        <pt x="64" y="1760" on="1"/>
        <pt x="255" y="1760" on="1"/>
        <pt x="405" y="411" on="1"/>
        <pt x="605" y="1760" on="1"/>
        <pt x="774" y="1760" on="1"/>
        <pt x="979" y="411" on="1"/>
      </contour>
    </TTGlyph>
    <TTGlyph name="Wacute" xMin="64" yMin="0" xMax="1296" yMax="2181">
      <component glyphName="W" x="0" y="0" flags="0x1004"/>
      <component glyphName="acute" x="409" y="52" flags="0x1004"/>
    </TTGlyph>
    <TTGlyph name="Wcircumflex" xMin="64" yMin="0" xMax="1296" yMax="2146">
      <component glyphName="W" x="0" y="0" flags="0x1004"/>
      <component glyphName="circumflex" x="213" y="260" flags="0x1004"/>
    </TTGlyph>
    <TTGlyph name="Wdieresis" xMin="64" yMin="0" xMax="1296" yMax="2056">
      <component glyphName="W" x="0" y="0" flags="0x1004"/>
      <component glyphName="dieresis" x="210" y="1460" flags="0x1004"/>
    </TTGlyph>
    <TTGlyph name="Wgrave" xMin="64" yMin="0" xMax="1296" yMax="2163">
      <component glyphName="grave" x="384" y="1460" flags="0x1004"/>
      <component glyphName="W" x="0" y="0" flags="0x1004"/>
    </TTGlyph>
    <TTGlyph name="X" xMin="55" yMin="0" xMax="761" yMax="1760">
      <contour>
        <pt x="567" y="1760" on="1"/>
        <pt x="753" y="1760" on="1"/>
        <pt x="509" y="857" on="1"/>
        <pt x="761" y="0" on="1"/>
        <pt x="581" y="0" on="1"/>
        <pt x="402" y="608" on="1"/>
        <pt x="244" y="0" on="1"/>
        <pt x="55" y="0" on="1"/>
        <pt x="307" y="932" on="1"/>
        <pt x="63" y="1760" on="1"/>
        <pt x="244" y="1760" on="1"/>
        <pt x="416" y="1174" on="1"/>
      </contour>
    </TTGlyph>
    <TTGlyph name="Y" xMin="20" yMin="0" xMax="817" yMax="1760">
      <contour>
        <pt x="614" y="1760" on="1"/>
        <pt x="817" y="1760" on="1"/>
        <pt x="533" y="739" on="1"/>
        <pt x="533" y="0" on="1"/>
        <pt x="326" y="0" on="1"/>
        <pt x="326" y="739" on="1"/>
        <pt x="20" y="1760" on="1"/>
        <pt x="221" y="1760" on="1"/>
        <pt x="429" y="1040" on="1"/>
        <pt x="433" y="1040" on="1"/>
      </contour>
    </TTGlyph>
    <TTGlyph name="Yacute" xMin="20" yMin="0" xMax="817" yMax="2181">
      <component glyphName="acute" x="134" y="52" flags="0x1004"/>
      <component glyphName="Y" x="0" y="0" flags="0x1004"/>
    </TTGlyph>
    <TTGlyph name="Ycircumflex" xMin="20" yMin="0" xMax="817" yMax="2146">
      <component glyphName="circumflex" x="-61" y="260" flags="0x1004"/>
      <component glyphName="Y" x="0" y="0" flags="0x1004"/>
    </TTGlyph>
    <TTGlyph name="Ydieresis" xMin="20" yMin="0" xMax="817" yMax="2056">
      <component glyphName="dieresis" x="-64" y="1460" flags="0x1004"/>
      <component glyphName="Y" x="0" y="0" flags="0x1004"/>
    </TTGlyph>
    <TTGlyph name="Ygrave" xMin="20" yMin="0" xMax="817" yMax="2163">
      <component glyphName="grave" x="121" y="1460" flags="0x1004"/>
      <component glyphName="Y" x="0" y="0" flags="0x1004"/>
    </TTGlyph>
    <TTGlyph name="Z" xMin="115" yMin="0" xMax="692" yMax="1760">
      <contour>
        <pt x="148" y="1760" on="1"/>
        <pt x="692" y="1760" on="1"/>
        <pt x="692" y="1602" on="1"/>
        <pt x="329" y="172" on="1"/>
        <pt x="684" y="172" on="1"/>
        <pt x="684" y="0" on="1"/>
        <pt x="115" y="0" on="1"/>
        <pt x="115" y="179" on="1"/>
        <pt x="478" y="1588" on="1"/>
        <pt x="148" y="1588" on="1"/>
      </contour>
    </TTGlyph>
    <TTGlyph name="Zacute" xMin="115" yMin="0" xMax="692" yMax="2181">
      <component glyphName="Z" x="0" y="0" flags="0x1004"/>
      <component glyphName="acute" x="141" y="52" flags="0x1004"/>
    </TTGlyph>
    <TTGlyph name="Zcaron" xMin="115" yMin="0" xMax="699" yMax="2146">
      <component glyphName="Z" x="0" y="0" flags="0x1004"/>
      <component glyphName="caron" x="-55" y="260" flags="0x1004"/>
    </TTGlyph>
    <TTGlyph name="Zdotaccent" xMin="115" yMin="0" xMax="692" yMax="2043">
      <component glyphName="dotaccent" x="144" y="1460" flags="0x1004"/>
      <component glyphName="Z" x="0" y="0" flags="0x1004"/>
    </TTGlyph>
    <TTGlyph name="a" xMin="126" yMin="-13" xMax="793" yMax="1518">
      <contour>
        <pt x="586" y="827" on="1"/>
        <pt x="460" y="770" on="0"/>
        <pt x="376" y="708" on="0"/>
        <pt x="333" y="625" on="0"/>
        <pt x="333" y="530" on="1"/>
        <pt x="333" y="391" on="1"/>
        <pt x="333" y="260" on="0"/>
        <pt x="379" y="153" on="0"/>
        <pt x="491" y="153" on="0"/>
        <pt x="571" y="218" on="0"/>
        <pt x="586" y="256" on="1"/>
      </contour>
      <contour>
        <pt x="145" y="1066" on="1"/>
        <pt x="145" y="1338" on="0"/>
        <pt x="315" y="1518" on="0"/>
        <pt x="629" y="1518" on="0"/>
        <pt x="770" y="1366" on="0"/>
        <pt x="786" y="1198" on="1"/>
        <pt x="793" y="1126" on="0"/>
        <pt x="793" y="1021" on="1"/>
        <pt x="793" y="0" on="1"/>
        <pt x="587" y="0" on="1"/>
        <pt x="587" y="130" on="1"/>
        <pt x="571" y="76" on="0"/>
        <pt x="463" y="-13" on="0"/>
        <pt x="383" y="-13" on="1"/>
        <pt x="128" y="-13" on="0"/>
        <pt x="126" y="385" on="1"/>
        <pt x="126" y="531" on="1"/>
        <pt x="126" y="660" on="0"/>
        <pt x="267" y="843" on="0"/>
        <pt x="586" y="960" on="1"/>
        <pt x="586" y="1076" on="1"/>
        <pt x="586" y="1269" on="0"/>
        <pt x="530" y="1347" on="0"/>
        <pt x="395" y="1347" on="0"/>
        <pt x="349" y="1229" on="0"/>
        <pt x="349" y="1075" on="1"/>
        <pt x="349" y="1023" on="1"/>
        <pt x="145" y="1023" on="1"/>
      </contour>
    </TTGlyph>
    <TTGlyph name="aacute" xMin="126" yMin="-13" xMax="793" yMax="1921">
      <component glyphName="acute" x="192" y="-208" flags="0x1004"/>
      <component glyphName="a" x="0" y="0" flags="0x1004"/>
    </TTGlyph>
    <TTGlyph name="abreve" xMin="126" yMin="-13" xMax="793" yMax="1856">
      <component glyphName="breve" x="-26" y="0" flags="0x1004"/>
      <component glyphName="a" x="0" y="0" flags="0x1004"/>
    </TTGlyph>
    <TTGlyph name="acircumflex" xMin="126" yMin="-13" xMax="793" yMax="1886">
      <component glyphName="circumflex" x="-3" y="0" flags="0x1004"/>
      <component glyphName="a" x="0" y="0" flags="0x1004"/>
    </TTGlyph>
    <TTGlyph name="acute" xMin="100" yMin="1844" xMax="519" yMax="2129">
      <contour>
        <pt x="100" y="1955" on="1"/>
        <pt x="519" y="2129" on="1"/>
        <pt x="519" y="1930" on="1"/>
        <pt x="100" y="1844" on="1"/>
      </contour>
    </TTGlyph>
    <TTGlyph name="adieresis" xMin="125" yMin="-13" xMax="839" yMax="1796">
      <component glyphName="dieresis" x="-6" y="1200" flags="0x1004"/>
      <component glyphName="a" x="0" y="0" flags="0x1004"/>
    </TTGlyph>
    <TTGlyph name="ae" xMin="126" yMin="-18" xMax="1241" yMax="1518">
      <contour>
        <pt x="691" y="1418" on="1"/>
        <pt x="765" y="1518" on="0"/>
        <pt x="925" y="1518" on="1"/>
        <pt x="1150" y="1518" on="0"/>
        <pt x="1208" y="1323" on="1"/>
        <pt x="1240" y="1214" on="0"/>
        <pt x="1240" y="982" on="1"/>
        <pt x="1240" y="905" on="0"/>
        <pt x="1241" y="852" on="1"/>
        <pt x="1241" y="747" on="0"/>
        <pt x="1240" y="740" on="1"/>
        <pt x="792" y="740" on="1"/>
        <pt x="792" y="457" on="1"/>
        <pt x="792" y="289" on="0"/>
        <pt x="840" y="153" on="0"/>
        <pt x="977" y="153" on="0"/>
        <pt x="1025" y="237" on="0"/>
        <pt x="1036" y="359" on="0"/>
        <pt x="1036" y="451" on="1"/>
        <pt x="1036" y="562" on="1"/>
        <pt x="1238" y="562" on="1"/>
        <pt x="1238" y="502" on="1"/>
        <pt x="1238" y="218" on="0"/>
        <pt x="1138" y="26" on="0"/>
        <pt x="1048" y="-2" on="1"/>
        <pt x="996" y="-18" on="0"/>
        <pt x="925" y="-18" on="1"/>
        <pt x="739" y="-18" on="0"/>
        <pt x="670" y="115" on="1"/>
        <pt x="632" y="66" on="0"/>
        <pt x="480" y="-13" on="0"/>
        <pt x="404" y="-13" on="1"/>
        <pt x="266" y="-13" on="0"/>
        <pt x="126" y="196" on="0"/>
        <pt x="126" y="390" on="1"/>
        <pt x="126" y="537" on="1"/>
        <pt x="127" y="625" on="0"/>
        <pt x="177" y="748" on="0"/>
        <pt x="314" y="845" on="0"/>
        <pt x="445" y="907" on="0"/>
        <pt x="586" y="962" on="1"/>
        <pt x="586" y="1063" on="1"/>
        <pt x="586" y="1232" on="0"/>
        <pt x="574" y="1264" on="1"/>
        <pt x="560" y="1296" on="0"/>
        <pt x="548" y="1314" on="1"/>
        <pt x="526" y="1346" on="0"/>
        <pt x="460" y="1346" on="1"/>
        <pt x="459" y="1346" on="0"/>
        <pt x="459" y="1347" on="1"/>
        <pt x="394" y="1347" on="0"/>
        <pt x="372" y="1289" on="1"/>
        <pt x="349" y="1231" on="0"/>
        <pt x="349" y="1077" on="1"/>
        <pt x="349" y="1023" on="1"/>
        <pt x="145" y="1023" on="1"/>
        <pt x="145" y="1066" on="1"/>
        <pt x="145" y="1338" on="0"/>
        <pt x="315" y="1518" on="0"/>
        <pt x="635" y="1518" on="0"/>
      </contour>
      <contour>
        <pt x="585" y="257" on="1"/>
        <pt x="585" y="822" on="1"/>
        <pt x="419" y="747" on="0"/>
        <pt x="343" y="659" on="0"/>
        <pt x="333" y="571" on="0"/>
        <pt x="333" y="527" on="1"/>
        <pt x="333" y="391" on="1"/>
        <pt x="333" y="260" on="0"/>
        <pt x="379" y="153" on="0"/>
        <pt x="491" y="153" on="0"/>
        <pt x="571" y="219" on="0"/>
      </contour>
      <contour>
        <pt x="1036" y="1073" on="1"/>
        <pt x="1036" y="1235" on="0"/>
        <pt x="1012" y="1299" on="0"/>
        <pt x="978" y="1349" on="0"/>
        <pt x="933" y="1349" on="1"/>
        <pt x="826" y="1349" on="0"/>
        <pt x="805" y="1239" on="1"/>
        <pt x="792" y="1170" on="0"/>
        <pt x="792" y="1060" on="1"/>
        <pt x="792" y="889" on="1"/>
        <pt x="1036" y="889" on="1"/>
      </contour>
    </TTGlyph>
    <TTGlyph name="agrave" xMin="126" yMin="-13" xMax="793" yMax="1903">
      <component glyphName="grave" x="179" y="1200" flags="0x1004"/>
      <component glyphName="a" x="0" y="0" flags="0x1004"/>
    </TTGlyph>
    <TTGlyph name="amacron" xMin="126" yMin="-13" xMax="793" yMax="1744">
      <component glyphName="macron" x="134" y="1200" flags="0x1004"/>
      <component glyphName="a" x="0" y="0" flags="0x1004"/>
    </TTGlyph>
    <TTGlyph name="ampersand" xMin="66" yMin="-20" xMax="982" yMax="1782">
      <contour>
        <pt x="610" y="357" on="1"/>
        <pt x="493" y="604" on="0"/>
        <pt x="423" y="763" on="1"/>
        <pt x="254" y="538" on="0"/>
        <pt x="254" y="155" on="0"/>
        <pt x="409" y="155" on="1"/>
        <pt x="469" y="155" on="0"/>
        <pt x="558" y="254" on="0"/>
      </contour>
      <contour>
        <pt x="480" y="1098" on="1"/>
        <pt x="627" y="1284" on="0"/>
        <pt x="627" y="1445" on="1"/>
        <pt x="627" y="1547" on="0"/>
        <pt x="580" y="1633" on="0"/>
        <pt x="447" y="1633" on="0"/>
        <pt x="393" y="1561" on="0"/>
        <pt x="385" y="1487" on="0"/>
        <pt x="385" y="1441" on="1"/>
        <pt x="385" y="1350" on="0"/>
      </contour>
      <contour>
        <pt x="982" y="690" on="1"/>
        <pt x="898" y="589" on="0"/>
        <pt x="794" y="365" on="1"/>
        <pt x="953" y="15" on="0"/>
        <pt x="959" y="0" on="1"/>
        <pt x="775" y="0" on="1"/>
        <pt x="759" y="39" on="0"/>
        <pt x="697" y="173" on="1"/>
        <pt x="639" y="80" on="0"/>
        <pt x="491" y="-20" on="0"/>
        <pt x="235" y="-20" on="0"/>
        <pt x="66" y="177" on="0"/>
        <pt x="66" y="537" on="0"/>
        <pt x="224" y="799" on="0"/>
        <pt x="346" y="940" on="1"/>
        <pt x="191" y="1309" on="0"/>
        <pt x="191" y="1437" on="1"/>
        <pt x="191" y="1606" on="0"/>
        <pt x="350" y="1782" on="0"/>
        <pt x="654" y="1782" on="0"/>
        <pt x="788" y="1608" on="0"/>
        <pt x="788" y="1294" on="0"/>
        <pt x="653" y="1057" on="0"/>
        <pt x="549" y="924" on="1"/>
        <pt x="606" y="784" on="0"/>
        <pt x="709" y="554" on="1"/>
        <pt x="796" y="717" on="0"/>
        <pt x="894" y="834" on="1"/>
      </contour>
    </TTGlyph>
    <TTGlyph name="aogonek" xMin="126" yMin="-619" xMax="815" yMax="1518">
      <component glyphName="ogonek" x="3" y="7" flags="0x1004"/>
      <component glyphName="a" x="0" y="0" flags="0x1004"/>
    </TTGlyph>
    <TTGlyph name="approxequal" xMin="119" yMin="401" xMax="1001" yMax="1177">
      <contour>
        <pt x="349" y="1150" on="1"/>
        <pt x="406" y="1150" on="0"/>
        <pt x="558" y="1106" on="1"/>
        <pt x="707" y="1063" on="0"/>
        <pt x="725" y="1063" on="1"/>
        <pt x="726" y="1063" on="0"/>
        <pt x="726" y="1063" on="1"/>
        <pt x="803" y="1063" on="0"/>
        <pt x="837" y="1177" on="1"/>
        <pt x="1001" y="1135" on="1"/>
        <pt x="972" y="1021" on="0"/>
        <pt x="848" y="848" on="0"/>
        <pt x="714" y="848" on="0"/>
        <pt x="415" y="940" on="0"/>
        <pt x="308" y="940" on="0"/>
        <pt x="268" y="847" on="1"/>
        <pt x="119" y="925" on="1"/>
        <pt x="198" y="1150" on="0"/>
      </contour>
      <contour>
        <pt x="349" y="704" on="1"/>
        <pt x="406" y="704" on="0"/>
        <pt x="558" y="660" on="1"/>
        <pt x="707" y="617" on="0"/>
        <pt x="725" y="617" on="1"/>
        <pt x="726" y="617" on="0"/>
        <pt x="726" y="617" on="1"/>
        <pt x="803" y="617" on="0"/>
        <pt x="837" y="731" on="1"/>
        <pt x="1001" y="689" on="1"/>
        <pt x="972" y="575" on="0"/>
        <pt x="848" y="402" on="0"/>
        <pt x="714" y="402" on="0"/>
        <pt x="415" y="494" on="0"/>
        <pt x="308" y="494" on="0"/>
        <pt x="268" y="401" on="1"/>
        <pt x="119" y="479" on="1"/>
        <pt x="198" y="704" on="0"/>
      </contour>
    </TTGlyph>
    <TTGlyph name="aring" xMin="126" yMin="-13" xMax="793" yMax="1971">
      <component glyphName="ring" x="20" y="1200" flags="0x1004"/>
      <component glyphName="a" x="0" y="0" flags="0x1004"/>
    </TTGlyph>
    <TTGlyph name="asciicircum" xMin="143" yMin="577" xMax="886" yMax="1500">
      <contour>
        <pt x="384" y="1500" on="1"/>
        <pt x="645" y="1500" on="1"/>
        <pt x="886" y="577" on="1"/>
        <pt x="685" y="577" on="1"/>
        <pt x="515" y="1340" on="1"/>
        <pt x="345" y="577" on="1"/>
        <pt x="143" y="577" on="1"/>
      </contour>
    </TTGlyph>
    <TTGlyph name="asciitilde" xMin="111" yMin="831" xMax="993" yMax="1161">
      <contour>
        <pt x="341" y="1134" on="1"/>
        <pt x="398" y="1134" on="0"/>
        <pt x="550" y="1090" on="1"/>
        <pt x="699" y="1047" on="0"/>
        <pt x="717" y="1047" on="1"/>
        <pt x="718" y="1047" on="0"/>
        <pt x="718" y="1047" on="1"/>
        <pt x="795" y="1047" on="0"/>
        <pt x="829" y="1161" on="1"/>
        <pt x="993" y="1119" on="1"/>
        <pt x="964" y="1005" on="0"/>
        <pt x="840" y="832" on="0"/>
        <pt x="706" y="832" on="0"/>
        <pt x="407" y="924" on="0"/>
        <pt x="300" y="924" on="0"/>
        <pt x="260" y="831" on="1"/>
        <pt x="111" y="909" on="1"/>
        <pt x="190" y="1134" on="0"/>
      </contour>
    </TTGlyph>
    <TTGlyph name="asterisk" xMin="117" yMin="988" xMax="843" yMax="1727">
      <contour>
        <pt x="400" y="1727" on="1"/>
        <pt x="560" y="1727" on="1"/>
        <pt x="536" y="1454" on="1"/>
        <pt x="762" y="1626" on="1"/>
        <pt x="843" y="1487" on="1"/>
        <pt x="586" y="1361" on="1"/>
        <pt x="843" y="1228" on="1"/>
        <pt x="762" y="1088" on="1"/>
        <pt x="536" y="1266" on="1"/>
        <pt x="560" y="988" on="1"/>
        <pt x="400" y="988" on="1"/>
        <pt x="430" y="1271" on="1"/>
        <pt x="203" y="1095" on="1"/>
        <pt x="123" y="1235" on="1"/>
        <pt x="373" y="1361" on="1"/>
        <pt x="117" y="1480" on="1"/>
        <pt x="198" y="1619" on="1"/>
        <pt x="429" y="1451" on="1"/>
      </contour>
    </TTGlyph>
    <TTGlyph name="at" xMin="94" yMin="-56" xMax="1316" yMax="1781">
      <contour>
        <pt x="1077" y="518" on="1"/>
        <pt x="1173" y="518" on="0"/>
        <pt x="1173" y="866" on="1"/>
        <pt x="1173" y="1105" on="0"/>
        <pt x="1142" y="1303" on="0"/>
        <pt x="1122" y="1360" on="1"/>
        <pt x="1028" y="1636" on="0"/>
        <pt x="751" y="1636" on="1"/>
        <pt x="254" y="1636" on="0"/>
        <pt x="254" y="833" on="1"/>
        <pt x="254" y="430" on="0"/>
        <pt x="472" y="84" on="0"/>
        <pt x="694" y="84" on="1"/>
        <pt x="838" y="88" on="0"/>
        <pt x="889" y="112" on="1"/>
        <pt x="911" y="-27" on="1"/>
        <pt x="769" y="-56" on="0"/>
        <pt x="690" y="-56" on="1"/>
        <pt x="398" y="-56" on="0"/>
        <pt x="94" y="391" on="0"/>
        <pt x="94" y="1271" on="0"/>
        <pt x="409" y="1781" on="0"/>
        <pt x="764" y="1781" on="1"/>
        <pt x="1181" y="1781" on="0"/>
        <pt x="1284" y="1270" on="1"/>
        <pt x="1316" y="1112" on="0"/>
        <pt x="1316" y="751" on="0"/>
        <pt x="1267" y="519" on="0"/>
        <pt x="1155" y="378" on="0"/>
        <pt x="1011" y="378" on="0"/>
        <pt x="912" y="503" on="0"/>
        <pt x="894" y="591" on="1"/>
        <pt x="876" y="487" on="0"/>
        <pt x="766" y="361" on="0"/>
        <pt x="700" y="361" on="1"/>
        <pt x="577" y="361" on="0"/>
        <pt x="409" y="566" on="0"/>
        <pt x="409" y="1025" on="0"/>
        <pt x="545" y="1283" on="0"/>
        <pt x="669" y="1283" on="1"/>
        <pt x="739" y="1283" on="0"/>
        <pt x="843" y="1204" on="0"/>
        <pt x="875" y="1148" on="1"/>
        <pt x="905" y="1270" on="1"/>
        <pt x="1005" y="1270" on="1"/>
        <pt x="1005" y="713" on="1"/>
        <pt x="1005" y="614" on="0"/>
        <pt x="1037" y="518" on="0"/>
      </contour>
      <contour>
        <pt x="696" y="1133" on="1"/>
        <pt x="548" y="1133" on="0"/>
        <pt x="548" y="509" on="0"/>
        <pt x="701" y="509" on="1"/>
        <pt x="774" y="509" on="0"/>
        <pt x="867" y="649" on="0"/>
        <pt x="867" y="759" on="1"/>
        <pt x="867" y="1062" on="1"/>
        <pt x="766" y="1133" on="0"/>
      </contour>
    </TTGlyph>
    <TTGlyph name="atilde" xMin="126" yMin="-13" xMax="794" yMax="1850">
      <component glyphName="tilde" x="-76" y="1200" flags="0x1004"/>
      <component glyphName="a" x="0" y="0" flags="0x1004"/>
    </TTGlyph>
    <TTGlyph name="b" xMin="147" yMin="-13" xMax="814" yMax="1779">
      <contour>
        <pt x="147" y="1779" on="1"/>
        <pt x="352" y="1779" on="1"/>
        <pt x="352" y="1381" on="1"/>
        <pt x="368" y="1439" on="0"/>
        <pt x="478" y="1518" on="0"/>
        <pt x="541" y="1518" on="1"/>
        <pt x="726" y="1518" on="0"/>
        <pt x="779" y="1335" on="1"/>
        <pt x="814" y="1217" on="0"/>
        <pt x="814" y="1040" on="1"/>
        <pt x="814" y="463" on="1"/>
        <pt x="814" y="185" on="0"/>
        <pt x="738" y="76" on="1"/>
        <pt x="676" y="-13" on="0"/>
        <pt x="556" y="-13" on="1"/>
        <pt x="410" y="-13" on="0"/>
        <pt x="352" y="126" on="1"/>
        <pt x="352" y="0" on="1"/>
        <pt x="147" y="0" on="1"/>
      </contour>
      <contour>
        <pt x="608" y="1067" on="1"/>
        <pt x="608" y="1216" on="0"/>
        <pt x="581" y="1292" on="0"/>
        <pt x="545" y="1346" on="0"/>
        <pt x="500" y="1346" on="1"/>
        <pt x="456" y="1346" on="0"/>
        <pt x="432" y="1336" on="1"/>
        <pt x="352" y="1300" on="0"/>
        <pt x="352" y="1066" on="1"/>
        <pt x="352" y="458" on="1"/>
        <pt x="352" y="295" on="0"/>
        <pt x="407" y="154" on="0"/>
        <pt x="560" y="154" on="0"/>
        <pt x="608" y="294" on="0"/>
        <pt x="608" y="463" on="1"/>
      </contour>
    </TTGlyph>
    <TTGlyph name="backslash" xMin="115" yMin="0" xMax="707" yMax="1761">
      <contour>
        <pt x="115" y="1761" on="1"/>
        <pt x="297" y="1761" on="1"/>
        <pt x="707" y="0" on="1"/>
        <pt x="526" y="0" on="1"/>
      </contour>
    </TTGlyph>
    <TTGlyph name="bar" xMin="175" yMin="-84" xMax="372" yMax="1877">
      <contour>
        <pt x="175" y="1877" on="1"/>
        <pt x="372" y="1877" on="1"/>
        <pt x="372" y="-84" on="1"/>
        <pt x="175" y="-84" on="1"/>
      </contour>
    </TTGlyph>
    <TTGlyph name="braceleft" xMin="165" yMin="-121" xMax="647" yMax="1781">
      <contour>
        <pt x="587" y="1781" on="1"/>
        <pt x="647" y="1781" on="1"/>
        <pt x="647" y="1614" on="1"/>
        <pt x="556" y="1614" on="0"/>
        <pt x="508" y="1550" on="0"/>
        <pt x="508" y="1430" on="1"/>
        <pt x="508" y="1184" on="1"/>
        <pt x="508" y="948" on="0"/>
        <pt x="425" y="855" on="0"/>
        <pt x="342" y="830" on="1"/>
        <pt x="425" y="805" on="0"/>
        <pt x="482" y="741" on="0"/>
        <pt x="508" y="625" on="0"/>
        <pt x="508" y="476" on="1"/>
        <pt x="508" y="230" on="1"/>
        <pt x="508" y="110" on="0"/>
        <pt x="556" y="46" on="0"/>
        <pt x="647" y="46" on="1"/>
        <pt x="647" y="-121" on="1"/>
        <pt x="587" y="-121" on="1"/>
        <pt x="427" y="-121" on="0"/>
        <pt x="304" y="23" on="0"/>
        <pt x="304" y="217" on="1"/>
        <pt x="304" y="492" on="1"/>
        <pt x="304" y="639" on="0"/>
        <pt x="258" y="720" on="0"/>
        <pt x="165" y="720" on="1"/>
        <pt x="165" y="940" on="1"/>
        <pt x="258" y="940" on="0"/>
        <pt x="304" y="1021" on="0"/>
        <pt x="304" y="1168" on="1"/>
        <pt x="304" y="1443" on="1"/>
        <pt x="304" y="1637" on="0"/>
        <pt x="427" y="1781" on="0"/>
      </contour>
    </TTGlyph>
    <TTGlyph name="braceright" xMin="165" yMin="-121" xMax="647" yMax="1781">
      <contour>
        <pt x="165" y="1781" on="1"/>
        <pt x="225" y="1781" on="1"/>
        <pt x="385" y="1781" on="0"/>
        <pt x="508" y="1637" on="0"/>
        <pt x="508" y="1443" on="1"/>
        <pt x="508" y="1168" on="1"/>
        <pt x="508" y="1021" on="0"/>
        <pt x="554" y="940" on="0"/>
        <pt x="647" y="940" on="1"/>
        <pt x="647" y="720" on="1"/>
        <pt x="554" y="720" on="0"/>
        <pt x="508" y="639" on="0"/>
        <pt x="508" y="492" on="1"/>
        <pt x="508" y="217" on="1"/>
        <pt x="508" y="23" on="0"/>
        <pt x="385" y="-121" on="0"/>
        <pt x="225" y="-121" on="1"/>
        <pt x="165" y="-121" on="1"/>
        <pt x="165" y="46" on="1"/>
        <pt x="256" y="46" on="0"/>
        <pt x="304" y="110" on="0"/>
        <pt x="304" y="230" on="1"/>
        <pt x="304" y="476" on="1"/>
        <pt x="304" y="712" on="0"/>
        <pt x="387" y="805" on="0"/>
        <pt x="470" y="830" on="1"/>
        <pt x="387" y="855" on="0"/>
        <pt x="330" y="919" on="0"/>
        <pt x="304" y="1035" on="0"/>
        <pt x="304" y="1184" on="1"/>
        <pt x="304" y="1430" on="1"/>
        <pt x="304" y="1550" on="0"/>
        <pt x="256" y="1614" on="0"/>
        <pt x="165" y="1614" on="1"/>
      </contour>
    </TTGlyph>
    <TTGlyph name="bracketleft" xMin="217" yMin="0" xMax="632" yMax="1761">
      <contour>
        <pt x="217" y="1761" on="1"/>
        <pt x="632" y="1761" on="1"/>
        <pt x="632" y="1601" on="1"/>
        <pt x="423" y="1601" on="1"/>
        <pt x="423" y="160" on="1"/>
        <pt x="632" y="160" on="1"/>
        <pt x="632" y="0" on="1"/>
        <pt x="217" y="0" on="1"/>
      </contour>
    </TTGlyph>
    <TTGlyph name="bracketright" xMin="166" yMin="0" xMax="581" yMax="1761">
      <contour>
        <pt x="166" y="1761" on="1"/>
        <pt x="581" y="1761" on="1"/>
        <pt x="581" y="0" on="1"/>
        <pt x="166" y="0" on="1"/>
        <pt x="166" y="160" on="1"/>
        <pt x="376" y="160" on="1"/>
        <pt x="376" y="1601" on="1"/>
        <pt x="166" y="1601" on="1"/>
      </contour>
    </TTGlyph>
    <TTGlyph name="breve" xMin="271" yMin="1617" xMax="741" yMax="1856">
      <contour>
        <pt x="635" y="1856" on="1"/>
        <pt x="741" y="1856" on="1"/>
        <pt x="741" y="1843" on="1"/>
        <pt x="741" y="1734" on="0"/>
        <pt x="623" y="1617" on="0"/>
        <pt x="390" y="1617" on="0"/>
        <pt x="271" y="1733" on="0"/>
        <pt x="271" y="1841" on="1"/>
        <pt x="271" y="1856" on="1"/>
        <pt x="377" y="1856" on="1"/>
        <pt x="377" y="1735" on="0"/>
        <pt x="507" y="1735" on="1"/>
        <pt x="565" y="1735" on="0"/>
        <pt x="635" y="1786" on="0"/>
      </contour>
    </TTGlyph>
    <TTGlyph name="brokenbar" xMin="122" yMin="-118" xMax="319" yMax="1727">
      <contour>
        <pt x="122" y="1727" on="1"/>
        <pt x="319" y="1727" on="1"/>
        <pt x="319" y="897" on="1"/>
        <pt x="122" y="897" on="1"/>
      </contour>
      <contour>
        <pt x="122" y="690" on="1"/>
        <pt x="319" y="690" on="1"/>
        <pt x="319" y="-118" on="1"/>
        <pt x="122" y="-118" on="1"/>
      </contour>
    </TTGlyph>
    <TTGlyph name="bullet" xMin="197" yMin="483" xMax="664" yMax="999">
      <contour>
        <pt x="197" y="617" on="0"/>
        <pt x="197" y="865" on="0"/>
        <pt x="317" y="999" on="0"/>
        <pt x="544" y="999" on="0"/>
        <pt x="664" y="865" on="0"/>
        <pt x="664" y="617" on="0"/>
        <pt x="544" y="483" on="0"/>
        <pt x="317" y="483" on="0"/>
      </contour>
    </TTGlyph>
    <TTGlyph name="c" xMin="124" yMin="-18" xMax="775" yMax="1518">
      <contour>
        <pt x="124" y="1008" on="1"/>
        <pt x="124" y="1203" on="0"/>
        <pt x="183" y="1384" on="0"/>
        <pt x="220" y="1426" on="1"/>
        <pt x="301" y="1518" on="0"/>
        <pt x="615" y="1518" on="0"/>
        <pt x="684" y="1440" on="1"/>
        <pt x="752" y="1362" on="0"/>
        <pt x="768" y="1208" on="1"/>
        <pt x="774" y="1142" on="0"/>
        <pt x="775" y="1051" on="1"/>
        <pt x="775" y="947" on="1"/>
        <pt x="573" y="947" on="1"/>
        <pt x="573" y="1079" on="1"/>
        <pt x="573" y="1219" on="0"/>
        <pt x="562" y="1262" on="1"/>
        <pt x="522" y="1326" on="0"/>
        <pt x="466" y="1342" on="1"/>
        <pt x="368" y="1342" on="0"/>
        <pt x="345" y="1244" on="1"/>
        <pt x="330" y="1182" on="0"/>
        <pt x="330" y="1073" on="1"/>
        <pt x="330" y="435" on="1"/>
        <pt x="330" y="281" on="0"/>
        <pt x="377" y="158" on="0"/>
        <pt x="511" y="158" on="0"/>
        <pt x="573" y="245" on="0"/>
        <pt x="573" y="431" on="1"/>
        <pt x="573" y="576" on="1"/>
        <pt x="775" y="576" on="1"/>
        <pt x="775" y="479" on="1"/>
        <pt x="775" y="172" on="0"/>
        <pt x="613" y="-18" on="0"/>
        <pt x="447" y="-18" on="1"/>
        <pt x="185" y="-18" on="0"/>
        <pt x="140" y="262" on="1"/>
        <pt x="124" y="365" on="0"/>
        <pt x="124" y="506" on="1"/>
      </contour>
    </TTGlyph>
    <TTGlyph name="cacute" xMin="124" yMin="-18" xMax="775" yMax="1921">
      <component glyphName="c" x="0" y="0" flags="0x1004"/>
      <component glyphName="acute" x="177" y="-208" flags="0x1004"/>
    </TTGlyph>
    <TTGlyph name="caron" xMin="215" yMin="1592" xMax="754" yMax="1886">
      <contour>
        <pt x="571" y="1886" on="1"/>
        <pt x="754" y="1886" on="1"/>
        <pt x="601" y="1592" on="1"/>
        <pt x="369" y="1592" on="1"/>
        <pt x="215" y="1886" on="1"/>
        <pt x="399" y="1886" on="1"/>
        <pt x="485" y="1681" on="1"/>
      </contour>
    </TTGlyph>
    <TTGlyph name="ccaron" xMin="124" yMin="-18" xMax="775" yMax="1886">
      <component glyphName="c" x="0" y="0" flags="0x1004"/>
      <component glyphName="caron" x="-19" y="0" flags="0x1004"/>
    </TTGlyph>
    <TTGlyph name="ccedilla" xMin="124" yMin="-617" xMax="775" yMax="1518">
      <component glyphName="cedilla" x="-74" y="0" flags="0x1004"/>
      <component glyphName="c" x="0" y="0" flags="0x1004"/>
    </TTGlyph>
    <TTGlyph name="ccircumflex" xMin="124" yMin="-18" xMax="775" yMax="1886">
      <component glyphName="c" x="0" y="0" flags="0x1004"/>
      <component glyphName="circumflex" x="-19" y="0" flags="0x1004"/>
    </TTGlyph>
    <TTGlyph name="cdotaccent" xMin="124" yMin="-18" xMax="775" yMax="1783">
      <component glyphName="dotaccent" x="180" y="1200" flags="0x1004"/>
      <component glyphName="c" x="0" y="0" flags="0x1004"/>
    </TTGlyph>
    <TTGlyph name="cedilla" xMin="351" yMin="-617" xMax="746" yMax="0">
      <contour>
        <pt x="351" y="-501" on="1"/>
        <pt x="582" y="-501" on="0"/>
        <pt x="582" y="-360" on="1"/>
        <pt x="582" y="-296" on="0"/>
        <pt x="489" y="-211" on="0"/>
        <pt x="422" y="-196" on="1"/>
        <pt x="462" y="0" on="1"/>
        <pt x="531" y="0" on="1"/>
        <pt x="543" y="-144" on="1"/>
        <pt x="746" y="-228" on="0"/>
        <pt x="746" y="-397" on="1"/>
        <pt x="746" y="-480" on="0"/>
        <pt x="591" y="-617" on="0"/>
        <pt x="468" y="-617" on="1"/>
        <pt x="411" y="-617" on="0"/>
        <pt x="351" y="-599" on="1"/>
      </contour>
    </TTGlyph>
    <TTGlyph name="cent" xMin="124" yMin="-250" xMax="775" yMax="1767">
      <contour>
        <pt x="124" y="1008" on="1"/>
        <pt x="124" y="1203" on="0"/>
        <pt x="183" y="1384" on="0"/>
        <pt x="220" y="1426" on="1"/>
        <pt x="284" y="1499" on="0"/>
        <pt x="402" y="1514" on="1"/>
        <pt x="402" y="1767" on="1"/>
        <pt x="515" y="1767" on="1"/>
        <pt x="515" y="1515" on="1"/>
        <pt x="628" y="1503" on="0"/>
        <pt x="691" y="1433" on="1"/>
        <pt x="775" y="1339" on="0"/>
        <pt x="775" y="1051" on="1"/>
        <pt x="775" y="947" on="1"/>
        <pt x="573" y="947" on="1"/>
        <pt x="573" y="1079" on="1"/>
        <pt x="573" y="1219" on="0"/>
        <pt x="562" y="1262" on="1"/>
        <pt x="522" y="1326" on="0"/>
        <pt x="466" y="1342" on="1"/>
        <pt x="368" y="1342" on="0"/>
        <pt x="345" y="1244" on="1"/>
        <pt x="330" y="1182" on="0"/>
        <pt x="330" y="1073" on="1"/>
        <pt x="330" y="435" on="1"/>
        <pt x="330" y="281" on="0"/>
        <pt x="377" y="158" on="0"/>
        <pt x="511" y="158" on="0"/>
        <pt x="573" y="245" on="0"/>
        <pt x="573" y="431" on="1"/>
        <pt x="573" y="576" on="1"/>
        <pt x="775" y="576" on="1"/>
        <pt x="775" y="479" on="1"/>
        <pt x="775" y="172" on="0"/>
        <pt x="689" y="71" on="1"/>
        <pt x="628" y="-1" on="0"/>
        <pt x="515" y="-15" on="1"/>
        <pt x="515" y="-250" on="1"/>
        <pt x="402" y="-250" on="1"/>
        <pt x="402" y="-15" on="1"/>
        <pt x="268" y="2" on="0"/>
        <pt x="206" y="90" on="1"/>
        <pt x="157" y="160" on="0"/>
        <pt x="124" y="365" on="0"/>
        <pt x="124" y="506" on="1"/>
      </contour>
    </TTGlyph>
    <TTGlyph name="circumflex" xMin="215" yMin="1592" xMax="754" yMax="1886">
      <contour>
        <pt x="369" y="1886" on="1"/>
        <pt x="601" y="1886" on="1"/>
        <pt x="754" y="1592" on="1"/>
        <pt x="571" y="1592" on="1"/>
        <pt x="485" y="1797" on="1"/>
        <pt x="399" y="1592" on="1"/>
        <pt x="215" y="1592" on="1"/>
      </contour>
    </TTGlyph>
    <TTGlyph name="colon" xMin="152" yMin="270" xMax="403" yMax="1307">
      <contour>
        <pt x="152" y="1307" on="1"/>
        <pt x="403" y="1307" on="1"/>
        <pt x="403" y="1057" on="1"/>
        <pt x="152" y="1057" on="1"/>
      </contour>
      <contour>
        <pt x="152" y="520" on="1"/>
        <pt x="403" y="520" on="1"/>
        <pt x="403" y="270" on="1"/>
        <pt x="152" y="270" on="1"/>
      </contour>
    </TTGlyph>
    <TTGlyph name="comma" xMin="119" yMin="-344" xMax="377" yMax="235">
      <contour>
        <pt x="119" y="235" on="1"/>
        <pt x="377" y="235" on="1"/>
        <pt x="377" y="9" on="1"/>
        <pt x="276" y="-344" on="1"/>
        <pt x="170" y="-344" on="1"/>
        <pt x="243" y="0" on="1"/>
        <pt x="119" y="0" on="1"/>
      </contour>
    </TTGlyph>
    <TTGlyph name="copyright" xMin="84" yMin="205" xMax="1398" yMax="1519">
      <contour>
        <pt x="527" y="1089" on="1"/>
        <pt x="527" y="1194" on="0"/>
        <pt x="620" y="1305" on="0"/>
        <pt x="842" y="1305" on="0"/>
        <pt x="940" y="1213" on="0"/>
        <pt x="940" y="1095" on="1"/>
        <pt x="940" y="977" on="1"/>
        <pt x="815" y="977" on="1"/>
        <pt x="815" y="1084" on="1"/>
        <pt x="815" y="1155" on="0"/>
        <pt x="772" y="1189" on="0"/>
        <pt x="748" y="1189" on="1"/>
        <pt x="724" y="1190" on="0"/>
        <pt x="712" y="1188" on="1"/>
        <pt x="652" y="1180" on="0"/>
        <pt x="652" y="1097" on="1"/>
        <pt x="652" y="616" on="1"/>
        <pt x="652" y="569" on="0"/>
        <pt x="699" y="536" on="0"/>
        <pt x="775" y="536" on="0"/>
        <pt x="815" y="568" on="0"/>
        <pt x="815" y="616" on="1"/>
        <pt x="815" y="765" on="1"/>
        <pt x="944" y="765" on="1"/>
        <pt x="944" y="623" on="1"/>
        <pt x="944" y="523" on="0"/>
        <pt x="848" y="424" on="0"/>
        <pt x="631" y="424" on="0"/>
        <pt x="527" y="534" on="0"/>
        <pt x="527" y="628" on="1"/>
      </contour>
      <contour>
        <pt x="84" y="678" on="0"/>
        <pt x="84" y="1046" on="0"/>
        <pt x="256" y="1347" on="0"/>
        <pt x="557" y="1519" on="0"/>
        <pt x="925" y="1519" on="0"/>
        <pt x="1226" y="1347" on="0"/>
        <pt x="1398" y="1046" on="0"/>
        <pt x="1398" y="678" on="0"/>
        <pt x="1226" y="377" on="0"/>
        <pt x="925" y="205" on="0"/>
        <pt x="557" y="205" on="0"/>
        <pt x="256" y="377" on="0"/>
      </contour>
      <contour>
        <pt x="841" y="1390" on="0"/>
        <pt x="641" y="1390" on="0"/>
        <pt x="471" y="1331" on="0"/>
        <pt x="350" y="1229" on="0"/>
        <pt x="266" y="1094" on="0"/>
        <pt x="225" y="942" on="0"/>
        <pt x="225" y="781" on="0"/>
        <pt x="265" y="629" on="0"/>
        <pt x="350" y="494" on="0"/>
        <pt x="470" y="393" on="0"/>
        <pt x="641" y="334" on="0"/>
        <pt x="841" y="334" on="0"/>
        <pt x="1011" y="393" on="0"/>
        <pt x="1132" y="495" on="0"/>
        <pt x="1216" y="630" on="0"/>
        <pt x="1257" y="782" on="0"/>
        <pt x="1257" y="943" on="0"/>
        <pt x="1217" y="1095" on="0"/>
        <pt x="1132" y="1230" on="0"/>
        <pt x="1012" y="1331" on="0"/>
      </contour>
    </TTGlyph>
    <TTGlyph name="currency" xMin="125" yMin="509" xMax="1034" yMax="1418">
      <contour>
        <pt x="797" y="1331" on="1"/>
        <pt x="884" y="1418" on="1"/>
        <pt x="1034" y="1269" on="1"/>
        <pt x="944" y="1179" on="1"/>
        <pt x="998" y="1082" on="0"/>
        <pt x="998" y="846" on="0"/>
        <pt x="944" y="748" on="1"/>
        <pt x="1034" y="658" on="1"/>
        <pt x="884" y="509" on="1"/>
        <pt x="795" y="597" on="1"/>
        <pt x="703" y="545" on="0"/>
        <pt x="455" y="545" on="0"/>
        <pt x="363" y="598" on="1"/>
        <pt x="274" y="509" on="1"/>
        <pt x="125" y="659" on="1"/>
        <pt x="216" y="750" on="1"/>
        <pt x="163" y="848" on="0"/>
        <pt x="163" y="1081" on="0"/>
        <pt x="215" y="1178" on="1"/>
        <pt x="125" y="1268" on="1"/>
        <pt x="274" y="1418" on="1"/>
        <pt x="361" y="1330" on="1"/>
        <pt x="458" y="1385" on="0"/>
        <pt x="700" y="1385" on="0"/>
      </contour>
      <contour>
        <pt x="688" y="703" on="0"/>
        <pt x="823" y="855" on="0"/>
        <pt x="823" y="1079" on="0"/>
        <pt x="690" y="1224" on="0"/>
        <pt x="471" y="1224" on="0"/>
        <pt x="336" y="1074" on="0"/>
        <pt x="336" y="853" on="0"/>
        <pt x="470" y="703" on="0"/>
      </contour>
    </TTGlyph>
    <TTGlyph name="d" xMin="124" yMin="-13" xMax="792" yMax="1779">
      <contour>
        <pt x="586" y="1779" on="1"/>
        <pt x="792" y="1779" on="1"/>
        <pt x="792" y="0" on="1"/>
        <pt x="586" y="0" on="1"/>
        <pt x="586" y="126" on="1"/>
        <pt x="530" y="-13" on="0"/>
        <pt x="379" y="-13" on="1"/>
        <pt x="172" y="-13" on="0"/>
        <pt x="136" y="260" on="1"/>
        <pt x="124" y="351" on="0"/>
        <pt x="124" y="480" on="1"/>
        <pt x="124" y="1047" on="1"/>
        <pt x="124" y="1318" on="0"/>
        <pt x="212" y="1430" on="1"/>
        <pt x="282" y="1518" on="0"/>
        <pt x="410" y="1518" on="1"/>
        <pt x="466" y="1518" on="0"/>
        <pt x="561" y="1452" on="0"/>
        <pt x="586" y="1400" on="1"/>
      </contour>
      <contour>
        <pt x="587" y="1050" on="1"/>
        <pt x="587" y="1208" on="0"/>
        <pt x="534" y="1346" on="0"/>
        <pt x="383" y="1346" on="0"/>
        <pt x="330" y="1207" on="0"/>
        <pt x="330" y="1045" on="1"/>
        <pt x="330" y="439" on="1"/>
        <pt x="330" y="219" on="0"/>
        <pt x="388" y="173" on="1"/>
        <pt x="412" y="154" on="0"/>
        <pt x="500" y="154" on="0"/>
        <pt x="528" y="178" on="1"/>
        <pt x="587" y="228" on="0"/>
        <pt x="587" y="448" on="1"/>
      </contour>
    </TTGlyph>
    <TTGlyph name="dagger" xMin="91" yMin="0" xMax="818" yMax="1592">
      <contour>
        <pt x="352" y="1592" on="1"/>
        <pt x="560" y="1592" on="1"/>
        <pt x="560" y="1182" on="1"/>
        <pt x="818" y="1182" on="1"/>
        <pt x="818" y="1017" on="1"/>
        <pt x="560" y="1017" on="1"/>
        <pt x="560" y="0" on="1"/>
        <pt x="352" y="0" on="1"/>
        <pt x="352" y="1017" on="1"/>
        <pt x="91" y="1017" on="1"/>
        <pt x="91" y="1182" on="1"/>
        <pt x="352" y="1182" on="1"/>
      </contour>
    </TTGlyph>
    <TTGlyph name="daggerdbl" xMin="91" yMin="0" xMax="818" yMax="1592">
      <contour>
        <pt x="352" y="1592" on="1"/>
        <pt x="560" y="1592" on="1"/>
        <pt x="560" y="1182" on="1"/>
        <pt x="818" y="1182" on="1"/>
        <pt x="818" y="1017" on="1"/>
        <pt x="560" y="1017" on="1"/>
        <pt x="560" y="668" on="1"/>
        <pt x="818" y="668" on="1"/>
        <pt x="818" y="503" on="1"/>
        <pt x="560" y="503" on="1"/>
        <pt x="560" y="0" on="1"/>
        <pt x="352" y="0" on="1"/>
        <pt x="352" y="503" on="1"/>
        <pt x="91" y="503" on="1"/>
        <pt x="91" y="668" on="1"/>
        <pt x="352" y="668" on="1"/>
        <pt x="352" y="1017" on="1"/>
        <pt x="91" y="1017" on="1"/>
        <pt x="91" y="1182" on="1"/>
        <pt x="352" y="1182" on="1"/>
      </contour>
    </TTGlyph>
    <TTGlyph name="dcaron" xMin="124" yMin="-13" xMax="1238" yMax="1779">
      <component glyphName="d" x="0" y="0" flags="0x1004"/>
      <component glyphName="quoteright" x="769" y="0" flags="0x1004"/>
    </TTGlyph>
    <TTGlyph name="dcroat" xMin="124" yMin="-13" xMax="916" yMax="1779">
      <component glyphName="d" x="0" y="0" flags="0x1004"/>
      <component glyphName="macron" x="325" y="1144" flags="0x1004"/>
    </TTGlyph>
    <TTGlyph name="degree" xMin="104" yMin="934" xMax="811" yMax="1603">
      <contour>
        <pt x="104" y="1107" on="0"/>
        <pt x="104" y="1431" on="0"/>
        <pt x="317" y="1603" on="0"/>
        <pt x="598" y="1603" on="0"/>
        <pt x="811" y="1431" on="0"/>
        <pt x="811" y="1269" on="1"/>
        <pt x="811" y="1189" on="0"/>
        <pt x="750" y="1058" on="0"/>
        <pt x="700" y="1018" on="1"/>
        <pt x="597" y="934" on="0"/>
        <pt x="318" y="934" on="0"/>
      </contour>
      <contour>
        <pt x="628" y="1151" on="1"/>
        <pt x="657" y="1199" on="0"/>
        <pt x="657" y="1260" on="1"/>
        <pt x="657" y="1437" on="0"/>
        <pt x="500" y="1478" on="1"/>
        <pt x="479" y="1484" on="0"/>
        <pt x="458" y="1484" on="1"/>
        <pt x="416" y="1478" on="1"/>
        <pt x="259" y="1437" on="0"/>
        <pt x="259" y="1265" on="1"/>
        <pt x="259" y="1201" on="0"/>
        <pt x="288" y="1152" on="1"/>
        <pt x="344" y="1056" on="0"/>
        <pt x="458" y="1056" on="1"/>
        <pt x="459" y="1056" on="0"/>
        <pt x="460" y="1056" on="1"/>
        <pt x="572" y="1056" on="0"/>
      </contour>
    </TTGlyph>
    <TTGlyph name="dieresis" xMin="131" yMin="418" xMax="845" yMax="596">
      <contour>
        <pt x="615" y="596" on="1"/>
        <pt x="845" y="596" on="1"/>
        <pt x="845" y="418" on="1"/>
        <pt x="615" y="418" on="1"/>
      </contour>
      <contour>
        <pt x="131" y="596" on="1"/>
        <pt x="361" y="596" on="1"/>
        <pt x="361" y="418" on="1"/>
        <pt x="131" y="418" on="1"/>
      </contour>
    </TTGlyph>
    <TTGlyph name="divide" xMin="94" yMin="237" xMax="710" yMax="1274">
      <contour>
        <pt x="94" y="870" on="1"/>
        <pt x="710" y="870" on="1"/>
        <pt x="710" y="638" on="1"/>
        <pt x="94" y="638" on="1"/>
      </contour>
      <contour>
        <pt x="253" y="535" on="1"/>
        <pt x="551" y="535" on="1"/>
        <pt x="551" y="237" on="1"/>
        <pt x="253" y="237" on="1"/>
      </contour>
      <contour>
        <pt x="253" y="1274" on="1"/>
        <pt x="551" y="1274" on="1"/>
        <pt x="551" y="976" on="1"/>
        <pt x="253" y="976" on="1"/>
      </contour>
    </TTGlyph>
    <TTGlyph name="dollar" xMin="88" yMin="-246" xMax="745" yMax="1760">
      <contour>
        <pt x="745" y="354" on="1"/>
        <pt x="745" y="33" on="0"/>
        <pt x="496" y="-5" on="1"/>
        <pt x="496" y="-246" on="1"/>
        <pt x="371" y="-246" on="1"/>
        <pt x="371" y="-7" on="1"/>
        <pt x="248" y="8" on="0"/>
        <pt x="100" y="196" on="0"/>
        <pt x="100" y="424" on="1"/>
        <pt x="100" y="537" on="1"/>
        <pt x="299" y="537" on="1"/>
        <pt x="299" y="425" on="1"/>
        <pt x="299" y="165" on="0"/>
        <pt x="417" y="165" on="1"/>
        <pt x="482" y="165" on="0"/>
        <pt x="539" y="249" on="0"/>
        <pt x="539" y="353" on="1"/>
        <pt x="539" y="516" on="0"/>
        <pt x="389" y="663" on="1"/>
        <pt x="378" y="674" on="0"/>
        <pt x="296" y="751" on="0"/>
        <pt x="283" y="764" on="1"/>
        <pt x="88" y="950" on="0"/>
        <pt x="88" y="1175" on="1"/>
        <pt x="88" y="1494" on="0"/>
        <pt x="356" y="1525" on="1"/>
        <pt x="356" y="1760" on="1"/>
        <pt x="481" y="1760" on="1"/>
        <pt x="481" y="1522" on="1"/>
        <pt x="540" y="1512" on="0"/>
        <pt x="582" y="1485" on="1"/>
        <pt x="720" y="1395" on="0"/>
        <pt x="720" y="1060" on="1"/>
        <pt x="720" y="988" on="1"/>
        <pt x="525" y="988" on="1"/>
        <pt x="525" y="1092" on="1"/>
        <pt x="525" y="1223" on="0"/>
        <pt x="474" y="1352" on="0"/>
        <pt x="350" y="1352" on="0"/>
        <pt x="288" y="1274" on="0"/>
        <pt x="288" y="1181" on="1"/>
        <pt x="288" y="1035" on="0"/>
        <pt x="425" y="899" on="1"/>
        <pt x="533" y="798" on="1"/>
        <pt x="745" y="595" on="0"/>
      </contour>
    </TTGlyph>
    <TTGlyph name="dotaccent" xMin="184" yMin="405" xMax="397" yMax="583">
      <contour>
        <pt x="184" y="583" on="1"/>
        <pt x="397" y="583" on="1"/>
        <pt x="397" y="405" on="1"/>
        <pt x="184" y="405" on="1"/>
      </contour>
    </TTGlyph>
    <TTGlyph name="dotlessi" xMin="149" yMin="0" xMax="355" yMax="1500">
      <contour>
        <pt x="149" y="1500" on="1"/>
        <pt x="355" y="1500" on="1"/>
        <pt x="355" y="0" on="1"/>
        <pt x="149" y="0" on="1"/>
      </contour>
    </TTGlyph>
    <TTGlyph name="e" xMin="124" yMin="-18" xMax="778" yMax="1518">
      <contour>
        <pt x="124" y="1035" on="1"/>
        <pt x="124" y="1319" on="0"/>
        <pt x="226" y="1430" on="1"/>
        <pt x="306" y="1518" on="0"/>
        <pt x="462" y="1518" on="1"/>
        <pt x="688" y="1518" on="0"/>
        <pt x="746" y="1323" on="1"/>
        <pt x="778" y="1213" on="0"/>
        <pt x="778" y="1026" on="1"/>
        <pt x="778" y="743" on="1"/>
        <pt x="330" y="743" on="1"/>
        <pt x="330" y="444" on="1"/>
        <pt x="330" y="249" on="0"/>
        <pt x="392" y="153" on="0"/>
        <pt x="526" y="153" on="0"/>
        <pt x="571" y="265" on="0"/>
        <pt x="573" y="396" on="0"/>
        <pt x="573" y="441" on="1"/>
        <pt x="573" y="562" on="1"/>
        <pt x="774" y="562" on="1"/>
        <pt x="774" y="498" on="1"/>
        <pt x="774" y="259" on="0"/>
        <pt x="707" y="67" on="0"/>
        <pt x="571" y="-18" on="0"/>
        <pt x="370" y="-18" on="0"/>
        <pt x="249" y="33" on="0"/>
        <pt x="178" y="117" on="0"/>
        <pt x="124" y="301" on="0"/>
        <pt x="124" y="505" on="1"/>
      </contour>
      <contour>
        <pt x="573" y="1073" on="1"/>
        <pt x="573" y="1233" on="0"/>
        <pt x="550" y="1299" on="0"/>
        <pt x="514" y="1349" on="0"/>
        <pt x="467" y="1349" on="1"/>
        <pt x="377" y="1349" on="0"/>
        <pt x="329" y="1198" on="0"/>
        <pt x="329" y="1066" on="1"/>
        <pt x="329" y="882" on="1"/>
        <pt x="573" y="882" on="1"/>
      </contour>
    </TTGlyph>
    <TTGlyph name="eacute" xMin="124" yMin="-18" xMax="778" yMax="1921">
      <component glyphName="e" x="0" y="0" flags="0x1004"/>
      <component glyphName="acute" x="168" y="-208" flags="0x1004"/>
    </TTGlyph>
    <TTGlyph name="ebreve" xMin="124" yMin="-18" xMax="778" yMax="1856">
      <component glyphName="breve" x="-51" y="0" flags="0x1004"/>
      <component glyphName="e" x="0" y="0" flags="0x1004"/>
    </TTGlyph>
    <TTGlyph name="ecaron" xMin="124" yMin="-18" xMax="778" yMax="1886">
      <component glyphName="e" x="0" y="0" flags="0x1004"/>
      <component glyphName="caron" x="-28" y="0" flags="0x1004"/>
    </TTGlyph>
    <TTGlyph name="ecircumflex" xMin="124" yMin="-18" xMax="778" yMax="1886">
      <component glyphName="e" x="0" y="0" flags="0x1004"/>
      <component glyphName="circumflex" x="-28" y="0" flags="0x1004"/>
    </TTGlyph>
    <TTGlyph name="edieresis" xMin="100" yMin="-18" xMax="814" yMax="1796">
      <component glyphName="e" x="0" y="0" flags="0x1004"/>
      <component glyphName="dieresis" x="-31" y="1200" flags="0x1004"/>
    </TTGlyph>
    <TTGlyph name="edotaccent" xMin="124" yMin="-18" xMax="778" yMax="1783">
      <component glyphName="dotaccent" x="171" y="1200" flags="0x1004"/>
      <component glyphName="e" x="0" y="0" flags="0x1004"/>
    </TTGlyph>
    <TTGlyph name="egrave" xMin="124" yMin="-18" xMax="778" yMax="1903">
      <component glyphName="grave" x="154" y="1200" flags="0x1004"/>
      <component glyphName="e" x="0" y="0" flags="0x1004"/>
    </TTGlyph>
    <TTGlyph name="eight" xMin="103" yMin="-20" xMax="789" yMax="1780">
      <contour>
        <pt x="116" y="1344" on="1"/>
        <pt x="116" y="1576" on="0"/>
        <pt x="270" y="1780" on="0"/>
        <pt x="635" y="1780" on="0"/>
        <pt x="786" y="1577" on="0"/>
        <pt x="786" y="1344" on="1"/>
        <pt x="786" y="1044" on="0"/>
        <pt x="643" y="946" on="1"/>
        <pt x="709" y="897" on="0"/>
        <pt x="789" y="640" on="0"/>
        <pt x="789" y="494" on="1"/>
        <pt x="789" y="424" on="1"/>
        <pt x="785" y="191" on="0"/>
        <pt x="627" y="-20" on="0"/>
        <pt x="275" y="-20" on="0"/>
        <pt x="109" y="190" on="0"/>
        <pt x="104" y="417" on="1"/>
        <pt x="103" y="429" on="0"/>
        <pt x="103" y="642" on="0"/>
        <pt x="185" y="896" on="0"/>
        <pt x="255" y="943" on="1"/>
        <pt x="116" y="1042" on="0"/>
      </contour>
      <contour>
        <pt x="583" y="507" on="1"/>
        <pt x="583" y="685" on="0"/>
        <pt x="514" y="863" on="0"/>
        <pt x="391" y="863" on="0"/>
        <pt x="310" y="680" on="0"/>
        <pt x="310" y="504" on="1"/>
        <pt x="310" y="435" on="1"/>
        <pt x="311" y="274" on="0"/>
        <pt x="367" y="154" on="0"/>
        <pt x="517" y="154" on="0"/>
        <pt x="573" y="225" on="0"/>
        <pt x="583" y="370" on="0"/>
        <pt x="583" y="440" on="1"/>
      </contour>
      <contour>
        <pt x="544" y="1057" on="0"/>
        <pt x="580" y="1208" on="0"/>
        <pt x="580" y="1429" on="0"/>
        <pt x="565" y="1542" on="0"/>
        <pt x="529" y="1598" on="0"/>
        <pt x="487" y="1614" on="0"/>
        <pt x="404" y="1614" on="0"/>
        <pt x="378" y="1596" on="1"/>
        <pt x="322" y="1555" on="0"/>
        <pt x="322" y="1088" on="0"/>
        <pt x="382" y="1032" on="1"/>
        <pt x="408" y="1007" on="0"/>
        <pt x="490" y="1007" on="0"/>
      </contour>
    </TTGlyph>
    <TTGlyph name="emacron" xMin="124" yMin="-18" xMax="778" yMax="1744">
      <component glyphName="macron" x="109" y="1200" flags="0x1004"/>
      <component glyphName="e" x="0" y="0" flags="0x1004"/>
    </TTGlyph>
    <TTGlyph name="emdash" xMin="60" yMin="570" xMax="1092" yMax="741">
      <contour>
        <pt x="60" y="741" on="1"/>
        <pt x="1092" y="741" on="1"/>
        <pt x="1092" y="570" on="1"/>
        <pt x="60" y="570" on="1"/>
      </contour>
    </TTGlyph>
    <TTGlyph name="endash" xMin="120" yMin="509" xMax="636" yMax="741">
      <contour>
        <pt x="120" y="741" on="1"/>
        <pt x="636" y="741" on="1"/>
        <pt x="636" y="509" on="1"/>
        <pt x="120" y="509" on="1"/>
      </contour>
    </TTGlyph>
    <TTGlyph name="eogonek" xMin="124" yMin="-619" xMax="778" yMax="1518">
      <component glyphName="e" x="0" y="0" flags="0x1004"/>
      <component glyphName="ogonek" x="-162" y="7" flags="0x1004"/>
    </TTGlyph>
    <TTGlyph name="equal" xMin="84" yMin="576" xMax="668" yMax="1050">
      <contour>
        <pt x="84" y="735" on="1"/>
        <pt x="668" y="735" on="1"/>
        <pt x="668" y="576" on="1"/>
        <pt x="84" y="576" on="1"/>
      </contour>
      <contour>
        <pt x="84" y="1050" on="1"/>
        <pt x="668" y="1050" on="1"/>
        <pt x="668" y="892" on="1"/>
        <pt x="84" y="892" on="1"/>
      </contour>
    </TTGlyph>
    <TTGlyph name="eth" xMin="104" yMin="-20" xMax="942" yMax="1780">
      <contour>
        <pt x="421" y="1101" on="1"/>
        <pt x="548" y="1101" on="0"/>
        <pt x="612" y="1025" on="1"/>
        <pt x="612" y="1067" on="0"/>
        <pt x="590" y="1372" on="0"/>
        <pt x="575" y="1407" on="1"/>
        <pt x="358" y="1281" on="1"/>
        <pt x="299" y="1399" on="1"/>
        <pt x="507" y="1520" on="1"/>
        <pt x="423" y="1617" on="0"/>
        <pt x="282" y="1635" on="1"/>
        <pt x="349" y="1780" on="1"/>
        <pt x="563" y="1770" on="0"/>
        <pt x="683" y="1620" on="1"/>
        <pt x="883" y="1735" on="1"/>
        <pt x="942" y="1617" on="1"/>
        <pt x="753" y="1507" on="1"/>
        <pt x="780" y="1451" on="0"/>
        <pt x="822" y="995" on="0"/>
        <pt x="822" y="909" on="1"/>
        <pt x="822" y="516" on="1"/>
        <pt x="822" y="309" on="0"/>
        <pt x="758" y="119" on="0"/>
        <pt x="718" y="75" on="1"/>
        <pt x="633" y="-20" on="0"/>
        <pt x="257" y="-20" on="0"/>
        <pt x="104" y="221" on="0"/>
        <pt x="104" y="462" on="1"/>
        <pt x="104" y="571" on="1"/>
        <pt x="104" y="859" on="0"/>
        <pt x="249" y="1101" on="0"/>
      </contour>
      <contour>
        <pt x="616" y="854" on="1"/>
        <pt x="603" y="879" on="0"/>
        <pt x="512" y="927" on="0"/>
        <pt x="454" y="927" on="1"/>
        <pt x="369" y="927" on="0"/>
        <pt x="311" y="777" on="0"/>
        <pt x="311" y="578" on="1"/>
        <pt x="311" y="440" on="1"/>
        <pt x="311" y="272" on="0"/>
        <pt x="372" y="158" on="0"/>
        <pt x="551" y="158" on="0"/>
        <pt x="616" y="305" on="0"/>
        <pt x="616" y="481" on="1"/>
      </contour>
    </TTGlyph>
    <TTGlyph name="exclam" xMin="146" yMin="0" xMax="381" yMax="1760">
      <contour>
        <pt x="146" y="1760" on="1"/>
        <pt x="381" y="1760" on="1"/>
        <pt x="306" y="395" on="1"/>
        <pt x="222" y="395" on="1"/>
      </contour>
      <contour>
        <pt x="151" y="228" on="1"/>
        <pt x="373" y="228" on="1"/>
        <pt x="373" y="0" on="1"/>
        <pt x="151" y="0" on="1"/>
      </contour>
    </TTGlyph>
    <TTGlyph name="exclamdown" xMin="175" yMin="-221" xMax="410" yMax="1539">
      <component glyphName="exclam" x="556" y="1539" scale="-1.0" flags="0x1004"/>
    </TTGlyph>
    <TTGlyph name="f" xMin="71" yMin="0" xMax="581" yMax="1786">
      <contour>
        <pt x="200" y="1515" on="1"/>
        <pt x="200" y="1786" on="0"/>
        <pt x="432" y="1786" on="1"/>
        <pt x="518" y="1786" on="0"/>
        <pt x="581" y="1765" on="1"/>
        <pt x="581" y="1622" on="1"/>
        <pt x="541" y="1628" on="0"/>
        <pt x="447" y="1628" on="0"/>
        <pt x="405" y="1577" on="0"/>
        <pt x="405" y="1523" on="1"/>
        <pt x="405" y="1442" on="1"/>
        <pt x="581" y="1442" on="1"/>
        <pt x="581" y="1291" on="1"/>
        <pt x="405" y="1291" on="1"/>
        <pt x="405" y="0" on="1"/>
        <pt x="200" y="0" on="1"/>
        <pt x="200" y="1291" on="1"/>
        <pt x="71" y="1291" on="1"/>
        <pt x="71" y="1442" on="1"/>
        <pt x="200" y="1442" on="1"/>
      </contour>
    </TTGlyph>
    <TTGlyph name="five" xMin="128" yMin="-20" xMax="741" yMax="1760">
      <contour>
        <pt x="335" y="1163" on="1"/>
        <pt x="370" y="1233" on="0"/>
        <pt x="508" y="1233" on="1"/>
        <pt x="509" y="1233" on="0"/>
        <pt x="511" y="1233" on="1"/>
        <pt x="579" y="1233" on="0"/>
        <pt x="632" y="1186" on="1"/>
        <pt x="741" y="1088" on="0"/>
        <pt x="741" y="668" on="1"/>
        <pt x="741" y="342" on="0"/>
        <pt x="710" y="184" on="0"/>
        <pt x="694" y="138" on="1"/>
        <pt x="642" y="-20" on="0"/>
        <pt x="435" y="-20" on="1"/>
        <pt x="128" y="-20" on="0"/>
        <pt x="128" y="316" on="1"/>
        <pt x="128" y="510" on="1"/>
        <pt x="328" y="510" on="1"/>
        <pt x="328" y="315" on="1"/>
        <pt x="328" y="239" on="0"/>
        <pt x="375" y="154" on="0"/>
        <pt x="491" y="154" on="0"/>
        <pt x="542" y="238" on="0"/>
        <pt x="542" y="326" on="1"/>
        <pt x="542" y="851" on="1"/>
        <pt x="542" y="958" on="0"/>
        <pt x="496" y="1058" on="0"/>
        <pt x="440" y="1058" on="1"/>
        <pt x="324" y="1058" on="0"/>
        <pt x="324" y="871" on="1"/>
        <pt x="146" y="887" on="1"/>
        <pt x="146" y="1760" on="1"/>
        <pt x="699" y="1760" on="1"/>
        <pt x="699" y="1574" on="1"/>
        <pt x="335" y="1574" on="1"/>
      </contour>
    </TTGlyph>
    <TTGlyph name="florin" xMin="107" yMin="-15" xMax="662" yMax="1785">
      <contour>
        <pt x="115" y="157" on="1"/>
        <pt x="167" y="154" on="1"/>
        <pt x="243" y="154" on="0"/>
        <pt x="286" y="213" on="0"/>
        <pt x="286" y="305" on="1"/>
        <pt x="286" y="1102" on="1"/>
        <pt x="107" y="1102" on="1"/>
        <pt x="107" y="1255" on="1"/>
        <pt x="286" y="1255" on="1"/>
        <pt x="286" y="1539" on="1"/>
        <pt x="286" y="1785" on="0"/>
        <pt x="483" y="1785" on="1"/>
        <pt x="564" y="1785" on="0"/>
        <pt x="652" y="1752" on="1"/>
        <pt x="652" y="1603" on="1"/>
        <pt x="589" y="1622" on="0"/>
        <pt x="514" y="1622" on="0"/>
        <pt x="480" y="1566" on="0"/>
        <pt x="480" y="1503" on="1"/>
        <pt x="480" y="1255" on="1"/>
        <pt x="662" y="1255" on="1"/>
        <pt x="662" y="1102" on="1"/>
        <pt x="480" y="1102" on="1"/>
        <pt x="480" y="221" on="1"/>
        <pt x="480" y="-15" on="0"/>
        <pt x="270" y="-15" on="1"/>
        <pt x="198" y="-15" on="0"/>
        <pt x="115" y="8" on="1"/>
      </contour>
    </TTGlyph>
    <TTGlyph name="four" xMin="96" yMin="-1" xMax="845" yMax="1761">
      <contour>
        <pt x="487" y="1761" on="1"/>
        <pt x="700" y="1761" on="1"/>
        <pt x="700" y="496" on="1"/>
        <pt x="845" y="496" on="1"/>
        <pt x="845" y="332" on="1"/>
        <pt x="700" y="332" on="1"/>
        <pt x="700" y="-1" on="1"/>
        <pt x="512" y="-1" on="1"/>
        <pt x="512" y="332" on="1"/>
        <pt x="96" y="332" on="1"/>
        <pt x="96" y="477" on="1"/>
      </contour>
      <contour>
        <pt x="512" y="496" on="1"/>
        <pt x="512" y="1412" on="1"/>
        <pt x="266" y="496" on="1"/>
      </contour>
    </TTGlyph>
    <TTGlyph name="fraction" xMin="76" yMin="0" xMax="709" yMax="1768">
      <contour>
        <pt x="531" y="1768" on="1"/>
        <pt x="709" y="1768" on="1"/>
        <pt x="253" y="0" on="1"/>
        <pt x="76" y="0" on="1"/>
      </contour>
    </TTGlyph>
    <TTGlyph name="g" xMin="119" yMin="-229" xMax="788" yMax="1518">
      <contour>
        <pt x="400" y="1518" on="1"/>
        <pt x="541" y="1518" on="0"/>
        <pt x="583" y="1390" on="1"/>
        <pt x="583" y="1500" on="1"/>
        <pt x="788" y="1500" on="1"/>
        <pt x="788" y="140" on="1"/>
        <pt x="788" y="-128" on="0"/>
        <pt x="586" y="-203" on="1"/>
        <pt x="516" y="-229" on="0"/>
        <pt x="424" y="-229" on="1"/>
        <pt x="240" y="-229" on="0"/>
        <pt x="119" y="-133" on="1"/>
        <pt x="193" y="7" on="1"/>
        <pt x="302" y="-67" on="0"/>
        <pt x="424" y="-67" on="1"/>
        <pt x="505" y="-67" on="0"/>
        <pt x="583" y="35" on="0"/>
        <pt x="583" y="121" on="1"/>
        <pt x="583" y="264" on="1"/>
        <pt x="556" y="194" on="0"/>
        <pt x="508" y="167" on="1"/>
        <pt x="458" y="140" on="0"/>
        <pt x="384" y="140" on="1"/>
        <pt x="234" y="140" on="0"/>
        <pt x="122" y="394" on="0"/>
        <pt x="122" y="608" on="1"/>
        <pt x="122" y="1038" on="1"/>
        <pt x="122" y="1518" on="0"/>
      </contour>
      <contour>
        <pt x="583" y="1068" on="1"/>
        <pt x="583" y="1214" on="0"/>
        <pt x="530" y="1347" on="0"/>
        <pt x="397" y="1347" on="0"/>
        <pt x="343" y="1271" on="0"/>
        <pt x="328" y="1157" on="0"/>
        <pt x="328" y="1070" on="1"/>
        <pt x="328" y="603" on="1"/>
        <pt x="328" y="444" on="0"/>
        <pt x="386" y="303" on="0"/>
        <pt x="466" y="303" on="1"/>
        <pt x="508" y="303" on="0"/>
        <pt x="532" y="327" on="1"/>
        <pt x="582" y="376" on="0"/>
        <pt x="583" y="605" on="1"/>
      </contour>
    </TTGlyph>
    <TTGlyph name="gbreve" xMin="119" yMin="-229" xMax="788" yMax="1856">
      <component glyphName="breve" x="-22" y="0" flags="0x1004"/>
      <component glyphName="g" x="0" y="0" flags="0x1004"/>
    </TTGlyph>
    <TTGlyph name="gcircumflex" xMin="119" yMin="-229" xMax="788" yMax="1886">
      <component glyphName="g" x="0" y="0" flags="0x1004"/>
      <component glyphName="circumflex" x="4" y="0" flags="0x1004"/>
    </TTGlyph>
    <TTGlyph name="gcommaaccent" xMin="119" yMin="-229" xMax="788" yMax="1948">
      <component glyphName="uni0326" x="320" y="1871" scale="0.599975585938" flags="0x1004"/>
      <component glyphName="g" x="0" y="0" flags="0x1004"/>
    </TTGlyph>
    <TTGlyph name="gdotaccent" xMin="119" yMin="-229" xMax="788" yMax="1783">
      <component glyphName="dotaccent" x="200" y="1200" flags="0x1004"/>
      <component glyphName="g" x="0" y="0" flags="0x1004"/>
    </TTGlyph>
    <TTGlyph name="germandbls" xMin="144" yMin="0" xMax="891" yMax="1781">
      <contour>
        <pt x="144" y="1417" on="1"/>
        <pt x="144" y="1616" on="0"/>
        <pt x="203" y="1690" on="1"/>
        <pt x="276" y="1780" on="0"/>
        <pt x="476" y="1780" on="1"/>
        <pt x="477" y="1780" on="0"/>
        <pt x="478" y="1781" on="1"/>
        <pt x="675" y="1780" on="0"/>
        <pt x="831" y="1624" on="0"/>
        <pt x="831" y="1417" on="1"/>
        <pt x="831" y="1220" on="1"/>
        <pt x="831" y="1096" on="0"/>
        <pt x="760" y="976" on="0"/>
        <pt x="668" y="945" on="1"/>
        <pt x="795" y="915" on="0"/>
        <pt x="891" y="742" on="0"/>
        <pt x="891" y="553" on="1"/>
        <pt x="891" y="476" on="1"/>
        <pt x="891" y="255" on="0"/>
        <pt x="818" y="79" on="0"/>
        <pt x="678" y="0" on="0"/>
        <pt x="554" y="0" on="1"/>
        <pt x="450" y="0" on="1"/>
        <pt x="450" y="168" on="1"/>
        <pt x="605" y="168" on="0"/>
        <pt x="678" y="239" on="0"/>
        <pt x="689" y="344" on="0"/>
        <pt x="689" y="395" on="1"/>
        <pt x="689" y="656" on="1"/>
        <pt x="689" y="769" on="0"/>
        <pt x="592" y="851" on="0"/>
        <pt x="459" y="851" on="1"/>
        <pt x="459" y="1019" on="1"/>
        <pt x="556" y="1019" on="0"/>
        <pt x="631" y="1086" on="0"/>
        <pt x="631" y="1170" on="1"/>
        <pt x="631" y="1470" on="1"/>
        <pt x="631" y="1560" on="0"/>
        <pt x="568" y="1627" on="0"/>
        <pt x="410" y="1627" on="0"/>
        <pt x="348" y="1558" on="0"/>
        <pt x="348" y="1470" on="1"/>
        <pt x="348" y="0" on="1"/>
        <pt x="144" y="0" on="1"/>
      </contour>
    </TTGlyph>
    <TTGlyph name="grave" xMin="121" yMin="398" xMax="492" yMax="703">
      <contour>
        <pt x="121" y="492" on="1"/>
        <pt x="121" y="703" on="1"/>
        <pt x="492" y="509" on="1"/>
        <pt x="492" y="398" on="1"/>
      </contour>
    </TTGlyph>
    <TTGlyph name="greater" xMin="87" yMin="264" xMax="663" yMax="1241">
      <contour>
        <pt x="87" y="1027" on="1"/>
        <pt x="87" y="1241" on="1"/>
        <pt x="663" y="857" on="1"/>
        <pt x="663" y="646" on="1"/>
        <pt x="87" y="264" on="1"/>
        <pt x="87" y="484" on="1"/>
        <pt x="520" y="749" on="1"/>
      </contour>
    </TTGlyph>
    <TTGlyph name="greaterequal" xMin="103" yMin="0" xMax="680" yMax="1259">
      <contour>
        <pt x="103" y="1039" on="1"/>
        <pt x="103" y="1259" on="1"/>
        <pt x="680" y="878" on="1"/>
        <pt x="680" y="667" on="1"/>
        <pt x="103" y="282" on="1"/>
        <pt x="103" y="496" on="1"/>
        <pt x="536" y="774" on="1"/>
      </contour>
      <contour>
        <pt x="105" y="144" on="1"/>
        <pt x="645" y="144" on="1"/>
        <pt x="645" y="0" on="1"/>
        <pt x="105" y="0" on="1"/>
      </contour>
    </TTGlyph>
    <TTGlyph name="guillemotleft" xMin="82" yMin="372" xMax="1098" yMax="1110">
      <contour>
        <pt x="620" y="839" on="1"/>
        <pt x="1098" y="1110" on="1"/>
        <pt x="1098" y="903" on="1"/>
        <pt x="786" y="749" on="1"/>
        <pt x="1098" y="586" on="1"/>
        <pt x="1098" y="372" on="1"/>
        <pt x="620" y="657" on="1"/>
      </contour>
      <contour>
        <pt x="82" y="839" on="1"/>
        <pt x="560" y="1110" on="1"/>
        <pt x="560" y="903" on="1"/>
        <pt x="248" y="749" on="1"/>
        <pt x="560" y="586" on="1"/>
        <pt x="560" y="372" on="1"/>
        <pt x="82" y="657" on="1"/>
      </contour>
    </TTGlyph>
    <TTGlyph name="guillemotright" xMin="172" yMin="372" xMax="1188" yMax="1110">
      <contour>
        <pt x="710" y="903" on="1"/>
        <pt x="710" y="1110" on="1"/>
        <pt x="1188" y="839" on="1"/>
        <pt x="1188" y="657" on="1"/>
        <pt x="710" y="372" on="1"/>
        <pt x="710" y="586" on="1"/>
        <pt x="1022" y="749" on="1"/>
      </contour>
      <contour>
        <pt x="172" y="903" on="1"/>
        <pt x="172" y="1110" on="1"/>
        <pt x="650" y="839" on="1"/>
        <pt x="650" y="657" on="1"/>
        <pt x="172" y="372" on="1"/>
        <pt x="172" y="586" on="1"/>
        <pt x="484" y="749" on="1"/>
      </contour>
    </TTGlyph>
    <TTGlyph name="guilsinglleft" xMin="70" yMin="372" xMax="548" yMax="1110">
      <contour>
        <pt x="70" y="839" on="1"/>
        <pt x="548" y="1110" on="1"/>
        <pt x="548" y="903" on="1"/>
        <pt x="236" y="749" on="1"/>
        <pt x="548" y="586" on="1"/>
        <pt x="548" y="372" on="1"/>
        <pt x="70" y="657" on="1"/>
      </contour>
    </TTGlyph>
    <TTGlyph name="guilsinglright" xMin="153" yMin="372" xMax="631" yMax="1110">
      <contour>
        <pt x="153" y="903" on="1"/>
        <pt x="153" y="1110" on="1"/>
        <pt x="631" y="839" on="1"/>
        <pt x="631" y="657" on="1"/>
        <pt x="153" y="372" on="1"/>
        <pt x="153" y="586" on="1"/>
        <pt x="465" y="749" on="1"/>
      </contour>
    </TTGlyph>
    <TTGlyph name="h" xMin="147" yMin="0" xMax="832" yMax="1779">
      <contour>
        <pt x="147" y="1779" on="1"/>
        <pt x="352" y="1779" on="1"/>
        <pt x="352" y="1341" on="1"/>
        <pt x="373" y="1414" on="0"/>
        <pt x="505" y="1519" on="0"/>
        <pt x="706" y="1519" on="0"/>
        <pt x="832" y="1356" on="0"/>
        <pt x="832" y="1196" on="1"/>
        <pt x="832" y="0" on="1"/>
        <pt x="627" y="0" on="1"/>
        <pt x="627" y="1179" on="1"/>
        <pt x="627" y="1342" on="0"/>
        <pt x="504" y="1342" on="1"/>
        <pt x="437" y="1342" on="0"/>
        <pt x="352" y="1247" on="0"/>
        <pt x="352" y="1154" on="1"/>
        <pt x="352" y="0" on="1"/>
        <pt x="147" y="0" on="1"/>
      </contour>
    </TTGlyph>
    <TTGlyph name="hbar" xMin="0" yMin="0" xMax="832" yMax="1779">
      <contour>
        <pt x="147" y="1779" on="1"/>
        <pt x="352" y="1779" on="1"/>
        <pt x="352" y="1692" on="1"/>
        <pt x="561" y="1692" on="1"/>
        <pt x="561" y="1576" on="1"/>
        <pt x="352" y="1576" on="1"/>
        <pt x="352" y="1341" on="1"/>
        <pt x="373" y="1414" on="0"/>
        <pt x="505" y="1519" on="0"/>
        <pt x="706" y="1519" on="0"/>
        <pt x="832" y="1356" on="0"/>
        <pt x="832" y="1196" on="1"/>
        <pt x="832" y="0" on="1"/>
        <pt x="627" y="0" on="1"/>
        <pt x="627" y="1179" on="1"/>
        <pt x="627" y="1342" on="0"/>
        <pt x="504" y="1342" on="1"/>
        <pt x="437" y="1342" on="0"/>
        <pt x="352" y="1247" on="0"/>
        <pt x="352" y="1154" on="1"/>
        <pt x="352" y="0" on="1"/>
        <pt x="147" y="0" on="1"/>
        <pt x="147" y="1576" on="1"/>
        <pt x="0" y="1576" on="1"/>
        <pt x="0" y="1692" on="1"/>
        <pt x="147" y="1692" on="1"/>
      </contour>
    </TTGlyph>
    <TTGlyph name="hcircumflex" xMin="147" yMin="0" xMax="832" yMax="2140">
      <component glyphName="h" x="0" y="0" flags="0x1004"/>
      <component glyphName="circumflex" x="0" y="254" flags="0x1004"/>
    </TTGlyph>
    <TTGlyph name="hungarumlaut" xMin="396" yMin="459" xMax="1061" yMax="920">
      <contour>
        <pt x="688" y="505" on="1"/>
        <pt x="873" y="920" on="1"/>
        <pt x="1061" y="825" on="1"/>
        <pt x="777" y="459" on="1"/>
      </contour>
      <contour>
        <pt x="396" y="505" on="1"/>
        <pt x="524" y="920" on="1"/>
        <pt x="709" y="833" on="1"/>
        <pt x="486" y="467" on="1"/>
      </contour>
    </TTGlyph>
    <TTGlyph name="hyphen" xMin="88" yMin="763" xMax="540" yMax="899">
      <contour>
        <pt x="88" y="899" on="1"/>
        <pt x="540" y="899" on="1"/>
        <pt x="540" y="763" on="1"/>
        <pt x="88" y="763" on="1"/>
      </contour>
    </TTGlyph>
    <TTGlyph name="i" xMin="150" yMin="0" xMax="356" yMax="1826">
      <contour>
        <pt x="150" y="1500" on="1"/>
        <pt x="355" y="1500" on="1"/>
        <pt x="355" y="0" on="1"/>
        <pt x="150" y="0" on="1"/>
      </contour>
      <contour>
        <pt x="150" y="1826" on="1"/>
        <pt x="356" y="1826" on="1"/>
        <pt x="356" y="1638" on="1"/>
        <pt x="150" y="1638" on="1"/>
      </contour>
    </TTGlyph>
    <TTGlyph name="iacute" xMin="55" yMin="0" xMax="474" yMax="1921">
      <component glyphName="dotlessi" x="0" y="0" flags="0x1004"/>
      <component glyphName="acute" x="-45" y="-208" flags="0x1004"/>
    </TTGlyph>
    <TTGlyph name="ibreve" xMin="8" yMin="0" xMax="478" yMax="1856">
      <component glyphName="breve" x="-263" y="0" flags="0x1004"/>
      <component glyphName="dotlessi" x="0" y="0" flags="0x1004"/>
    </TTGlyph>
    <TTGlyph name="icircumflex" xMin="-25" yMin="0" xMax="514" yMax="1886">
      <component glyphName="dotlessi" x="0" y="0" flags="0x1004"/>
      <component glyphName="circumflex" x="-240" y="0" flags="0x1004"/>
    </TTGlyph>
    <TTGlyph name="idieresis" xMin="-112" yMin="0" xMax="602" yMax="1796">
      <component glyphName="dotlessi" x="0" y="0" flags="0x1004"/>
      <component glyphName="dieresis" x="-243" y="1200" flags="0x1004"/>
    </TTGlyph>
    <TTGlyph name="igrave" xMin="63" yMin="0" xMax="434" yMax="1903">
      <component glyphName="grave" x="-58" y="1200" flags="0x1004"/>
      <component glyphName="dotlessi" x="0" y="0" flags="0x1004"/>
    </TTGlyph>
    <TTGlyph name="ij" xMin="150" yMin="-211" xMax="890" yMax="1826">
      <component glyphName="j" x="503" y="0" flags="0x1004"/>
      <component glyphName="i" x="0" y="0" flags="0x1004"/>
    </TTGlyph>
    <TTGlyph name="imacron" xMin="-13" yMin="0" xMax="488" yMax="1744">
      <component glyphName="macron" x="-103" y="1200" flags="0x1004"/>
      <component glyphName="dotlessi" x="0" y="0" flags="0x1004"/>
    </TTGlyph>
    <TTGlyph name="infinity" xMin="108" yMin="439" xMax="1182" yMax="1041">
      <contour>
        <pt x="639" y="885" on="1"/>
        <pt x="696" y="955" on="0"/>
        <pt x="846" y="1041" on="0"/>
        <pt x="912" y="1041" on="1"/>
        <pt x="1033" y="1041" on="0"/>
        <pt x="1182" y="878" on="0"/>
        <pt x="1182" y="607" on="0"/>
        <pt x="1034" y="439" on="0"/>
        <pt x="912" y="439" on="1"/>
        <pt x="841" y="439" on="0"/>
        <pt x="691" y="519" on="0"/>
        <pt x="639" y="585" on="1"/>
        <pt x="586" y="525" on="0"/>
        <pt x="438" y="452" on="0"/>
        <pt x="370" y="452" on="1"/>
        <pt x="252" y="452" on="0"/>
        <pt x="108" y="613" on="0"/>
        <pt x="108" y="872" on="0"/>
        <pt x="252" y="1028" on="0"/>
        <pt x="370" y="1028" on="1"/>
        <pt x="433" y="1028" on="0"/>
        <pt x="581" y="949" on="0"/>
      </contour>
      <contour>
        <pt x="588" y="740" on="1"/>
        <pt x="547" y="805" on="0"/>
        <pt x="430" y="884" on="0"/>
        <pt x="323" y="884" on="0"/>
        <pt x="261" y="805" on="0"/>
        <pt x="261" y="674" on="0"/>
        <pt x="323" y="594" on="0"/>
        <pt x="429" y="594" on="0"/>
        <pt x="546" y="674" on="0"/>
      </contour>
      <contour>
        <pt x="1031" y="674" on="0"/>
        <pt x="1031" y="806" on="0"/>
        <pt x="965" y="886" on="0"/>
        <pt x="853" y="886" on="0"/>
        <pt x="729" y="806" on="0"/>
        <pt x="686" y="740" on="1"/>
        <pt x="726" y="674" on="0"/>
        <pt x="850" y="594" on="0"/>
        <pt x="965" y="594" on="0"/>
      </contour>
    </TTGlyph>
    <TTGlyph name="integral" xMin="115" yMin="-15" xMax="652" yMax="1785">
      <contour>
        <pt x="115" y="157" on="1"/>
        <pt x="167" y="154" on="1"/>
        <pt x="243" y="154" on="0"/>
        <pt x="286" y="213" on="0"/>
        <pt x="286" y="305" on="1"/>
        <pt x="286" y="1539" on="1"/>
        <pt x="286" y="1785" on="0"/>
        <pt x="483" y="1785" on="1"/>
        <pt x="564" y="1785" on="0"/>
        <pt x="652" y="1752" on="1"/>
        <pt x="652" y="1603" on="1"/>
        <pt x="589" y="1622" on="0"/>
        <pt x="514" y="1622" on="0"/>
        <pt x="480" y="1566" on="0"/>
        <pt x="480" y="1503" on="1"/>
        <pt x="480" y="221" on="1"/>
        <pt x="480" y="-15" on="0"/>
        <pt x="270" y="-15" on="1"/>
        <pt x="198" y="-15" on="0"/>
        <pt x="115" y="8" on="1"/>
      </contour>
    </TTGlyph>
    <TTGlyph name="iogonek" xMin="-26" yMin="-619" xMax="413" yMax="1783">
      <component glyphName="dotaccent" x="-41" y="1200" flags="0x1004"/>
      <component glyphName="ogonek" x="-399" y="7" flags="0x1004"/>
      <component glyphName="dotlessi" x="0" y="0" flags="0x1004"/>
    </TTGlyph>
    <TTGlyph name="itilde" xMin="-68" yMin="0" xMax="557" yMax="1850">
      <component glyphName="tilde" x="-313" y="1200" flags="0x1004"/>
      <component glyphName="dotlessi" x="0" y="0" flags="0x1004"/>
    </TTGlyph>
    <TTGlyph name="j" xMin="74" yMin="-211" xMax="387" yMax="1826">
      <contour>
        <pt x="80" y="-56" on="1"/>
        <pt x="94" y="-58" on="0"/>
        <pt x="124" y="-58" on="0"/>
        <pt x="132" y="-57" on="1"/>
        <pt x="182" y="-52" on="0"/>
        <pt x="182" y="10" on="1"/>
        <pt x="182" y="1500" on="1"/>
        <pt x="387" y="1500" on="1"/>
        <pt x="387" y="20" on="1"/>
        <pt x="387" y="-97" on="0"/>
        <pt x="290" y="-205" on="0"/>
        <pt x="221" y="-209" on="1"/>
        <pt x="199" y="-211" on="0"/>
        <pt x="90" y="-211" on="0"/>
        <pt x="74" y="-200" on="1"/>
        <pt x="74" y="-56" on="1"/>
      </contour>
      <contour>
        <pt x="180" y="1826" on="1"/>
        <pt x="386" y="1826" on="1"/>
        <pt x="386" y="1638" on="1"/>
        <pt x="180" y="1638" on="1"/>
      </contour>
    </TTGlyph>
    <TTGlyph name="jcircumflex" xMin="29" yMin="-161" xMax="568" yMax="1886">
      <component glyphName="uni0237" x="0" y="0" flags="0x1004"/>
      <component glyphName="circumflex" x="-186" y="0" flags="0x1004"/>
    </TTGlyph>
    <TTGlyph name="k" xMin="147" yMin="0" xMax="871" yMax="1779">
      <contour>
        <pt x="147" y="1779" on="1"/>
        <pt x="352" y="1779" on="1"/>
        <pt x="352" y="787" on="1"/>
        <pt x="647" y="1500" on="1"/>
        <pt x="854" y="1500" on="1"/>
        <pt x="538" y="759" on="1"/>
        <pt x="871" y="0" on="1"/>
        <pt x="660" y="0" on="1"/>
        <pt x="352" y="730" on="1"/>
        <pt x="352" y="0" on="1"/>
        <pt x="147" y="0" on="1"/>
      </contour>
    </TTGlyph>
    <TTGlyph name="kcommaaccent" xMin="147" yMin="-670" xMax="871" yMax="1779">
      <component glyphName="uni0326" x="152" y="-283" flags="0x1004"/>
      <component glyphName="k" x="0" y="0" flags="0x1004"/>
    </TTGlyph>
    <TTGlyph name="kgreenlandic" xMin="147" yMin="0" xMax="871" yMax="1500">
      <contour>
        <pt x="147" y="1500" on="1"/>
        <pt x="352" y="1500" on="1"/>
        <pt x="352" y="787" on="1"/>
        <pt x="647" y="1500" on="1"/>
        <pt x="854" y="1500" on="1"/>
        <pt x="538" y="759" on="1"/>
        <pt x="871" y="0" on="1"/>
        <pt x="660" y="0" on="1"/>
        <pt x="352" y="730" on="1"/>
        <pt x="352" y="0" on="1"/>
        <pt x="147" y="0" on="1"/>
      </contour>
    </TTGlyph>
    <TTGlyph name="l" xMin="148" yMin="0" xMax="353" yMax="1779">
      <contour>
        <pt x="148" y="1779" on="1"/>
        <pt x="353" y="1779" on="1"/>
        <pt x="353" y="0" on="1"/>
        <pt x="148" y="0" on="1"/>
      </contour>
    </TTGlyph>
    <TTGlyph name="lacute" xMin="61" yMin="0" xMax="480" yMax="2181">
      <component glyphName="l" x="0" y="0" flags="0x1004"/>
      <component glyphName="acute" x="-39" y="52" flags="0x1004"/>
    </TTGlyph>
    <TTGlyph name="lcaron" xMin="114" yMin="-670" xMax="353" yMax="1779">
      <component glyphName="uni0326" x="-31" y="-283" flags="0x1004"/>
      <component glyphName="l" x="0" y="0" flags="0x1004"/>
    </TTGlyph>
    <TTGlyph name="lcommaaccent" xMin="114" yMin="-670" xMax="353" yMax="1779">
      <component glyphName="uni0326" x="-31" y="-283" flags="0x1004"/>
      <component glyphName="l" x="0" y="0" flags="0x1004"/>
    </TTGlyph>
    <TTGlyph name="ldot" xMin="148" yMin="0" xMax="849" yMax="1779">
      <component glyphName="periodcentered" x="501" y="0" flags="0x1004"/>
      <component glyphName="l" x="0" y="0" flags="0x1004"/>
    </TTGlyph>
    <TTGlyph name="less" xMin="64" yMin="264" xMax="640" yMax="1241">
      <contour>
        <pt x="64" y="860" on="1"/>
        <pt x="640" y="1241" on="1"/>
        <pt x="640" y="1021" on="1"/>
        <pt x="207" y="755" on="1"/>
        <pt x="640" y="478" on="1"/>
        <pt x="640" y="264" on="1"/>
        <pt x="64" y="649" on="1"/>
      </contour>
    </TTGlyph>
    <TTGlyph name="lessequal" xMin="70" yMin="0" xMax="647" yMax="1259">
      <contour>
        <pt x="70" y="878" on="1"/>
        <pt x="647" y="1259" on="1"/>
        <pt x="647" y="1039" on="1"/>
        <pt x="213" y="774" on="1"/>
        <pt x="647" y="496" on="1"/>
        <pt x="647" y="282" on="1"/>
        <pt x="70" y="667" on="1"/>
      </contour>
      <contour>
        <pt x="102" y="144" on="1"/>
        <pt x="642" y="144" on="1"/>
        <pt x="642" y="0" on="1"/>
        <pt x="102" y="0" on="1"/>
      </contour>
    </TTGlyph>
    <TTGlyph name="logicalnot" xMin="97" yMin="439" xMax="793" yMax="979">
      <contour>
        <pt x="97" y="979" on="1"/>
        <pt x="793" y="979" on="1"/>
        <pt x="793" y="439" on="1"/>
        <pt x="602" y="439" on="1"/>
        <pt x="602" y="796" on="1"/>
        <pt x="97" y="796" on="1"/>
      </contour>
    </TTGlyph>
    <TTGlyph name="lozenge" xMin="74" yMin="110" xMax="847" yMax="1626">
      <contour>
        <pt x="297" y="1626" on="1"/>
        <pt x="618" y="1626" on="1"/>
        <pt x="847" y="863" on="1"/>
        <pt x="618" y="110" on="1"/>
        <pt x="297" y="110" on="1"/>
        <pt x="74" y="863" on="1"/>
      </contour>
      <contour>
        <pt x="629" y="863" on="1"/>
        <pt x="475" y="1437" on="1"/>
        <pt x="443" y="1437" on="1"/>
        <pt x="289" y="863" on="1"/>
        <pt x="443" y="289" on="1"/>
        <pt x="475" y="289" on="1"/>
      </contour>
    </TTGlyph>
    <TTGlyph name="lslash" xMin="75" yMin="0" xMax="601" yMax="1779">
      <contour>
        <pt x="216" y="1779" on="1"/>
        <pt x="421" y="1779" on="1"/>
        <pt x="421" y="1074" on="1"/>
        <pt x="601" y="1153" on="1"/>
        <pt x="601" y="986" on="1"/>
        <pt x="421" y="907" on="1"/>
        <pt x="421" y="0" on="1"/>
        <pt x="216" y="0" on="1"/>
        <pt x="216" y="816" on="1"/>
        <pt x="75" y="754" on="1"/>
        <pt x="75" y="921" on="1"/>
        <pt x="216" y="983" on="1"/>
      </contour>
    </TTGlyph>
    <TTGlyph name="m" xMin="147" yMin="0" xMax="1295" yMax="1519">
      <contour>
        <pt x="352" y="1344" on="1"/>
        <pt x="373" y="1420" on="0"/>
        <pt x="497" y="1519" on="0"/>
        <pt x="586" y="1519" on="1"/>
        <pt x="744" y="1519" on="0"/>
        <pt x="798" y="1367" on="1"/>
        <pt x="836" y="1437" on="0"/>
        <pt x="967" y="1519" on="0"/>
        <pt x="1052" y="1519" on="1"/>
        <pt x="1171" y="1519" on="0"/>
        <pt x="1295" y="1349" on="0"/>
        <pt x="1295" y="1184" on="1"/>
        <pt x="1295" y="0" on="1"/>
        <pt x="1090" y="0" on="1"/>
        <pt x="1090" y="1190" on="1"/>
        <pt x="1090" y="1342" on="0"/>
        <pt x="970" y="1342" on="1"/>
        <pt x="834" y="1342" on="0"/>
        <pt x="824" y="1203" on="1"/>
        <pt x="824" y="0" on="1"/>
        <pt x="618" y="0" on="1"/>
        <pt x="618" y="1191" on="1"/>
        <pt x="618" y="1342" on="0"/>
        <pt x="500" y="1342" on="1"/>
        <pt x="428" y="1342" on="0"/>
        <pt x="352" y="1249" on="0"/>
        <pt x="352" y="1168" on="1"/>
        <pt x="352" y="0" on="1"/>
        <pt x="147" y="0" on="1"/>
        <pt x="147" y="1500" on="1"/>
        <pt x="352" y="1500" on="1"/>
      </contour>
    </TTGlyph>
    <TTGlyph name="macron" xMin="90" yMin="412" xMax="591" yMax="544">
      <contour>
        <pt x="90" y="544" on="1"/>
        <pt x="591" y="544" on="1"/>
        <pt x="591" y="412" on="1"/>
        <pt x="90" y="412" on="1"/>
      </contour>
    </TTGlyph>
    <TTGlyph name="minus" xMin="60" yMin="509" xMax="576" yMax="741">
      <contour>
        <pt x="60" y="741" on="1"/>
        <pt x="576" y="741" on="1"/>
        <pt x="576" y="509" on="1"/>
        <pt x="60" y="509" on="1"/>
      </contour>
    </TTGlyph>
    <TTGlyph name="multiply" xMin="76" yMin="374" xMax="634" yMax="936">
      <contour>
        <pt x="534" y="936" on="1"/>
        <pt x="634" y="832" on="1"/>
        <pt x="458" y="655" on="1"/>
        <pt x="634" y="478" on="1"/>
        <pt x="534" y="374" on="1"/>
        <pt x="355" y="552" on="1"/>
        <pt x="176" y="374" on="1"/>
        <pt x="76" y="478" on="1"/>
        <pt x="252" y="655" on="1"/>
        <pt x="76" y="832" on="1"/>
        <pt x="176" y="936" on="1"/>
        <pt x="355" y="758" on="1"/>
      </contour>
    </TTGlyph>
    <TTGlyph name="n" xMin="147" yMin="0" xMax="833" yMax="1519">
      <contour>
        <pt x="352" y="1341" on="1"/>
        <pt x="372" y="1414" on="0"/>
        <pt x="507" y="1519" on="0"/>
        <pt x="708" y="1519" on="0"/>
        <pt x="833" y="1356" on="0"/>
        <pt x="833" y="1196" on="1"/>
        <pt x="833" y="0" on="1"/>
        <pt x="628" y="0" on="1"/>
        <pt x="628" y="1195" on="1"/>
        <pt x="628" y="1271" on="0"/>
        <pt x="558" y="1347" on="0"/>
        <pt x="434" y="1347" on="0"/>
        <pt x="352" y="1261" on="0"/>
        <pt x="352" y="1175" on="1"/>
        <pt x="352" y="0" on="1"/>
        <pt x="147" y="0" on="1"/>
        <pt x="147" y="1500" on="1"/>
        <pt x="352" y="1500" on="1"/>
      </contour>
    </TTGlyph>
    <TTGlyph name="nacute" xMin="147" yMin="0" xMax="833" yMax="1921">
      <component glyphName="n" x="0" y="0" flags="0x1004"/>
      <component glyphName="acute" x="196" y="-208" flags="0x1004"/>
    </TTGlyph>
    <TTGlyph name="ncaron" xMin="147" yMin="0" xMax="833" yMax="1886">
      <component glyphName="n" x="0" y="0" flags="0x1004"/>
      <component glyphName="caron" x="0" y="0" flags="0x1004"/>
    </TTGlyph>
    <TTGlyph name="ncommaaccent" xMin="147" yMin="-670" xMax="833" yMax="1519">
      <component glyphName="uni0326" x="204" y="-283" flags="0x1004"/>
      <component glyphName="n" x="0" y="0" flags="0x1004"/>
    </TTGlyph>
    <TTGlyph name="nine" xMin="67" yMin="-20" xMax="742" yMax="1780">
      <contour>
        <pt x="67" y="1250" on="1"/>
        <pt x="67" y="1455" on="0"/>
        <pt x="124" y="1642" on="0"/>
        <pt x="160" y="1685" on="1"/>
        <pt x="241" y="1780" on="0"/>
        <pt x="574" y="1780" on="0"/>
        <pt x="721" y="1606" on="0"/>
        <pt x="736" y="1425" on="1"/>
        <pt x="742" y="1352" on="0"/>
        <pt x="742" y="1244" on="1"/>
        <pt x="742" y="536" on="1"/>
        <pt x="742" y="178" on="0"/>
        <pt x="641" y="66" on="1"/>
        <pt x="563" y="-20" on="0"/>
        <pt x="248" y="-20" on="0"/>
        <pt x="104" y="200" on="0"/>
        <pt x="101" y="449" on="1"/>
        <pt x="101" y="513" on="1"/>
        <pt x="297" y="513" on="1"/>
        <pt x="297" y="483" on="1"/>
        <pt x="297" y="240" on="0"/>
        <pt x="365" y="155" on="0"/>
        <pt x="495" y="155" on="0"/>
        <pt x="536" y="264" on="0"/>
        <pt x="536" y="432" on="1"/>
        <pt x="536" y="706" on="1"/>
        <pt x="484" y="663" on="0"/>
        <pt x="385" y="663" on="1"/>
        <pt x="197" y="663" on="0"/>
        <pt x="67" y="933" on="0"/>
        <pt x="67" y="1205" on="1"/>
      </contour>
      <contour>
        <pt x="536" y="1279" on="1"/>
        <pt x="536" y="1446" on="0"/>
        <pt x="498" y="1563" on="0"/>
        <pt x="446" y="1602" on="0"/>
        <pt x="404" y="1602" on="1"/>
        <pt x="321" y="1602" on="0"/>
        <pt x="271" y="1444" on="0"/>
        <pt x="271" y="1278" on="1"/>
        <pt x="271" y="1177" on="1"/>
        <pt x="271" y="975" on="0"/>
        <pt x="324" y="828" on="0"/>
        <pt x="511" y="828" on="0"/>
        <pt x="536" y="884" on="1"/>
      </contour>
    </TTGlyph>
    <TTGlyph name="notequal" xMin="84" yMin="0" xMax="709" yMax="1768">
      <component glyphName="equal" x="0" y="0" flags="0x1004"/>
      <component glyphName="slash" x="0" y="0" flags="0x1004"/>
    </TTGlyph>
    <TTGlyph name="ntilde" xMin="147" yMin="0" xMax="833" yMax="1850">
      <component glyphName="tilde" x="-73" y="1200" flags="0x1004"/>
      <component glyphName="n" x="0" y="0" flags="0x1004"/>
    </TTGlyph>
    <TTGlyph name="numbersign" xMin="161" yMin="0" xMax="1106" yMax="1761">
      <contour>
        <pt x="907" y="1761" on="1"/>
        <pt x="1079" y="1761" on="1"/>
        <pt x="962" y="1170" on="1"/>
        <pt x="1106" y="1170" on="1"/>
        <pt x="1106" y="1036" on="1"/>
        <pt x="935" y="1036" on="1"/>
        <pt x="881" y="760" on="1"/>
        <pt x="1051" y="760" on="1"/>
        <pt x="1051" y="626" on="1"/>
        <pt x="854" y="626" on="1"/>
        <pt x="730" y="0" on="1"/>
        <pt x="559" y="0" on="1"/>
        <pt x="681" y="626" on="1"/>
        <pt x="478" y="626" on="1"/>
        <pt x="356" y="0" on="1"/>
        <pt x="185" y="0" on="1"/>
        <pt x="308" y="626" on="1"/>
        <pt x="161" y="626" on="1"/>
        <pt x="161" y="760" on="1"/>
        <pt x="335" y="760" on="1"/>
        <pt x="389" y="1036" on="1"/>
        <pt x="216" y="1036" on="1"/>
        <pt x="216" y="1170" on="1"/>
        <pt x="416" y="1170" on="1"/>
        <pt x="533" y="1761" on="1"/>
        <pt x="705" y="1761" on="1"/>
        <pt x="586" y="1170" on="1"/>
        <pt x="788" y="1170" on="1"/>
      </contour>
      <contour>
        <pt x="709" y="759" on="1"/>
        <pt x="763" y="1032" on="1"/>
        <pt x="559" y="1032" on="1"/>
        <pt x="504" y="759" on="1"/>
      </contour>
    </TTGlyph>
    <TTGlyph name="o" xMin="124" yMin="-18" xMax="790" yMax="1518">
      <contour>
        <pt x="124" y="1027" on="1"/>
        <pt x="124" y="1392" on="0"/>
        <pt x="292" y="1482" on="1"/>
        <pt x="360" y="1518" on="0"/>
        <pt x="450" y="1518" on="1"/>
        <pt x="685" y="1518" on="0"/>
        <pt x="750" y="1329" on="1"/>
        <pt x="790" y="1210" on="0"/>
        <pt x="790" y="1027" on="1"/>
        <pt x="790" y="496" on="1"/>
        <pt x="790" y="180" on="0"/>
        <pt x="620" y="-18" on="0"/>
        <pt x="459" y="-18" on="1"/>
        <pt x="224" y="-18" on="0"/>
        <pt x="160" y="182" on="1"/>
        <pt x="124" y="297" on="0"/>
        <pt x="124" y="496" on="1"/>
      </contour>
      <contour>
        <pt x="584" y="1068" on="1"/>
        <pt x="584" y="1282" on="0"/>
        <pt x="523" y="1328" on="1"/>
        <pt x="498" y="1347" on="0"/>
        <pt x="458" y="1347" on="1"/>
        <pt x="377" y="1347" on="0"/>
        <pt x="330" y="1201" on="0"/>
        <pt x="330" y="1068" on="1"/>
        <pt x="330" y="439" on="1"/>
        <pt x="330" y="218" on="0"/>
        <pt x="392" y="172" on="1"/>
        <pt x="417" y="153" on="0"/>
        <pt x="454" y="153" on="1"/>
        <pt x="456" y="153" on="0"/>
        <pt x="458" y="153" on="1"/>
        <pt x="537" y="153" on="0"/>
        <pt x="584" y="302" on="0"/>
        <pt x="584" y="439" on="1"/>
      </contour>
    </TTGlyph>
    <TTGlyph name="oacute" xMin="124" yMin="-18" xMax="790" yMax="1921">
      <component glyphName="o" x="0" y="0" flags="0x1004"/>
      <component glyphName="acute" x="168" y="-208" flags="0x1004"/>
    </TTGlyph>
    <TTGlyph name="obreve" xMin="124" yMin="-18" xMax="790" yMax="1856">
      <component glyphName="breve" x="-51" y="0" flags="0x1004"/>
      <component glyphName="o" x="0" y="0" flags="0x1004"/>
    </TTGlyph>
    <TTGlyph name="ocircumflex" xMin="124" yMin="-18" xMax="790" yMax="1886">
      <component glyphName="o" x="0" y="0" flags="0x1004"/>
      <component glyphName="circumflex" x="-28" y="0" flags="0x1004"/>
    </TTGlyph>
    <TTGlyph name="odieresis" xMin="100" yMin="-18" xMax="814" yMax="1796">
      <component glyphName="o" x="0" y="0" flags="0x1004"/>
      <component glyphName="dieresis" x="-31" y="1200" flags="0x1004"/>
    </TTGlyph>
    <TTGlyph name="oe" xMin="124" yMin="-18" xMax="1243" yMax="1518">
      <contour>
        <pt x="693" y="1403" on="1"/>
        <pt x="778" y="1518" on="0"/>
        <pt x="927" y="1518" on="1"/>
        <pt x="1152" y="1518" on="0"/>
        <pt x="1210" y="1323" on="1"/>
        <pt x="1242" y="1214" on="0"/>
        <pt x="1242" y="982" on="1"/>
        <pt x="1242" y="905" on="0"/>
        <pt x="1243" y="852" on="1"/>
        <pt x="1243" y="747" on="0"/>
        <pt x="1242" y="740" on="1"/>
        <pt x="794" y="740" on="1"/>
        <pt x="794" y="444" on="1"/>
        <pt x="794" y="249" on="0"/>
        <pt x="856" y="153" on="0"/>
        <pt x="978" y="153" on="0"/>
        <pt x="1027" y="235" on="0"/>
        <pt x="1038" y="358" on="0"/>
        <pt x="1038" y="561" on="0"/>
        <pt x="1037" y="562" on="1"/>
        <pt x="1240" y="562" on="1"/>
        <pt x="1240" y="502" on="1"/>
        <pt x="1240" y="261" on="0"/>
        <pt x="1172" y="71" on="0"/>
        <pt x="1037" y="-18" on="0"/>
        <pt x="919" y="-18" on="1"/>
        <pt x="770" y="-18" on="0"/>
        <pt x="689" y="96" on="1"/>
        <pt x="605" y="-18" on="0"/>
        <pt x="462" y="-18" on="1"/>
        <pt x="226" y="-18" on="0"/>
        <pt x="162" y="182" on="1"/>
        <pt x="124" y="299" on="0"/>
        <pt x="124" y="497" on="1"/>
        <pt x="124" y="1027" on="1"/>
        <pt x="124" y="1391" on="0"/>
        <pt x="295" y="1482" on="1"/>
        <pt x="363" y="1518" on="0"/>
        <pt x="462" y="1518" on="1"/>
        <pt x="608" y="1518" on="0"/>
      </contour>
      <contour>
        <pt x="588" y="1068" on="1"/>
        <pt x="588" y="1240" on="0"/>
        <pt x="521" y="1347" on="0"/>
        <pt x="471" y="1347" on="1"/>
        <pt x="379" y="1347" on="0"/>
        <pt x="331" y="1198" on="0"/>
        <pt x="331" y="1068" on="1"/>
        <pt x="331" y="439" on="1"/>
        <pt x="331" y="218" on="0"/>
        <pt x="394" y="172" on="1"/>
        <pt x="420" y="153" on="0"/>
        <pt x="457" y="153" on="1"/>
        <pt x="459" y="153" on="0"/>
        <pt x="461" y="153" on="1"/>
        <pt x="539" y="153" on="0"/>
        <pt x="588" y="304" on="0"/>
        <pt x="588" y="439" on="1"/>
      </contour>
      <contour>
        <pt x="1038" y="1073" on="1"/>
        <pt x="1038" y="1234" on="0"/>
        <pt x="1015" y="1298" on="0"/>
        <pt x="982" y="1349" on="0"/>
        <pt x="937" y="1349" on="1"/>
        <pt x="830" y="1349" on="0"/>
        <pt x="809" y="1241" on="1"/>
        <pt x="795" y="1174" on="0"/>
        <pt x="795" y="1061" on="1"/>
        <pt x="795" y="889" on="1"/>
        <pt x="1038" y="889" on="1"/>
      </contour>
    </TTGlyph>
    <TTGlyph name="ogonek" xMin="373" yMin="-626" xMax="812" yMax="0">
      <contour>
        <pt x="646" y="0" on="1"/>
        <pt x="731" y="0" on="1"/>
        <pt x="640" y="-89" on="0"/>
        <pt x="531" y="-287" on="0"/>
        <pt x="531" y="-357" on="1"/>
        <pt x="531" y="-496" on="0"/>
        <pt x="680" y="-496" on="1"/>
        <pt x="752" y="-496" on="0"/>
        <pt x="812" y="-476" on="1"/>
        <pt x="812" y="-591" on="1"/>
        <pt x="792" y="-602" on="0"/>
        <pt x="690" y="-626" on="0"/>
        <pt x="643" y="-626" on="1"/>
        <pt x="511" y="-626" on="0"/>
        <pt x="373" y="-500" on="0"/>
        <pt x="373" y="-291" on="0"/>
        <pt x="518" y="-72" on="0"/>
      </contour>
    </TTGlyph>
    <TTGlyph name="ograve" xMin="124" yMin="-18" xMax="790" yMax="1903">
      <component glyphName="grave" x="154" y="1200" flags="0x1004"/>
      <component glyphName="o" x="0" y="0" flags="0x1004"/>
    </TTGlyph>
    <TTGlyph name="ohungarumlaut" xMin="124" yMin="-18" xMax="857" yMax="2120">
      <component glyphName="o" x="0" y="0" flags="0x1004"/>
      <component glyphName="hungarumlaut" x="-204" y="1200" flags="0x1004"/>
    </TTGlyph>
    <TTGlyph name="omacron" xMin="124" yMin="-18" xMax="790" yMax="1744">
      <component glyphName="o" x="0" y="0" flags="0x1004"/>
      <component glyphName="macron" x="109" y="1200" flags="0x1004"/>
    </TTGlyph>
    <TTGlyph name="one" xMin="47" yMin="0" xMax="471" yMax="1761">
      <contour>
        <pt x="325" y="1761" on="1"/>
        <pt x="471" y="1761" on="1"/>
        <pt x="471" y="0" on="1"/>
        <pt x="265" y="0" on="1"/>
        <pt x="265" y="1483" on="1"/>
        <pt x="231" y="1442" on="0"/>
        <pt x="107" y="1397" on="0"/>
        <pt x="47" y="1397" on="1"/>
        <pt x="47" y="1541" on="1"/>
        <pt x="132" y="1553" on="0"/>
        <pt x="285" y="1667" on="0"/>
      </contour>
    </TTGlyph>
    <TTGlyph name="onehalf" xMin="95" yMin="0" xMax="1538" yMax="1768">
      <contour>
        <pt x="936" y="1768" on="1"/>
        <pt x="1089" y="1768" on="1"/>
        <pt x="610" y="0" on="1"/>
        <pt x="457" y="0" on="1"/>
      </contour>
      <contour>
        <pt x="297" y="1728" on="1"/>
        <pt x="397" y="1728" on="1"/>
        <pt x="397" y="482" on="1"/>
        <pt x="250" y="482" on="1"/>
        <pt x="250" y="1533" on="1"/>
        <pt x="195" y="1476" on="0"/>
        <pt x="95" y="1476" on="1"/>
        <pt x="95" y="1572" on="1"/>
        <pt x="156" y="1579" on="0"/>
        <pt x="273" y="1663" on="0"/>
      </contour>
      <contour>
        <pt x="1092" y="834" on="1"/>
        <pt x="1092" y="1076" on="0"/>
        <pt x="1168" y="1231" on="0"/>
        <pt x="1238" y="1252" on="1"/>
        <pt x="1278" y="1264" on="0"/>
        <pt x="1332" y="1264" on="1"/>
        <pt x="1538" y="1264" on="0"/>
        <pt x="1538" y="919" on="1"/>
        <pt x="1538" y="746" on="0"/>
        <pt x="1448" y="576" on="1"/>
        <pt x="1410" y="502" on="0"/>
        <pt x="1370" y="432" on="1"/>
        <pt x="1270" y="255" on="0"/>
        <pt x="1245" y="109" on="1"/>
        <pt x="1522" y="109" on="1"/>
        <pt x="1522" y="1" on="1"/>
        <pt x="1096" y="1" on="1"/>
        <pt x="1096" y="66" on="1"/>
        <pt x="1096" y="119" on="0"/>
        <pt x="1211" y="410" on="0"/>
        <pt x="1330" y="656" on="0"/>
        <pt x="1346" y="675" on="1"/>
        <pt x="1399" y="770" on="0"/>
        <pt x="1399" y="1142" on="0"/>
        <pt x="1319" y="1142" on="1"/>
        <pt x="1293" y="1142" on="0"/>
        <pt x="1276" y="1127" on="1"/>
        <pt x="1235" y="1091" on="0"/>
        <pt x="1235" y="920" on="1"/>
        <pt x="1235" y="757" on="1"/>
        <pt x="1092" y="757" on="1"/>
      </contour>
    </TTGlyph>
    <TTGlyph name="onequarter" xMin="95" yMin="0" xMax="1406" yMax="1768">
      <contour>
        <pt x="936" y="1768" on="1"/>
        <pt x="1089" y="1768" on="1"/>
        <pt x="610" y="0" on="1"/>
        <pt x="457" y="0" on="1"/>
      </contour>
      <contour>
        <pt x="297" y="1728" on="1"/>
        <pt x="397" y="1728" on="1"/>
        <pt x="397" y="482" on="1"/>
        <pt x="250" y="482" on="1"/>
        <pt x="250" y="1533" on="1"/>
        <pt x="195" y="1476" on="0"/>
        <pt x="95" y="1476" on="1"/>
        <pt x="95" y="1572" on="1"/>
        <pt x="156" y="1579" on="0"/>
        <pt x="273" y="1663" on="0"/>
      </contour>
      <contour>
        <pt x="1160" y="1147" on="1"/>
        <pt x="1316" y="1147" on="1"/>
        <pt x="1316" y="325" on="1"/>
        <pt x="1406" y="325" on="1"/>
        <pt x="1406" y="219" on="1"/>
        <pt x="1316" y="219" on="1"/>
        <pt x="1316" y="0" on="1"/>
        <pt x="1190" y="0" on="1"/>
        <pt x="1190" y="219" on="1"/>
        <pt x="909" y="219" on="1"/>
        <pt x="909" y="310" on="1"/>
      </contour>
      <contour>
        <pt x="1190" y="325" on="1"/>
        <pt x="1190" y="928" on="1"/>
        <pt x="1028" y="325" on="1"/>
      </contour>
    </TTGlyph>
    <TTGlyph name="ordfeminine" xMin="201" yMin="382" xMax="734" yMax="1608">
      <contour>
        <pt x="216" y="1246" on="1"/>
        <pt x="216" y="1463" on="0"/>
        <pt x="351" y="1608" on="0"/>
        <pt x="480" y="1608" on="1"/>
        <pt x="661" y="1608" on="0"/>
        <pt x="707" y="1460" on="1"/>
        <pt x="734" y="1373" on="0"/>
        <pt x="734" y="1210" on="1"/>
        <pt x="734" y="393" on="1"/>
        <pt x="570" y="393" on="1"/>
        <pt x="570" y="493" on="1"/>
        <pt x="559" y="454" on="0"/>
        <pt x="470" y="382" on="0"/>
        <pt x="406" y="382" on="1"/>
        <pt x="203" y="382" on="0"/>
        <pt x="201" y="700" on="1"/>
        <pt x="201" y="818" on="1"/>
        <pt x="201" y="918" on="0"/>
        <pt x="309" y="1065" on="0"/>
        <pt x="524" y="1146" on="1"/>
        <pt x="562" y="1160" on="0"/>
        <pt x="569" y="1163" on="1"/>
        <pt x="569" y="1231" on="1"/>
        <pt x="569" y="1372" on="0"/>
        <pt x="557" y="1412" on="1"/>
        <pt x="539" y="1471" on="0"/>
        <pt x="416" y="1471" on="0"/>
        <pt x="379" y="1378" on="0"/>
        <pt x="379" y="1255" on="1"/>
        <pt x="379" y="1211" on="1"/>
        <pt x="216" y="1211" on="1"/>
      </contour>
      <contour>
        <pt x="569" y="598" on="1"/>
        <pt x="569" y="1051" on="1"/>
        <pt x="499" y="1020" on="0"/>
        <pt x="433" y="984" on="0"/>
        <pt x="380" y="930" on="0"/>
        <pt x="366" y="867" on="0"/>
        <pt x="366" y="814" on="1"/>
        <pt x="366" y="706" on="1"/>
        <pt x="366" y="601" on="0"/>
        <pt x="403" y="515" on="0"/>
        <pt x="493" y="515" on="0"/>
        <pt x="557" y="567" on="0"/>
      </contour>
    </TTGlyph>
    <TTGlyph name="ordmasculine" xMin="200" yMin="377" xMax="737" yMax="1607">
      <contour>
        <pt x="200" y="1213" on="1"/>
        <pt x="200" y="1506" on="0"/>
        <pt x="336" y="1578" on="1"/>
        <pt x="390" y="1607" on="0"/>
        <pt x="464" y="1607" on="1"/>
        <pt x="657" y="1607" on="0"/>
        <pt x="706" y="1455" on="1"/>
        <pt x="737" y="1360" on="0"/>
        <pt x="737" y="1213" on="1"/>
        <pt x="737" y="789" on="1"/>
        <pt x="737" y="538" on="0"/>
        <pt x="600" y="377" on="0"/>
        <pt x="471" y="377" on="1"/>
        <pt x="282" y="377" on="0"/>
        <pt x="230" y="537" on="1"/>
        <pt x="200" y="631" on="0"/>
        <pt x="200" y="789" on="1"/>
      </contour>
      <contour>
        <pt x="571" y="1246" on="1"/>
        <pt x="571" y="1359" on="0"/>
        <pt x="530" y="1470" on="0"/>
        <pt x="408" y="1470" on="0"/>
        <pt x="366" y="1360" on="0"/>
        <pt x="366" y="1246" on="1"/>
        <pt x="366" y="743" on="1"/>
        <pt x="366" y="627" on="0"/>
        <pt x="409" y="514" on="0"/>
        <pt x="471" y="514" on="1"/>
        <pt x="548" y="514" on="0"/>
        <pt x="564" y="620" on="1"/>
        <pt x="571" y="663" on="0"/>
        <pt x="571" y="727" on="1"/>
        <pt x="571" y="735" on="0"/>
        <pt x="571" y="743" on="1"/>
      </contour>
    </TTGlyph>
    <TTGlyph name="oslash" xMin="124" yMin="-173" xMax="790" yMax="1672">
      <contour>
        <pt x="557" y="1280" on="1"/>
        <pt x="511" y="1336" on="0"/>
        <pt x="459" y="1347" on="1"/>
        <pt x="377" y="1347" on="0"/>
        <pt x="330" y="1201" on="0"/>
        <pt x="330" y="1068" on="1"/>
        <pt x="330" y="469" on="1"/>
      </contour>
      <contour>
        <pt x="364" y="205" on="1"/>
        <pt x="393" y="153" on="0"/>
        <pt x="537" y="153" on="0"/>
        <pt x="584" y="302" on="0"/>
        <pt x="584" y="439" on="1"/>
        <pt x="584" y="988" on="1"/>
      </contour>
      <contour>
        <pt x="219" y="72" on="1"/>
        <pt x="124" y="179" on="0"/>
        <pt x="124" y="496" on="1"/>
        <pt x="124" y="1027" on="1"/>
        <pt x="124" y="1392" on="0"/>
        <pt x="292" y="1482" on="1"/>
        <pt x="360" y="1518" on="0"/>
        <pt x="549" y="1518" on="0"/>
        <pt x="615" y="1486" on="1"/>
        <pt x="667" y="1672" on="1"/>
        <pt x="768" y="1644" on="1"/>
        <pt x="704" y="1415" on="1"/>
        <pt x="790" y="1303" on="0"/>
        <pt x="790" y="1027" on="1"/>
        <pt x="790" y="496" on="1"/>
        <pt x="790" y="180" on="0"/>
        <pt x="620" y="-18" on="0"/>
        <pt x="459" y="-18" on="1"/>
        <pt x="372" y="-18" on="0"/>
        <pt x="309" y="9" on="1"/>
        <pt x="258" y="-173" on="1"/>
        <pt x="158" y="-145" on="1"/>
      </contour>
    </TTGlyph>
    <TTGlyph name="otilde" xMin="124" yMin="-18" xMax="790" yMax="1850">
      <component glyphName="tilde" x="-101" y="1200" flags="0x1004"/>
      <component glyphName="o" x="0" y="0" flags="0x1004"/>
    </TTGlyph>
    <TTGlyph name="p" xMin="147" yMin="-274" xMax="815" yMax="1513">
      <contour>
        <pt x="352" y="1375" on="1"/>
        <pt x="380" y="1444" on="0"/>
        <pt x="494" y="1513" on="0"/>
        <pt x="558" y="1513" on="1"/>
        <pt x="737" y="1513" on="0"/>
        <pt x="785" y="1327" on="1"/>
        <pt x="815" y="1211" on="0"/>
        <pt x="815" y="1030" on="1"/>
        <pt x="815" y="487" on="1"/>
        <pt x="815" y="188" on="0"/>
        <pt x="664" y="-18" on="0"/>
        <pt x="527" y="-18" on="1"/>
        <pt x="472" y="-18" on="0"/>
        <pt x="378" y="50" on="0"/>
        <pt x="352" y="100" on="1"/>
        <pt x="352" y="-274" on="1"/>
        <pt x="147" y="-274" on="1"/>
        <pt x="147" y="1500" on="1"/>
        <pt x="352" y="1500" on="1"/>
      </contour>
      <contour>
        <pt x="609" y="1066" on="1"/>
        <pt x="609" y="1076" on="0"/>
        <pt x="609" y="1094" on="0"/>
        <pt x="609" y="1110" on="0"/>
        <pt x="609" y="1124" on="0"/>
        <pt x="609" y="1130" on="1"/>
        <pt x="609" y="1136" on="0"/>
        <pt x="609" y="1141" on="1"/>
        <pt x="609" y="1218" on="0"/>
        <pt x="596" y="1253" on="1"/>
        <pt x="582" y="1292" on="0"/>
        <pt x="569" y="1310" on="1"/>
        <pt x="543" y="1346" on="0"/>
        <pt x="444" y="1346" on="0"/>
        <pt x="416" y="1327" on="1"/>
        <pt x="352" y="1284" on="0"/>
        <pt x="352" y="1066" on="1"/>
        <pt x="352" y="451" on="1"/>
        <pt x="352" y="292" on="0"/>
        <pt x="407" y="154" on="0"/>
        <pt x="558" y="154" on="0"/>
        <pt x="609" y="294" on="0"/>
        <pt x="609" y="459" on="1"/>
      </contour>
    </TTGlyph>
    <TTGlyph name="paragraph" xMin="135" yMin="0" xMax="957" yMax="1761">
      <contour>
        <pt x="654" y="1761" on="1"/>
        <pt x="957" y="1761" on="1"/>
        <pt x="957" y="0" on="1"/>
        <pt x="779" y="0" on="1"/>
        <pt x="779" y="1575" on="1"/>
        <pt x="636" y="1575" on="1"/>
        <pt x="636" y="0" on="1"/>
        <pt x="458" y="0" on="1"/>
        <pt x="458" y="1135" on="1"/>
        <pt x="135" y="1171" on="0"/>
        <pt x="135" y="1456" on="1"/>
        <pt x="135" y="1547" on="0"/>
        <pt x="189" y="1664" on="0"/>
        <pt x="254" y="1699" on="1"/>
        <pt x="369" y="1761" on="0"/>
      </contour>
    </TTGlyph>
    <TTGlyph name="parenleft" xMin="131" yMin="-117" xMax="475" yMax="1811">
      <contour>
        <pt x="131" y="1391" on="1"/>
        <pt x="131" y="1591" on="0"/>
        <pt x="172" y="1683" on="1"/>
        <pt x="214" y="1777" on="0"/>
        <pt x="336" y="1800" on="1"/>
        <pt x="390" y="1810" on="0"/>
        <pt x="475" y="1811" on="1"/>
        <pt x="475" y="1656" on="1"/>
        <pt x="405" y="1656" on="0"/>
        <pt x="357" y="1621" on="0"/>
        <pt x="336" y="1525" on="0"/>
        <pt x="336" y="1385" on="1"/>
        <pt x="336" y="309" on="1"/>
        <pt x="336" y="88" on="0"/>
        <pt x="405" y="38" on="0"/>
        <pt x="475" y="38" on="1"/>
        <pt x="475" y="-117" on="1"/>
        <pt x="318" y="-116" on="0"/>
        <pt x="240" y="-70" on="1"/>
        <pt x="132" y="-5" on="0"/>
        <pt x="131" y="313" on="1"/>
        <pt x="131" y="313" on="0"/>
      </contour>
    </TTGlyph>
    <TTGlyph name="parenright" xMin="92" yMin="-117" xMax="437" yMax="1811">
      <contour>
        <pt x="92" y="1656" on="1"/>
        <pt x="92" y="1811" on="1"/>
        <pt x="198" y="1811" on="0"/>
        <pt x="321" y="1780" on="0"/>
        <pt x="406" y="1684" on="0"/>
        <pt x="437" y="1520" on="0"/>
        <pt x="437" y="1381" on="1"/>
        <pt x="437" y="313" on="1"/>
        <pt x="437" y="174" on="0"/>
        <pt x="406" y="10" on="0"/>
        <pt x="321" y="-86" on="0"/>
        <pt x="198" y="-117" on="0"/>
        <pt x="92" y="-117" on="1"/>
        <pt x="92" y="38" on="1"/>
        <pt x="162" y="38" on="0"/>
        <pt x="210" y="73" on="0"/>
        <pt x="231" y="170" on="0"/>
        <pt x="231" y="309" on="1"/>
        <pt x="231" y="1385" on="1"/>
        <pt x="231" y="1606" on="0"/>
        <pt x="162" y="1656" on="0"/>
      </contour>
    </TTGlyph>
    <TTGlyph name="partialdiff" xMin="162" yMin="-21" xMax="869" yMax="1652">
      <contour>
        <pt x="569" y="1513" on="0"/>
        <pt x="523" y="1520" on="0"/>
        <pt x="413" y="1520" on="0"/>
        <pt x="283" y="1486" on="1"/>
        <pt x="259" y="1607" on="1"/>
        <pt x="425" y="1652" on="0"/>
        <pt x="598" y="1652" on="0"/>
        <pt x="642" y="1643" on="1"/>
        <pt x="805" y="1610" on="0"/>
        <pt x="848" y="1460" on="1"/>
        <pt x="869" y="1389" on="0"/>
        <pt x="869" y="1217" on="0"/>
        <pt x="850" y="1099" on="1"/>
        <pt x="750" y="246" on="1"/>
        <pt x="738" y="143" on="0"/>
        <pt x="605" y="-21" on="0"/>
        <pt x="446" y="-21" on="1"/>
        <pt x="162" y="-21" on="0"/>
        <pt x="162" y="310" on="1"/>
        <pt x="162" y="563" on="0"/>
        <pt x="246" y="1019" on="0"/>
        <pt x="378" y="1069" on="1"/>
        <pt x="424" y="1086" on="0"/>
        <pt x="498" y="1086" on="0"/>
        <pt x="521" y="1085" on="0"/>
        <pt x="546" y="1080" on="0"/>
        <pt x="560" y="1078" on="0"/>
        <pt x="591" y="1068" on="0"/>
        <pt x="604" y="1064" on="0"/>
        <pt x="645" y="1050" on="0"/>
        <pt x="654" y="1047" on="1"/>
        <pt x="684" y="1241" on="0"/>
        <pt x="684" y="1340" on="0"/>
        <pt x="680" y="1382" on="0"/>
        <pt x="671" y="1420" on="0"/>
        <pt x="656" y="1452" on="0"/>
        <pt x="634" y="1479" on="0"/>
        <pt x="605" y="1499" on="0"/>
      </contour>
      <contour>
        <pt x="351" y="307" on="1"/>
        <pt x="350" y="296" on="1"/>
        <pt x="350" y="144" on="0"/>
        <pt x="454" y="144" on="1"/>
        <pt x="514" y="144" on="0"/>
        <pt x="538" y="173" on="0"/>
        <pt x="565" y="220" on="0"/>
        <pt x="571" y="289" on="1"/>
        <pt x="632" y="899" on="1"/>
        <pt x="567" y="940" on="0"/>
        <pt x="516" y="940" on="1"/>
        <pt x="411" y="940" on="0"/>
        <pt x="394" y="765" on="1"/>
        <pt x="353" y="345" on="1"/>
        <pt x="351" y="320" on="1"/>
      </contour>
    </TTGlyph>
    <TTGlyph name="percent" xMin="156" yMin="-20" xMax="2022" yMax="1782">
      <contour>
        <pt x="1360" y="1760" on="1"/>
        <pt x="1531" y="1760" on="1"/>
        <pt x="831" y="0" on="1"/>
        <pt x="652" y="0" on="1"/>
      </contour>
      <contour>
        <pt x="591" y="1433" on="1"/>
        <pt x="591" y="1541" on="0"/>
        <pt x="539" y="1621" on="0"/>
        <pt x="393" y="1621" on="0"/>
        <pt x="341" y="1540" on="0"/>
        <pt x="341" y="1433" on="1"/>
        <pt x="341" y="937" on="1"/>
        <pt x="341" y="827" on="0"/>
        <pt x="394" y="742" on="0"/>
        <pt x="538" y="742" on="0"/>
        <pt x="591" y="827" on="0"/>
        <pt x="591" y="937" on="1"/>
      </contour>
      <contour>
        <pt x="156" y="1364" on="1"/>
        <pt x="156" y="1598" on="0"/>
        <pt x="292" y="1782" on="0"/>
        <pt x="641" y="1782" on="0"/>
        <pt x="777" y="1598" on="0"/>
        <pt x="777" y="1364" on="1"/>
        <pt x="777" y="1009" on="1"/>
        <pt x="777" y="771" on="0"/>
        <pt x="639" y="581" on="0"/>
        <pt x="294" y="581" on="0"/>
        <pt x="156" y="771" on="0"/>
        <pt x="156" y="1009" on="1"/>
      </contour>
      <contour>
        <pt x="1401" y="763" on="1"/>
        <pt x="1401" y="997" on="0"/>
        <pt x="1537" y="1181" on="0"/>
        <pt x="1886" y="1181" on="0"/>
        <pt x="2022" y="997" on="0"/>
        <pt x="2022" y="763" on="1"/>
        <pt x="2022" y="408" on="1"/>
        <pt x="2022" y="170" on="0"/>
        <pt x="1884" y="-20" on="0"/>
        <pt x="1539" y="-20" on="0"/>
        <pt x="1401" y="170" on="0"/>
        <pt x="1401" y="408" on="1"/>
      </contour>
      <contour>
        <pt x="1837" y="832" on="1"/>
        <pt x="1837" y="940" on="0"/>
        <pt x="1785" y="1020" on="0"/>
        <pt x="1639" y="1020" on="0"/>
        <pt x="1587" y="939" on="0"/>
        <pt x="1587" y="832" on="1"/>
        <pt x="1587" y="336" on="1"/>
        <pt x="1587" y="226" on="0"/>
        <pt x="1640" y="141" on="0"/>
        <pt x="1783" y="141" on="0"/>
        <pt x="1837" y="226" on="0"/>
        <pt x="1837" y="336" on="1"/>
      </contour>
    </TTGlyph>
    <TTGlyph name="period" xMin="171" yMin="0" xMax="346" yMax="198">
      <contour>
        <pt x="171" y="198" on="1"/>
        <pt x="346" y="198" on="1"/>
        <pt x="346" y="0" on="1"/>
        <pt x="171" y="0" on="1"/>
      </contour>
    </TTGlyph>
    <TTGlyph name="periodcentered" xMin="148" yMin="769" xMax="348" yMax="977">
      <contour>
        <pt x="148" y="977" on="1"/>
        <pt x="348" y="977" on="1"/>
        <pt x="348" y="769" on="1"/>
        <pt x="148" y="769" on="1"/>
      </contour>
    </TTGlyph>
    <TTGlyph name="perthousand" xMin="156" yMin="-20" xMax="2886" yMax="1782">
      <contour>
        <pt x="1360" y="1760" on="1"/>
        <pt x="1531" y="1760" on="1"/>
        <pt x="831" y="0" on="1"/>
        <pt x="652" y="0" on="1"/>
      </contour>
      <contour>
        <pt x="591" y="1433" on="1"/>
        <pt x="591" y="1541" on="0"/>
        <pt x="539" y="1621" on="0"/>
        <pt x="393" y="1621" on="0"/>
        <pt x="341" y="1540" on="0"/>
        <pt x="341" y="1433" on="1"/>
        <pt x="341" y="937" on="1"/>
        <pt x="341" y="827" on="0"/>
        <pt x="394" y="742" on="0"/>
        <pt x="538" y="742" on="0"/>
        <pt x="591" y="827" on="0"/>
        <pt x="591" y="937" on="1"/>
      </contour>
      <contour>
        <pt x="156" y="1364" on="1"/>
        <pt x="156" y="1598" on="0"/>
        <pt x="292" y="1782" on="0"/>
        <pt x="641" y="1782" on="0"/>
        <pt x="777" y="1598" on="0"/>
        <pt x="777" y="1364" on="1"/>
        <pt x="777" y="1009" on="1"/>
        <pt x="777" y="771" on="0"/>
        <pt x="639" y="581" on="0"/>
        <pt x="294" y="581" on="0"/>
        <pt x="156" y="771" on="0"/>
        <pt x="156" y="1009" on="1"/>
      </contour>
      <contour>
        <pt x="1854" y="832" on="1"/>
        <pt x="1854" y="940" on="0"/>
        <pt x="1802" y="1020" on="0"/>
        <pt x="1656" y="1020" on="0"/>
        <pt x="1604" y="939" on="0"/>
        <pt x="1604" y="832" on="1"/>
        <pt x="1604" y="336" on="1"/>
        <pt x="1604" y="226" on="0"/>
        <pt x="1657" y="141" on="0"/>
        <pt x="1801" y="141" on="0"/>
        <pt x="1854" y="226" on="0"/>
        <pt x="1854" y="336" on="1"/>
      </contour>
      <contour>
        <pt x="1419" y="763" on="1"/>
        <pt x="1419" y="997" on="0"/>
        <pt x="1555" y="1181" on="0"/>
        <pt x="1904" y="1181" on="0"/>
        <pt x="2040" y="997" on="0"/>
        <pt x="2040" y="763" on="1"/>
        <pt x="2040" y="408" on="1"/>
        <pt x="2040" y="170" on="0"/>
        <pt x="1902" y="-20" on="0"/>
        <pt x="1557" y="-20" on="0"/>
        <pt x="1419" y="170" on="0"/>
        <pt x="1419" y="408" on="1"/>
      </contour>
      <contour>
        <pt x="2265" y="763" on="1"/>
        <pt x="2265" y="997" on="0"/>
        <pt x="2401" y="1181" on="0"/>
        <pt x="2750" y="1181" on="0"/>
        <pt x="2886" y="997" on="0"/>
        <pt x="2886" y="763" on="1"/>
        <pt x="2886" y="408" on="1"/>
        <pt x="2886" y="170" on="0"/>
        <pt x="2748" y="-20" on="0"/>
        <pt x="2403" y="-20" on="0"/>
        <pt x="2265" y="170" on="0"/>
        <pt x="2265" y="408" on="1"/>
      </contour>
      <contour>
        <pt x="2701" y="832" on="1"/>
        <pt x="2701" y="940" on="0"/>
        <pt x="2649" y="1020" on="0"/>
        <pt x="2503" y="1020" on="0"/>
        <pt x="2451" y="939" on="0"/>
        <pt x="2451" y="832" on="1"/>
        <pt x="2451" y="336" on="1"/>
        <pt x="2451" y="226" on="0"/>
        <pt x="2504" y="141" on="0"/>
        <pt x="2648" y="141" on="0"/>
        <pt x="2701" y="226" on="0"/>
        <pt x="2701" y="336" on="1"/>
      </contour>
    </TTGlyph>
    <TTGlyph name="plus" xMin="103" yMin="501" xMax="703" yMax="1137">
      <contour>
        <pt x="327" y="1137" on="1"/>
        <pt x="476" y="1137" on="1"/>
        <pt x="476" y="891" on="1"/>
        <pt x="703" y="891" on="1"/>
        <pt x="703" y="751" on="1"/>
        <pt x="476" y="751" on="1"/>
        <pt x="476" y="501" on="1"/>
        <pt x="327" y="501" on="1"/>
        <pt x="327" y="751" on="1"/>
        <pt x="103" y="751" on="1"/>
        <pt x="103" y="891" on="1"/>
        <pt x="327" y="891" on="1"/>
      </contour>
    </TTGlyph>
    <TTGlyph name="plusminus" xMin="129" yMin="188" xMax="729" yMax="1152">
      <contour>
        <pt x="353" y="1152" on="1"/>
        <pt x="501" y="1152" on="1"/>
        <pt x="501" y="906" on="1"/>
        <pt x="729" y="906" on="1"/>
        <pt x="729" y="766" on="1"/>
        <pt x="501" y="766" on="1"/>
        <pt x="501" y="516" on="1"/>
        <pt x="353" y="516" on="1"/>
        <pt x="353" y="766" on="1"/>
        <pt x="129" y="766" on="1"/>
        <pt x="129" y="906" on="1"/>
        <pt x="353" y="906" on="1"/>
      </contour>
      <contour>
        <pt x="165" y="337" on="1"/>
        <pt x="681" y="337" on="1"/>
        <pt x="681" y="188" on="1"/>
        <pt x="165" y="188" on="1"/>
      </contour>
    </TTGlyph>
    <TTGlyph name="product" xMin="146" yMin="0" xMax="835" yMax="1760">
      <contour>
        <pt x="146" y="1760" on="1"/>
        <pt x="835" y="1760" on="1"/>
        <pt x="835" y="0" on="1"/>
        <pt x="631" y="0" on="1"/>
        <pt x="631" y="1598" on="1"/>
        <pt x="350" y="1598" on="1"/>
        <pt x="350" y="0" on="1"/>
        <pt x="146" y="0" on="1"/>
      </contour>
    </TTGlyph>
    <TTGlyph name="q" xMin="124" yMin="-274" xMax="790" yMax="1513">
      <contour>
        <pt x="380" y="1513" on="1"/>
        <pt x="529" y="1513" on="0"/>
        <pt x="585" y="1383" on="1"/>
        <pt x="585" y="1500" on="1"/>
        <pt x="790" y="1500" on="1"/>
        <pt x="790" y="-274" on="1"/>
        <pt x="585" y="-274" on="1"/>
        <pt x="585" y="104" on="1"/>
        <pt x="563" y="52" on="0"/>
        <pt x="468" y="-18" on="0"/>
        <pt x="344" y="-18" on="0"/>
        <pt x="292" y="7" on="1"/>
        <pt x="195" y="54" on="0"/>
        <pt x="124" y="296" on="0"/>
        <pt x="124" y="480" on="1"/>
        <pt x="124" y="1030" on="1"/>
        <pt x="124" y="1312" on="0"/>
        <pt x="198" y="1422" on="1"/>
        <pt x="259" y="1512" on="0"/>
      </contour>
      <contour>
        <pt x="584" y="1050" on="1"/>
        <pt x="584" y="1209" on="0"/>
        <pt x="528" y="1346" on="0"/>
        <pt x="378" y="1346" on="0"/>
        <pt x="329" y="1209" on="0"/>
        <pt x="329" y="1044" on="1"/>
        <pt x="329" y="437" on="1"/>
        <pt x="329" y="257" on="0"/>
        <pt x="385" y="154" on="0"/>
        <pt x="494" y="154" on="0"/>
        <pt x="522" y="174" on="1"/>
        <pt x="584" y="218" on="0"/>
        <pt x="584" y="435" on="1"/>
      </contour>
    </TTGlyph>
    <TTGlyph name="question" xMin="140" yMin="1" xMax="716" yMax="1782">
      <contour>
        <pt x="140" y="1370" on="1"/>
        <pt x="140" y="1529" on="0"/>
        <pt x="160" y="1585" on="1"/>
        <pt x="197" y="1691" on="0"/>
        <pt x="319" y="1782" on="0"/>
        <pt x="427" y="1782" on="1"/>
        <pt x="594" y="1782" on="0"/>
        <pt x="654" y="1685" on="1"/>
        <pt x="695" y="1617" on="0"/>
        <pt x="716" y="1431" on="0"/>
        <pt x="716" y="1190" on="0"/>
        <pt x="708" y="1112" on="1"/>
        <pt x="690" y="938" on="0"/>
        <pt x="558" y="758" on="0"/>
        <pt x="418" y="718" on="1"/>
        <pt x="418" y="494" on="1"/>
        <pt x="239" y="494" on="1"/>
        <pt x="239" y="810" on="1"/>
        <pt x="326" y="836" on="0"/>
        <pt x="395" y="884" on="0"/>
        <pt x="434" y="915" on="0"/>
        <pt x="449" y="941" on="1"/>
        <pt x="502" y="1033" on="0"/>
        <pt x="507" y="1192" on="1"/>
        <pt x="509" y="1262" on="0"/>
        <pt x="509" y="1513" on="0"/>
        <pt x="485" y="1604" on="0"/>
        <pt x="370" y="1604" on="0"/>
        <pt x="343" y="1510" on="0"/>
        <pt x="343" y="1356" on="1"/>
        <pt x="343" y="1160" on="1"/>
        <pt x="140" y="1160" on="1"/>
      </contour>
      <contour>
        <pt x="242" y="299" on="1"/>
        <pt x="419" y="299" on="1"/>
        <pt x="419" y="1" on="1"/>
        <pt x="242" y="1" on="1"/>
      </contour>
    </TTGlyph>
    <TTGlyph name="questiondown" xMin="208" yMin="-286" xMax="784" yMax="1495">
      <component glyphName="question" x="924" y="1496" scale="-1.0" flags="0x1004"/>
    </TTGlyph>
    <TTGlyph name="quotedbl" xMin="220" yMin="1125" xMax="734" yMax="1761">
      <contour>
        <pt x="535" y="1761" on="1"/>
        <pt x="734" y="1761" on="1"/>
        <pt x="669" y="1125" on="1"/>
        <pt x="599" y="1125" on="1"/>
      </contour>
      <contour>
        <pt x="220" y="1761" on="1"/>
        <pt x="419" y="1761" on="1"/>
        <pt x="354" y="1125" on="1"/>
        <pt x="284" y="1125" on="1"/>
      </contour>
    </TTGlyph>
    <TTGlyph name="quotedblbase" xMin="166" yMin="-401" xMax="924" yMax="233">
      <contour>
        <pt x="622" y="233" on="1"/>
        <pt x="924" y="233" on="1"/>
        <pt x="924" y="9" on="1"/>
        <pt x="810" y="-401" on="1"/>
        <pt x="677" y="-401" on="1"/>
        <pt x="763" y="0" on="1"/>
        <pt x="622" y="0" on="1"/>
      </contour>
      <contour>
        <pt x="166" y="233" on="1"/>
        <pt x="468" y="233" on="1"/>
        <pt x="468" y="9" on="1"/>
        <pt x="353" y="-401" on="1"/>
        <pt x="221" y="-401" on="1"/>
        <pt x="307" y="0" on="1"/>
        <pt x="166" y="0" on="1"/>
      </contour>
    </TTGlyph>
    <TTGlyph name="quotedblleft" xMin="159" yMin="1145" xMax="917" yMax="1779">
      <contour>
        <pt x="730" y="1779" on="1"/>
        <pt x="862" y="1779" on="1"/>
        <pt x="776" y="1378" on="1"/>
        <pt x="917" y="1378" on="1"/>
        <pt x="917" y="1145" on="1"/>
        <pt x="615" y="1145" on="1"/>
        <pt x="615" y="1369" on="1"/>
      </contour>
      <contour>
        <pt x="273" y="1779" on="1"/>
        <pt x="406" y="1779" on="1"/>
        <pt x="320" y="1378" on="1"/>
        <pt x="461" y="1378" on="1"/>
        <pt x="461" y="1145" on="1"/>
        <pt x="159" y="1145" on="1"/>
        <pt x="159" y="1369" on="1"/>
      </contour>
    </TTGlyph>
    <TTGlyph name="quotedblright" xMin="173" yMin="1145" xMax="932" yMax="1779">
      <contour>
        <pt x="630" y="1779" on="1"/>
        <pt x="932" y="1779" on="1"/>
        <pt x="932" y="1555" on="1"/>
        <pt x="817" y="1145" on="1"/>
        <pt x="684" y="1145" on="1"/>
        <pt x="770" y="1546" on="1"/>
        <pt x="630" y="1546" on="1"/>
      </contour>
      <contour>
        <pt x="173" y="1779" on="1"/>
        <pt x="475" y="1779" on="1"/>
        <pt x="475" y="1555" on="1"/>
        <pt x="361" y="1145" on="1"/>
        <pt x="228" y="1145" on="1"/>
        <pt x="314" y="1546" on="1"/>
        <pt x="173" y="1546" on="1"/>
      </contour>
    </TTGlyph>
    <TTGlyph name="quoteleft" xMin="144" yMin="1116" xMax="453" yMax="1779">
      <contour>
        <pt x="268" y="1779" on="1"/>
        <pt x="397" y="1779" on="1"/>
        <pt x="305" y="1356" on="1"/>
        <pt x="453" y="1356" on="1"/>
        <pt x="453" y="1116" on="1"/>
        <pt x="144" y="1116" on="1"/>
        <pt x="144" y="1347" on="1"/>
      </contour>
    </TTGlyph>
    <TTGlyph name="quoteright" xMin="160" yMin="1116" xMax="469" yMax="1779">
      <contour>
        <pt x="160" y="1779" on="1"/>
        <pt x="469" y="1779" on="1"/>
        <pt x="469" y="1548" on="1"/>
        <pt x="344" y="1116" on="1"/>
        <pt x="215" y="1116" on="1"/>
        <pt x="307" y="1539" on="1"/>
        <pt x="160" y="1539" on="1"/>
      </contour>
    </TTGlyph>
    <TTGlyph name="quotesinglbase" xMin="97" yMin="-382" xMax="399" yMax="232">
      <contour>
        <pt x="97" y="232" on="1"/>
        <pt x="399" y="232" on="1"/>
        <pt x="399" y="9" on="1"/>
        <pt x="285" y="-382" on="1"/>
        <pt x="152" y="-382" on="1"/>
        <pt x="238" y="0" on="1"/>
        <pt x="97" y="0" on="1"/>
      </contour>
    </TTGlyph>
    <TTGlyph name="quotesingle" xMin="112" yMin="1125" xMax="309" yMax="1761">
      <contour>
        <pt x="112" y="1761" on="1"/>
        <pt x="309" y="1761" on="1"/>
        <pt x="244" y="1125" on="1"/>
        <pt x="172" y="1125" on="1"/>
      </contour>
    </TTGlyph>
    <TTGlyph name="r" xMin="147" yMin="0" xMax="612" yMax="1518">
      <contour>
        <pt x="608" y="1518" on="1"/>
        <pt x="612" y="1518" on="0"/>
        <pt x="612" y="1388" on="1"/>
        <pt x="611" y="1344" on="1"/>
        <pt x="431" y="1344" on="0"/>
        <pt x="353" y="1219" on="1"/>
        <pt x="353" y="0" on="1"/>
        <pt x="147" y="0" on="1"/>
        <pt x="147" y="1500" on="1"/>
        <pt x="353" y="1500" on="1"/>
        <pt x="353" y="1333" on="1"/>
        <pt x="379" y="1421" on="0"/>
        <pt x="510" y="1518" on="0"/>
      </contour>
    </TTGlyph>
    <TTGlyph name="racute" xMin="147" yMin="0" xMax="612" yMax="1921">
      <component glyphName="r" x="0" y="0" flags="0x1004"/>
      <component glyphName="acute" x="72" y="-208" flags="0x1004"/>
    </TTGlyph>
    <TTGlyph name="radical" xMin="99" yMin="0" xMax="1082" yMax="1500">
      <contour>
        <pt x="679" y="1500" on="1"/>
        <pt x="1082" y="1500" on="1"/>
        <pt x="1082" y="1359" on="1"/>
        <pt x="878" y="1359" on="1"/>
        <pt x="617" y="0" on="1"/>
        <pt x="363" y="0" on="1"/>
        <pt x="99" y="741" on="1"/>
        <pt x="328" y="741" on="1"/>
        <pt x="478" y="258" on="1"/>
      </contour>
    </TTGlyph>
    <TTGlyph name="rcaron" xMin="92" yMin="0" xMax="631" yMax="1886">
      <component glyphName="r" x="0" y="0" flags="0x1004"/>
      <component glyphName="caron" x="-123" y="0" flags="0x1004"/>
    </TTGlyph>
    <TTGlyph name="rcommaaccent" xMin="147" yMin="-670" xMax="612" yMax="1518">
      <component glyphName="uni0326" x="7" y="-283" flags="0x1004"/>
      <component glyphName="r" x="0" y="0" flags="0x1004"/>
    </TTGlyph>
    <TTGlyph name="registered" xMin="94" yMin="205" xMax="1408" yMax="1519">
      <contour>
        <pt x="94" y="678" on="0"/>
        <pt x="94" y="1046" on="0"/>
        <pt x="266" y="1347" on="0"/>
        <pt x="567" y="1519" on="0"/>
        <pt x="935" y="1519" on="0"/>
        <pt x="1236" y="1347" on="0"/>
        <pt x="1408" y="1046" on="0"/>
        <pt x="1408" y="678" on="0"/>
        <pt x="1236" y="377" on="0"/>
        <pt x="935" y="205" on="0"/>
        <pt x="567" y="205" on="0"/>
        <pt x="266" y="377" on="0"/>
      </contour>
      <contour>
        <pt x="751" y="1390" on="1"/>
        <pt x="460" y="1390" on="0"/>
        <pt x="318" y="1162" on="1"/>
        <pt x="235" y="1030" on="0"/>
        <pt x="235" y="862" on="1"/>
        <pt x="235" y="600" on="0"/>
        <pt x="420" y="444" on="1"/>
        <pt x="550" y="335" on="0"/>
        <pt x="751" y="334" on="1"/>
        <pt x="993" y="334" on="0"/>
        <pt x="1267" y="646" on="0"/>
        <pt x="1267" y="863" on="1"/>
        <pt x="1267" y="1124" on="0"/>
        <pt x="1082" y="1280" on="1"/>
        <pt x="952" y="1390" on="0"/>
      </contour>
      <contour>
        <pt x="946" y="1073" on="1"/>
        <pt x="946" y="1046" on="1"/>
        <pt x="946" y="975" on="0"/>
        <pt x="926" y="943" on="0"/>
        <pt x="897" y="910" on="0"/>
        <pt x="848" y="899" on="1"/>
        <pt x="893" y="895" on="0"/>
        <pt x="916" y="868" on="1"/>
        <pt x="939" y="840" on="0"/>
        <pt x="939" y="778" on="1"/>
        <pt x="939" y="430" on="1"/>
        <pt x="811" y="430" on="1"/>
        <pt x="811" y="762" on="1"/>
        <pt x="811" y="806" on="0"/>
        <pt x="768" y="848" on="0"/>
        <pt x="699" y="848" on="1"/>
        <pt x="699" y="430" on="1"/>
        <pt x="567" y="430" on="1"/>
        <pt x="567" y="1282" on="1"/>
        <pt x="778" y="1282" on="1"/>
        <pt x="881" y="1282" on="0"/>
        <pt x="946" y="1189" on="0"/>
      </contour>
      <contour>
        <pt x="821" y="991" on="0"/>
        <pt x="825" y="1029" on="0"/>
        <pt x="825" y="1143" on="0"/>
        <pt x="781" y="1184" on="0"/>
        <pt x="700" y="1184" on="1"/>
        <pt x="700" y="945" on="1"/>
        <pt x="746" y="945" on="0"/>
        <pt x="796" y="955" on="0"/>
      </contour>
    </TTGlyph>
    <TTGlyph name="ring" xMin="261" yMin="396" xMax="661" yMax="771">
      <contour>
        <pt x="368" y="396" on="0"/>
        <pt x="261" y="505" on="0"/>
        <pt x="261" y="662" on="0"/>
        <pt x="368" y="771" on="0"/>
        <pt x="554" y="771" on="0"/>
        <pt x="661" y="662" on="0"/>
        <pt x="661" y="505" on="0"/>
        <pt x="554" y="396" on="0"/>
      </contour>
      <contour>
        <pt x="571" y="537" on="0"/>
        <pt x="571" y="631" on="0"/>
        <pt x="513" y="700" on="0"/>
        <pt x="411" y="700" on="0"/>
        <pt x="354" y="631" on="0"/>
        <pt x="354" y="537" on="0"/>
        <pt x="411" y="468" on="0"/>
        <pt x="513" y="468" on="0"/>
      </contour>
    </TTGlyph>
    <TTGlyph name="s" xMin="88" yMin="-20" xMax="745" yMax="1518">
      <contour>
        <pt x="745" y="344" on="1"/>
        <pt x="744" y="-20" on="0"/>
        <pt x="424" y="-20" on="1"/>
        <pt x="262" y="-20" on="0"/>
        <pt x="100" y="186" on="0"/>
        <pt x="100" y="414" on="1"/>
        <pt x="100" y="527" on="1"/>
        <pt x="299" y="527" on="1"/>
        <pt x="299" y="415" on="1"/>
        <pt x="299" y="155" on="0"/>
        <pt x="417" y="155" on="1"/>
        <pt x="482" y="155" on="0"/>
        <pt x="539" y="239" on="0"/>
        <pt x="539" y="343" on="1"/>
        <pt x="539" y="506" on="0"/>
        <pt x="389" y="653" on="1"/>
        <pt x="378" y="664" on="0"/>
        <pt x="296" y="741" on="0"/>
        <pt x="283" y="754" on="1"/>
        <pt x="88" y="940" on="0"/>
        <pt x="88" y="1165" on="1"/>
        <pt x="88" y="1343" on="0"/>
        <pt x="256" y="1518" on="0"/>
        <pt x="411" y="1518" on="1"/>
        <pt x="516" y="1518" on="0"/>
        <pt x="582" y="1475" on="1"/>
        <pt x="720" y="1385" on="0"/>
        <pt x="720" y="1050" on="1"/>
        <pt x="720" y="978" on="1"/>
        <pt x="525" y="978" on="1"/>
        <pt x="525" y="1082" on="1"/>
        <pt x="525" y="1213" on="0"/>
        <pt x="474" y="1342" on="0"/>
        <pt x="350" y="1342" on="0"/>
        <pt x="288" y="1264" on="0"/>
        <pt x="288" y="1171" on="1"/>
        <pt x="288" y="1025" on="0"/>
        <pt x="425" y="889" on="1"/>
        <pt x="533" y="788" on="1"/>
        <pt x="745" y="585" on="0"/>
      </contour>
    </TTGlyph>
    <TTGlyph name="sacute" xMin="88" yMin="-20" xMax="745" yMax="1921">
      <component glyphName="s" x="0" y="0" flags="0x1004"/>
      <component glyphName="acute" x="135" y="-208" flags="0x1004"/>
    </TTGlyph>
    <TTGlyph name="scaron" xMin="88" yMin="-20" xMax="745" yMax="1886">
      <component glyphName="s" x="0" y="0" flags="0x1004"/>
      <component glyphName="caron" x="-61" y="0" flags="0x1004"/>
    </TTGlyph>
    <TTGlyph name="scedilla" xMin="88" yMin="-617" xMax="745" yMax="1518">
      <component glyphName="cedilla" x="-112" y="0" flags="0x1004"/>
      <component glyphName="s" x="0" y="0" flags="0x1004"/>
    </TTGlyph>
    <TTGlyph name="scircumflex" xMin="88" yMin="-20" xMax="745" yMax="1886">
      <component glyphName="s" x="0" y="0" flags="0x1004"/>
      <component glyphName="circumflex" x="-61" y="0" flags="0x1004"/>
    </TTGlyph>
    <TTGlyph name="scommaaccent" xMin="88" yMin="-670" xMax="745" yMax="1518">
      <component glyphName="uni0326" x="122" y="-283" flags="0x1004"/>
      <component glyphName="s" x="0" y="0" flags="0x1004"/>
    </TTGlyph>
    <TTGlyph name="section" xMin="87" yMin="-20" xMax="745" yMax="1782">
      <contour>
        <pt x="88" y="1487" on="1"/>
        <pt x="88" y="1620" on="0"/>
        <pt x="266" y="1782" on="0"/>
        <pt x="550" y="1782" on="0"/>
        <pt x="719" y="1568" on="0"/>
        <pt x="719" y="1393" on="1"/>
        <pt x="719" y="1332" on="1"/>
        <pt x="525" y="1332" on="1"/>
        <pt x="525" y="1418" on="1"/>
        <pt x="525" y="1533" on="0"/>
        <pt x="446" y="1637" on="0"/>
        <pt x="333" y="1637" on="0"/>
        <pt x="268" y="1555" on="0"/>
        <pt x="268" y="1437" on="0"/>
        <pt x="358" y="1304" on="0"/>
        <pt x="425" y="1249" on="1"/>
        <pt x="745" y="998" on="0"/>
        <pt x="745" y="800" on="1"/>
        <pt x="745" y="723" on="0"/>
        <pt x="648" y="634" on="0"/>
        <pt x="586" y="596" on="1"/>
        <pt x="745" y="461" on="0"/>
        <pt x="745" y="281" on="1"/>
        <pt x="745" y="145" on="0"/>
        <pt x="569" y="-20" on="0"/>
        <pt x="275" y="-20" on="0"/>
        <pt x="100" y="164" on="0"/>
        <pt x="100" y="340" on="1"/>
        <pt x="100" y="434" on="1"/>
        <pt x="299" y="434" on="1"/>
        <pt x="299" y="342" on="1"/>
        <pt x="299" y="232" on="0"/>
        <pt x="354" y="125" on="0"/>
        <pt x="426" y="125" on="1"/>
        <pt x="559" y="125" on="0"/>
        <pt x="559" y="279" on="1"/>
        <pt x="559" y="280" on="0"/>
        <pt x="559" y="281" on="1"/>
        <pt x="559" y="282" on="0"/>
        <pt x="559" y="284" on="1"/>
        <pt x="559" y="415" on="0"/>
        <pt x="466" y="509" on="1"/>
        <pt x="418" y="558" on="0"/>
        <pt x="320" y="630" on="1"/>
        <pt x="222" y="700" on="0"/>
        <pt x="180" y="740" on="1"/>
        <pt x="87" y="828" on="0"/>
        <pt x="87" y="950" on="1"/>
        <pt x="87" y="1026" on="0"/>
        <pt x="167" y="1140" on="0"/>
        <pt x="242" y="1172" on="1"/>
        <pt x="173" y="1234" on="0"/>
        <pt x="88" y="1408" on="0"/>
      </contour>
      <contour>
        <pt x="339" y="1074" on="1"/>
        <pt x="338" y="1075" on="1"/>
        <pt x="257" y="1028" on="0"/>
        <pt x="257" y="948" on="1"/>
        <pt x="257" y="900" on="0"/>
        <pt x="362" y="792" on="0"/>
        <pt x="514" y="673" on="1"/>
        <pt x="588" y="723" on="0"/>
        <pt x="588" y="849" on="0"/>
        <pt x="476" y="977" on="0"/>
      </contour>
    </TTGlyph>
    <TTGlyph name="semicolon" xMin="133" yMin="-103" xMax="428" yMax="1234">
      <contour>
        <pt x="143" y="534" on="1"/>
        <pt x="428" y="534" on="1"/>
        <pt x="428" y="291" on="1"/>
        <pt x="314" y="-103" on="1"/>
        <pt x="190" y="-103" on="1"/>
        <pt x="276" y="282" on="1"/>
        <pt x="143" y="282" on="1"/>
      </contour>
      <contour>
        <pt x="133" y="1234" on="1"/>
        <pt x="414" y="1234" on="1"/>
        <pt x="414" y="954" on="1"/>
        <pt x="133" y="954" on="1"/>
      </contour>
    </TTGlyph>
    <TTGlyph name="seven" xMin="113" yMin="1" xMax="815" yMax="1761">
      <contour>
        <pt x="113" y="1761" on="1"/>
        <pt x="815" y="1761" on="1"/>
        <pt x="815" y="1611" on="1"/>
        <pt x="813" y="1595" on="0"/>
        <pt x="701" y="1278" on="0"/>
        <pt x="655" y="1113" on="1"/>
        <pt x="491" y="549" on="0"/>
        <pt x="457" y="1" on="1"/>
        <pt x="236" y="1" on="1"/>
        <pt x="277" y="548" on="0"/>
        <pt x="476" y="1183" on="1"/>
        <pt x="538" y="1391" on="0"/>
        <pt x="614" y="1586" on="0"/>
        <pt x="614" y="1587" on="1"/>
        <pt x="113" y="1587" on="1"/>
      </contour>
    </TTGlyph>
    <TTGlyph name="six" xMin="107" yMin="-20" xMax="821" yMax="1780">
      <contour>
        <pt x="313" y="1016" on="1"/>
        <pt x="378" y="1102" on="0"/>
        <pt x="684" y="1102" on="0"/>
        <pt x="821" y="860" on="0"/>
        <pt x="821" y="569" on="1"/>
        <pt x="821" y="462" on="1"/>
        <pt x="821" y="221" on="0"/>
        <pt x="674" y="-20" on="0"/>
        <pt x="470" y="-20" on="1"/>
        <pt x="222" y="-20" on="0"/>
        <pt x="149" y="190" on="1"/>
        <pt x="107" y="312" on="0"/>
        <pt x="107" y="516" on="1"/>
        <pt x="107" y="1257" on="1"/>
        <pt x="107" y="1542" on="0"/>
        <pt x="268" y="1780" on="0"/>
        <pt x="644" y="1780" on="0"/>
        <pt x="775" y="1563" on="0"/>
        <pt x="777" y="1309" on="1"/>
        <pt x="777" y="1249" on="1"/>
        <pt x="578" y="1249" on="1"/>
        <pt x="578" y="1282" on="1"/>
        <pt x="578" y="1519" on="0"/>
        <pt x="518" y="1603" on="0"/>
        <pt x="368" y="1603" on="0"/>
        <pt x="313" y="1465" on="0"/>
        <pt x="313" y="1262" on="1"/>
      </contour>
      <contour>
        <pt x="618" y="573" on="1"/>
        <pt x="618" y="773" on="0"/>
        <pt x="560" y="926" on="0"/>
        <pt x="476" y="926" on="1"/>
        <pt x="418" y="926" on="0"/>
        <pt x="326" y="878" on="0"/>
        <pt x="313" y="854" on="1"/>
        <pt x="313" y="482" on="1"/>
        <pt x="313" y="306" on="0"/>
        <pt x="379" y="158" on="0"/>
        <pt x="470" y="158" on="1"/>
        <pt x="530" y="158" on="0"/>
        <pt x="560" y="182" on="1"/>
        <pt x="618" y="227" on="0"/>
        <pt x="618" y="440" on="1"/>
      </contour>
    </TTGlyph>
    <TTGlyph name="slash" xMin="87" yMin="0" xMax="709" yMax="1768">
      <contour>
        <pt x="526" y="1768" on="1"/>
        <pt x="709" y="1768" on="1"/>
        <pt x="269" y="0" on="1"/>
        <pt x="87" y="0" on="1"/>
      </contour>
    </TTGlyph>
    <TTGlyph name="sterling" xMin="38" yMin="0" xMax="842" yMax="1781">
      <contour>
        <pt x="173" y="1383" on="1"/>
        <pt x="173" y="1781" on="0"/>
        <pt x="520" y="1781" on="1"/>
        <pt x="684" y="1781" on="0"/>
        <pt x="841" y="1585" on="0"/>
        <pt x="841" y="1381" on="1"/>
        <pt x="841" y="1246" on="1"/>
        <pt x="655" y="1246" on="1"/>
        <pt x="655" y="1393" on="1"/>
        <pt x="655" y="1533" on="0"/>
        <pt x="585" y="1625" on="0"/>
        <pt x="520" y="1625" on="1"/>
        <pt x="363" y="1625" on="0"/>
        <pt x="363" y="1386" on="1"/>
        <pt x="363" y="1222" on="0"/>
        <pt x="437" y="954" on="1"/>
        <pt x="787" y="954" on="1"/>
        <pt x="787" y="809" on="1"/>
        <pt x="476" y="809" on="1"/>
        <pt x="491" y="712" on="0"/>
        <pt x="491" y="634" on="1"/>
        <pt x="491" y="260" on="0"/>
        <pt x="297" y="164" on="1"/>
        <pt x="842" y="164" on="1"/>
        <pt x="842" y="0" on="1"/>
        <pt x="65" y="0" on="1"/>
        <pt x="65" y="143" on="1"/>
        <pt x="188" y="197" on="0"/>
        <pt x="292" y="423" on="0"/>
        <pt x="292" y="632" on="1"/>
        <pt x="292" y="722" on="0"/>
        <pt x="275" y="809" on="1"/>
        <pt x="38" y="809" on="1"/>
        <pt x="38" y="954" on="1"/>
        <pt x="241" y="954" on="1"/>
        <pt x="173" y="1204" on="0"/>
      </contour>
    </TTGlyph>
    <TTGlyph name="summation" xMin="116" yMin="0" xMax="663" yMax="1761">
      <contour>
        <pt x="116" y="1761" on="1"/>
        <pt x="663" y="1761" on="1"/>
        <pt x="663" y="1581" on="1"/>
        <pt x="350" y="1581" on="1"/>
        <pt x="588" y="880" on="1"/>
        <pt x="350" y="185" on="1"/>
        <pt x="663" y="185" on="1"/>
        <pt x="663" y="0" on="1"/>
        <pt x="116" y="0" on="1"/>
        <pt x="116" y="181" on="1"/>
        <pt x="361" y="881" on="1"/>
        <pt x="116" y="1585" on="1"/>
      </contour>
    </TTGlyph>
    <TTGlyph name="t" xMin="46" yMin="-9" xMax="552" yMax="1760">
      <contour>
        <pt x="183" y="1760" on="1"/>
        <pt x="388" y="1760" on="1"/>
        <pt x="388" y="1488" on="1"/>
        <pt x="550" y="1488" on="1"/>
        <pt x="550" y="1336" on="1"/>
        <pt x="388" y="1336" on="1"/>
        <pt x="388" y="241" on="1"/>
        <pt x="388" y="183" on="0"/>
        <pt x="442" y="154" on="0"/>
        <pt x="552" y="154" on="1"/>
        <pt x="552" y="-9" on="1"/>
        <pt x="411" y="-9" on="1"/>
        <pt x="269" y="-9" on="0"/>
        <pt x="183" y="94" on="0"/>
        <pt x="183" y="223" on="1"/>
        <pt x="183" y="1336" on="1"/>
        <pt x="46" y="1336" on="1"/>
        <pt x="46" y="1488" on="1"/>
        <pt x="183" y="1488" on="1"/>
      </contour>
    </TTGlyph>
    <TTGlyph name="tcaron" xMin="46" yMin="-9" xMax="970" yMax="1761">
      <component glyphName="t" x="0" y="0" flags="0x1004"/>
      <component glyphName="quoteright" x="501" y="-18" flags="0x1004"/>
    </TTGlyph>
    <TTGlyph name="thorn" xMin="147" yMin="-274" xMax="814" yMax="1779">
      <contour>
        <pt x="147" y="1779" on="1"/>
        <pt x="353" y="1779" on="1"/>
        <pt x="353" y="1375" on="1"/>
        <pt x="381" y="1445" on="0"/>
        <pt x="437" y="1479" on="1"/>
        <pt x="494" y="1513" on="0"/>
        <pt x="558" y="1513" on="1"/>
        <pt x="737" y="1513" on="0"/>
        <pt x="784" y="1327" on="1"/>
        <pt x="814" y="1211" on="0"/>
        <pt x="814" y="1030" on="1"/>
        <pt x="814" y="487" on="1"/>
        <pt x="814" y="188" on="0"/>
        <pt x="663" y="-18" on="0"/>
        <pt x="526" y="-18" on="1"/>
        <pt x="472" y="-18" on="0"/>
        <pt x="379" y="50" on="0"/>
        <pt x="353" y="100" on="1"/>
        <pt x="353" y="-274" on="1"/>
        <pt x="147" y="-274" on="1"/>
      </contour>
      <contour>
        <pt x="608" y="1065" on="1"/>
        <pt x="608" y="1243" on="0"/>
        <pt x="550" y="1345" on="0"/>
        <pt x="436" y="1345" on="0"/>
        <pt x="388" y="1298" on="0"/>
        <pt x="353" y="1201" on="0"/>
        <pt x="353" y="1065" on="1"/>
        <pt x="353" y="452" on="1"/>
        <pt x="353" y="292" on="0"/>
        <pt x="407" y="155" on="0"/>
        <pt x="559" y="155" on="0"/>
        <pt x="608" y="294" on="0"/>
        <pt x="608" y="460" on="1"/>
      </contour>
    </TTGlyph>
    <TTGlyph name="three" xMin="114" yMin="-20" xMax="806" yMax="1780">
      <contour>
        <pt x="624" y="927" on="1"/>
        <pt x="806" y="844" on="0"/>
        <pt x="806" y="485" on="1"/>
        <pt x="806" y="228" on="0"/>
        <pt x="636" y="-20" on="0"/>
        <pt x="266" y="-20" on="0"/>
        <pt x="114" y="218" on="0"/>
        <pt x="114" y="474" on="1"/>
        <pt x="114" y="552" on="1"/>
        <pt x="314" y="552" on="1"/>
        <pt x="314" y="471" on="1"/>
        <pt x="314" y="284" on="0"/>
        <pt x="365" y="155" on="0"/>
        <pt x="540" y="155" on="0"/>
        <pt x="601" y="303" on="0"/>
        <pt x="601" y="686" on="0"/>
        <pt x="518" y="841" on="0"/>
        <pt x="412" y="841" on="1"/>
        <pt x="355" y="841" on="1"/>
        <pt x="355" y="1006" on="1"/>
        <pt x="410" y="1006" on="1"/>
        <pt x="484" y="1006" on="0"/>
        <pt x="522" y="1030" on="1"/>
        <pt x="599" y="1078" on="0"/>
        <pt x="599" y="1313" on="1"/>
        <pt x="599" y="1316" on="0"/>
        <pt x="599" y="1319" on="1"/>
        <pt x="599" y="1494" on="0"/>
        <pt x="521" y="1604" on="0"/>
        <pt x="384" y="1604" on="0"/>
        <pt x="321" y="1479" on="0"/>
        <pt x="321" y="1316" on="1"/>
        <pt x="321" y="1274" on="1"/>
        <pt x="118" y="1274" on="1"/>
        <pt x="118" y="1319" on="1"/>
        <pt x="118" y="1556" on="0"/>
        <pt x="272" y="1780" on="0"/>
        <pt x="634" y="1780" on="0"/>
        <pt x="802" y="1551" on="0"/>
        <pt x="802" y="1319" on="1"/>
        <pt x="802" y="993" on="0"/>
      </contour>
    </TTGlyph>
    <TTGlyph name="threequarters" xMin="119" yMin="0" xMax="1426" yMax="1768">
      <contour>
        <pt x="994" y="1768" on="1"/>
        <pt x="1148" y="1768" on="1"/>
        <pt x="668" y="0" on="1"/>
        <pt x="515" y="0" on="1"/>
      </contour>
      <contour>
        <pt x="123" y="1446" on="1"/>
        <pt x="123" y="1600" on="0"/>
        <pt x="226" y="1747" on="0"/>
        <pt x="462" y="1747" on="0"/>
        <pt x="572" y="1598" on="0"/>
        <pt x="572" y="1446" on="1"/>
        <pt x="572" y="1234" on="0"/>
        <pt x="458" y="1191" on="1"/>
        <pt x="575" y="1138" on="0"/>
        <pt x="575" y="902" on="1"/>
        <pt x="575" y="736" on="0"/>
        <pt x="462" y="574" on="0"/>
        <pt x="222" y="574" on="0"/>
        <pt x="119" y="730" on="0"/>
        <pt x="119" y="896" on="1"/>
        <pt x="119" y="946" on="1"/>
        <pt x="251" y="946" on="1"/>
        <pt x="251" y="896" on="1"/>
        <pt x="251" y="771" on="0"/>
        <pt x="285" y="686" on="0"/>
        <pt x="402" y="686" on="0"/>
        <pt x="442" y="783" on="0"/>
        <pt x="442" y="1033" on="0"/>
        <pt x="384" y="1136" on="0"/>
        <pt x="313" y="1136" on="1"/>
        <pt x="285" y="1136" on="1"/>
        <pt x="285" y="1247" on="1"/>
        <pt x="311" y="1247" on="1"/>
        <pt x="360" y="1248" on="0"/>
        <pt x="386" y="1262" on="1"/>
        <pt x="440" y="1291" on="0"/>
        <pt x="440" y="1556" on="0"/>
        <pt x="391" y="1635" on="0"/>
        <pt x="297" y="1635" on="0"/>
        <pt x="256" y="1552" on="0"/>
        <pt x="256" y="1443" on="1"/>
        <pt x="255" y="1419" on="1"/>
        <pt x="123" y="1419" on="1"/>
      </contour>
      <contour>
        <pt x="1180" y="1147" on="1"/>
        <pt x="1336" y="1147" on="1"/>
        <pt x="1336" y="325" on="1"/>
        <pt x="1426" y="325" on="1"/>
        <pt x="1426" y="219" on="1"/>
        <pt x="1336" y="219" on="1"/>
        <pt x="1336" y="0" on="1"/>
        <pt x="1210" y="0" on="1"/>
        <pt x="1210" y="219" on="1"/>
        <pt x="929" y="219" on="1"/>
        <pt x="929" y="310" on="1"/>
      </contour>
      <contour>
        <pt x="1210" y="325" on="1"/>
        <pt x="1210" y="928" on="1"/>
        <pt x="1048" y="325" on="1"/>
      </contour>
    </TTGlyph>
    <TTGlyph name="tilde" xMin="245" yMin="422" xMax="870" yMax="650">
      <contour>
        <pt x="245" y="492" on="1"/>
        <pt x="272" y="585" on="0"/>
        <pt x="360" y="650" on="0"/>
        <pt x="469" y="650" on="0"/>
        <pt x="666" y="576" on="0"/>
        <pt x="687" y="576" on="1"/>
        <pt x="691" y="576" on="1"/>
        <pt x="708" y="579" on="0"/>
        <pt x="733" y="606" on="0"/>
        <pt x="747" y="647" on="1"/>
        <pt x="870" y="619" on="1"/>
        <pt x="861" y="582" on="1"/>
        <pt x="836" y="487" on="0"/>
        <pt x="766" y="422" on="0"/>
        <pt x="660" y="422" on="0"/>
        <pt x="471" y="504" on="0"/>
        <pt x="414" y="504" on="0"/>
        <pt x="383" y="497" on="0"/>
        <pt x="356" y="443" on="1"/>
      </contour>
    </TTGlyph>
    <TTGlyph name="trademark" xMin="103" yMin="476" xMax="1413" yMax="1761">
      <contour>
        <pt x="1206" y="1761" on="1"/>
        <pt x="1413" y="1761" on="1"/>
        <pt x="1413" y="476" on="1"/>
        <pt x="1273" y="476" on="1"/>
        <pt x="1273" y="1001" on="1"/>
        <pt x="1285" y="1498" on="1"/>
        <pt x="1115" y="476" on="1"/>
        <pt x="966" y="476" on="1"/>
        <pt x="789" y="1498" on="1"/>
        <pt x="801" y="1001" on="1"/>
        <pt x="801" y="476" on="1"/>
        <pt x="661" y="476" on="1"/>
        <pt x="661" y="1761" on="1"/>
        <pt x="868" y="1761" on="1"/>
        <pt x="1040" y="717" on="1"/>
      </contour>
      <contour>
        <pt x="103" y="1761" on="1"/>
        <pt x="531" y="1761" on="1"/>
        <pt x="531" y="1635" on="1"/>
        <pt x="398" y="1635" on="1"/>
        <pt x="398" y="476" on="1"/>
        <pt x="246" y="476" on="1"/>
        <pt x="246" y="1635" on="1"/>
        <pt x="103" y="1635" on="1"/>
      </contour>
    </TTGlyph>
    <TTGlyph name="two" xMin="162" yMin="0" xMax="786" yMax="1780">
      <contour>
        <pt x="162" y="1173" on="1"/>
        <pt x="162" y="1585" on="0"/>
        <pt x="248" y="1680" on="1"/>
        <pt x="281" y="1716" on="0"/>
        <pt x="315" y="1738" on="1"/>
        <pt x="380" y="1780" on="0"/>
        <pt x="497" y="1780" on="1"/>
        <pt x="786" y="1780" on="0"/>
        <pt x="786" y="1293" on="1"/>
        <pt x="786" y="1051" on="0"/>
        <pt x="661" y="815" on="1"/>
        <pt x="606" y="713" on="0"/>
        <pt x="550" y="615" on="1"/>
        <pt x="409" y="371" on="0"/>
        <pt x="374" y="155" on="1"/>
        <pt x="759" y="155" on="1"/>
        <pt x="759" y="0" on="1"/>
        <pt x="174" y="0" on="1"/>
        <pt x="174" y="98" on="1"/>
        <pt x="174" y="297" on="0"/>
        <pt x="374" y="685" on="1"/>
        <pt x="375" y="686" on="0"/>
        <pt x="503" y="934" on="0"/>
        <pt x="516" y="952" on="1"/>
        <pt x="549" y="1013" on="0"/>
        <pt x="590" y="1217" on="0"/>
        <pt x="590" y="1427" on="0"/>
        <pt x="560" y="1561" on="0"/>
        <pt x="516" y="1604" on="0"/>
        <pt x="455" y="1604" on="0"/>
        <pt x="436" y="1592" on="1"/>
        <pt x="364" y="1548" on="0"/>
        <pt x="364" y="1294" on="1"/>
        <pt x="364" y="1065" on="1"/>
        <pt x="162" y="1065" on="1"/>
      </contour>
    </TTGlyph>
    <TTGlyph name="u" xMin="137" yMin="-20" xMax="822" yMax="1500">
      <contour>
        <pt x="616" y="1500" on="1"/>
        <pt x="822" y="1500" on="1"/>
        <pt x="822" y="0" on="1"/>
        <pt x="616" y="0" on="1"/>
        <pt x="616" y="153" on="1"/>
        <pt x="592" y="77" on="0"/>
        <pt x="475" y="-20" on="0"/>
        <pt x="278" y="-20" on="0"/>
        <pt x="137" y="143" on="0"/>
        <pt x="137" y="312" on="1"/>
        <pt x="137" y="1500" on="1"/>
        <pt x="342" y="1500" on="1"/>
        <pt x="342" y="335" on="1"/>
        <pt x="342" y="158" on="0"/>
        <pt x="471" y="158" on="1"/>
        <pt x="543" y="158" on="0"/>
        <pt x="616" y="258" on="0"/>
        <pt x="616" y="340" on="1"/>
      </contour>
    </TTGlyph>
    <TTGlyph name="uacute" xMin="137" yMin="-20" xMax="822" yMax="1921">
      <component glyphName="u" x="0" y="0" flags="0x1004"/>
      <component glyphName="acute" x="209" y="-208" flags="0x1004"/>
    </TTGlyph>
    <TTGlyph name="ubreve" xMin="137" yMin="-20" xMax="822" yMax="1856">
      <component glyphName="breve" x="-9" y="0" flags="0x1004"/>
      <component glyphName="u" x="0" y="0" flags="0x1004"/>
    </TTGlyph>
    <TTGlyph name="ucircumflex" xMin="137" yMin="-20" xMax="822" yMax="1886">
      <component glyphName="u" x="0" y="0" flags="0x1004"/>
      <component glyphName="circumflex" x="14" y="0" flags="0x1004"/>
    </TTGlyph>
    <TTGlyph name="udieresis" xMin="137" yMin="-20" xMax="856" yMax="1796">
      <component glyphName="u" x="0" y="0" flags="0x1004"/>
      <component glyphName="dieresis" x="11" y="1200" flags="0x1004"/>
    </TTGlyph>
    <TTGlyph name="ugrave" xMin="137" yMin="-20" xMax="822" yMax="1903">
      <component glyphName="grave" x="196" y="1200" flags="0x1004"/>
      <component glyphName="u" x="0" y="0" flags="0x1004"/>
    </TTGlyph>
    <TTGlyph name="uhungarumlaut" xMin="137" yMin="-20" xMax="899" yMax="2120">
      <component glyphName="hungarumlaut" x="-162" y="1200" flags="0x1004"/>
      <component glyphName="u" x="0" y="0" flags="0x1004"/>
    </TTGlyph>
    <TTGlyph name="umacron" xMin="137" yMin="-20" xMax="822" yMax="1744">
      <component glyphName="macron" x="151" y="1200" flags="0x1004"/>
      <component glyphName="u" x="0" y="0" flags="0x1004"/>
    </TTGlyph>
    <TTGlyph name="underscore" xMin="48" yMin="-198" xMax="699" yMax="-46">
      <contour>
        <pt x="48" y="-46" on="1"/>
        <pt x="699" y="-46" on="1"/>
        <pt x="699" y="-198" on="1"/>
        <pt x="48" y="-198" on="1"/>
      </contour>
    </TTGlyph>
    <TTGlyph name="uni00AD" xMin="90" yMin="573" xMax="606" yMax="741">
      <contour>
        <pt x="90" y="741" on="1"/>
        <pt x="606" y="741" on="1"/>
        <pt x="606" y="573" on="1"/>
        <pt x="90" y="573" on="1"/>
      </contour>
    </TTGlyph>
    <TTGlyph name="uni00B2" xMin="222" yMin="490" xMax="680" yMax="1779">
      <contour>
        <pt x="222" y="1340" on="1"/>
        <pt x="222" y="1586" on="0"/>
        <pt x="300" y="1744" on="0"/>
        <pt x="372" y="1766" on="1"/>
        <pt x="412" y="1778" on="0"/>
        <pt x="468" y="1779" on="1"/>
        <pt x="680" y="1779" on="0"/>
        <pt x="680" y="1427" on="1"/>
        <pt x="680" y="1250" on="0"/>
        <pt x="590" y="1078" on="1"/>
        <pt x="550" y="1004" on="0"/>
        <pt x="509" y="932" on="1"/>
        <pt x="405" y="751" on="0"/>
        <pt x="381" y="603" on="1"/>
        <pt x="664" y="603" on="1"/>
        <pt x="664" y="490" on="1"/>
        <pt x="226" y="490" on="1"/>
        <pt x="226" y="557" on="1"/>
        <pt x="226" y="638" on="0"/>
        <pt x="448" y="1137" on="0"/>
        <pt x="482" y="1179" on="1"/>
        <pt x="536" y="1278" on="0"/>
        <pt x="536" y="1602" on="0"/>
        <pt x="498" y="1637" on="1"/>
        <pt x="482" y="1652" on="0"/>
        <pt x="430" y="1652" on="0"/>
        <pt x="412" y="1636" on="1"/>
        <pt x="370" y="1599" on="0"/>
        <pt x="370" y="1428" on="1"/>
        <pt x="370" y="1262" on="1"/>
        <pt x="222" y="1262" on="1"/>
      </contour>
    </TTGlyph>
    <TTGlyph name="uni00B3" xMin="197" yMin="571" xMax="682" yMax="1777">
      <contour>
        <pt x="201" y="1467" on="1"/>
        <pt x="201" y="1626" on="0"/>
        <pt x="310" y="1777" on="0"/>
        <pt x="562" y="1777" on="0"/>
        <pt x="680" y="1622" on="0"/>
        <pt x="680" y="1467" on="1"/>
        <pt x="680" y="1250" on="0"/>
        <pt x="560" y="1206" on="1"/>
        <pt x="682" y="1152" on="0"/>
        <pt x="682" y="910" on="1"/>
        <pt x="682" y="738" on="0"/>
        <pt x="562" y="571" on="0"/>
        <pt x="305" y="571" on="0"/>
        <pt x="197" y="731" on="0"/>
        <pt x="197" y="902" on="1"/>
        <pt x="197" y="956" on="1"/>
        <pt x="339" y="956" on="1"/>
        <pt x="339" y="902" on="1"/>
        <pt x="339" y="777" on="0"/>
        <pt x="375" y="689" on="0"/>
        <pt x="495" y="689" on="0"/>
        <pt x="536" y="787" on="0"/>
        <pt x="536" y="1043" on="0"/>
        <pt x="477" y="1148" on="0"/>
        <pt x="402" y="1148" on="1"/>
        <pt x="373" y="1148" on="1"/>
        <pt x="373" y="1261" on="1"/>
        <pt x="401" y="1261" on="1"/>
        <pt x="452" y="1262" on="0"/>
        <pt x="479" y="1277" on="1"/>
        <pt x="535" y="1308" on="0"/>
        <pt x="535" y="1578" on="0"/>
        <pt x="484" y="1658" on="0"/>
        <pt x="387" y="1658" on="0"/>
        <pt x="344" y="1574" on="0"/>
        <pt x="344" y="1464" on="1"/>
        <pt x="344" y="1439" on="1"/>
        <pt x="201" y="1439" on="1"/>
      </contour>
    </TTGlyph>
</ttFont>
